<svg xmlns="http://www.w3.org/2000/svg" width="35" height="36" viewBox="0 0 35 36" fill="none">
  <path fill-rule="evenodd" clip-rule="evenodd" d="M28.0938 15.9281C26.6543 15.704 26.0234 15.8678 24.9399 16.7469C24.0831 17.442 24.6913 19.3279 25.8293 19.5051C27.2688 19.7292 27.8997 19.5655 28.9832 18.6863C29.5494 17.7921 29.2318 16.1053 28.0938 15.9281Z" fill="#FE3E4F" stroke="black" stroke-opacity="0.6" stroke-width="0.6"/>
  <path fill-rule="evenodd" clip-rule="evenodd" d="M27.0374 13.0156C25.5783 12.9591 24.9754 13.1943 24.0232 14.1912C23.2704 14.9794 24.1368 16.78 25.2904 16.8246C26.7495 16.881 27.3523 16.6459 28.3046 15.649C28.7413 14.6967 28.1909 13.0601 27.0374 13.0156Z" fill="#FE3E4F" stroke="black" stroke-opacity="0.6" stroke-width="0.6"/>
  <path fill-rule="evenodd" clip-rule="evenodd" d="M23.9493 14.3759C25.4075 14.5193 26.0235 14.3213 27.0294 13.3857C27.8246 12.6462 27.0515 10.8018 25.8987 10.6885C24.4404 10.5451 23.8245 10.7431 22.8185 11.6787C22.3312 12.6005 22.7965 14.2626 23.9493 14.3759Z" fill="#FE3E4F" stroke="black" stroke-opacity="0.6" stroke-width="0.6"/>
  <path fill-rule="evenodd" clip-rule="evenodd" d="M22.6007 12.4948C24.0125 12.1446 24.4972 11.7572 25.0244 10.5581C25.4412 9.61005 23.9289 8.15886 22.8127 8.43565C21.4009 8.78585 20.9162 9.17318 20.389 10.3723C20.336 11.3871 21.4845 12.7715 22.6007 12.4948Z" fill="#FE3E4F" stroke="black" stroke-opacity="0.6" stroke-width="0.6"/>
  <path fill-rule="evenodd" clip-rule="evenodd" d="M20.5882 10.7434C21.7409 9.94827 22.0204 9.42834 21.9856 8.14381C21.9581 7.12825 19.9282 6.29154 19.0168 6.92015C17.8641 7.71528 17.5847 8.23522 17.6195 9.51974C18.0123 10.4756 19.6768 11.372 20.5882 10.7434Z" fill="#FE3E4F" stroke="black" stroke-opacity="0.6" stroke-width="0.6"/>
  <path fill-rule="evenodd" clip-rule="evenodd" d="M17.835 9.58074C18.7382 8.56802 18.8682 8.00482 18.4849 6.76441C18.1819 5.78383 15.9828 5.39472 15.2687 6.19534C14.3655 7.20806 14.2356 7.77127 14.6188 9.01168C15.2604 9.85802 17.1209 10.3814 17.835 9.58074Z" fill="#FE3E4F" stroke="black" stroke-opacity="0.6" stroke-width="0.6"/>
  <path fill-rule="evenodd" clip-rule="evenodd" d="M30.7452 13.6618C29.3131 13.5223 28.6989 13.7124 27.674 14.6121C26.8638 15.3234 27.56 17.0999 28.6922 17.2102C30.1243 17.3497 30.7385 17.1597 31.7633 16.2599C32.2766 15.3728 31.8774 13.7722 30.7452 13.6618Z" fill="#FE3E4F" stroke="black" stroke-opacity="0.6" stroke-width="0.6"/>
  <path fill-rule="evenodd" clip-rule="evenodd" d="M29.5545 10.9249C28.1115 10.9472 27.5286 11.2042 26.6395 12.21C25.9366 13.0051 26.8833 14.6864 28.0241 14.6687C29.467 14.6464 30.05 14.3893 30.9391 13.3835C31.3217 12.4476 30.6953 10.9072 29.5545 10.9249Z" fill="#FE3E4F" stroke="black" stroke-opacity="0.6" stroke-width="0.6"/>
  <path fill-rule="evenodd" clip-rule="evenodd" d="M26.577 12.39C28.0235 12.4511 28.6214 12.229 29.5666 11.2793C30.3138 10.5285 29.4569 8.80051 28.3134 8.75227C26.8669 8.69115 26.269 8.91329 25.3238 9.863C24.8897 10.7724 25.4335 12.3417 26.577 12.39Z" fill="#FE3E4F" stroke="black" stroke-opacity="0.6" stroke-width="0.6"/>
  <path fill-rule="evenodd" clip-rule="evenodd" d="M25.1503 10.6578C26.5259 10.2481 26.9846 9.85131 27.4439 8.67394C27.807 7.74311 26.2406 6.43082 25.1531 6.75468C23.7775 7.16439 23.3188 7.56118 22.8595 8.73856C22.8588 9.71436 24.0628 10.9817 25.1503 10.6578Z" fill="#FE3E4F" stroke="black" stroke-opacity="0.6" stroke-width="0.6"/>
  <path fill-rule="evenodd" clip-rule="evenodd" d="M23.0743 9.08352C24.1715 8.26075 24.4209 7.74757 24.3212 6.51772C24.2424 5.5454 22.1964 4.84943 21.329 5.49988C20.2318 6.32265 19.9824 6.83582 20.0821 8.06568C20.5185 8.9616 22.2069 9.73397 23.0743 9.08352Z" fill="#FE3E4F" stroke="black" stroke-opacity="0.6" stroke-width="0.6"/>
  <path fill-rule="evenodd" clip-rule="evenodd" d="M30.5445 14.64C32.1275 14.8924 32.813 14.6882 33.9724 13.6193C34.8889 12.7743 34.1646 10.5156 32.9132 10.3161C31.3302 10.0637 30.6447 10.2679 29.4853 11.3368C28.8931 12.4178 29.2931 14.4406 30.5445 14.64Z" fill="#FE3E4F" stroke="black" stroke-opacity="0.6" stroke-width="0.6"/>
  <path fill-rule="evenodd" clip-rule="evenodd" d="M29.1192 11.0916C30.7137 11.2641 31.3873 11.0258 32.4872 9.90014C33.3568 9.01021 32.5114 6.79093 31.2508 6.6546C29.6563 6.48207 28.9828 6.72037 27.8828 7.84607C27.3499 8.95531 27.8587 10.9553 29.1192 11.0916Z" fill="#FE3E4F" stroke="black" stroke-opacity="0.6" stroke-width="0.6"/>
  <path fill-rule="evenodd" clip-rule="evenodd" d="M27.6453 8.82827C29.189 8.40688 29.719 7.9408 30.2955 6.4978C30.7512 5.35706 29.0976 3.6108 27.8772 3.94395C26.3334 4.36534 25.8035 4.83142 25.227 6.27442C25.169 7.49548 26.4249 9.16142 27.6453 8.82827Z" fill="#FE3E4F" stroke="black" stroke-opacity="0.6" stroke-width="0.6"/>
  <path fill-rule="evenodd" clip-rule="evenodd" d="M25.4454 6.72132C26.7058 5.76455 27.0114 5.13891 26.9733 3.59323C26.9433 2.37124 24.7236 1.36442 23.7272 2.12082C22.4668 3.07759 22.1612 3.70324 22.1992 5.24892C22.6288 6.39904 24.449 7.47772 25.4454 6.72132Z" fill="#FE3E4F" stroke="black" stroke-opacity="0.6" stroke-width="0.6"/>
  <path fill-rule="evenodd" clip-rule="evenodd" d="M9.72597 30.7504C8.95616 32.0514 8.91035 32.7262 9.49686 34.1246C9.96055 35.2302 12.2791 35.3967 12.8877 34.3682C13.6575 33.0673 13.7034 32.3925 13.1168 30.994C12.3264 30.0896 10.3346 29.7219 9.72597 30.7504Z" fill="#FE3E4F" stroke="black" stroke-opacity="0.6" stroke-width="0.6"/>
  <path fill-rule="evenodd" clip-rule="evenodd" d="M4.72126 23.4057C3.22472 23.193 2.58378 23.4093 1.51674 24.4868C0.673223 25.3387 1.40768 27.5441 2.59086 27.7123C4.0874 27.9249 4.72834 27.7087 5.79538 26.6311C6.32798 25.5545 5.90444 23.5739 4.72126 23.4057Z" fill="#FE3E4F" stroke="black" stroke-opacity="0.6" stroke-width="0.6"/>
  <path fill-rule="evenodd" clip-rule="evenodd" d="M5.1034 26.8597C3.97293 26.6833 3.48882 26.8627 2.68294 27.7568C2.04578 28.4636 2.60056 30.2937 3.49427 30.4331C4.62474 30.6095 5.10885 30.4301 5.91474 29.536C6.31703 28.6426 5.99711 26.9991 5.1034 26.8597Z" fill="#FE3E4F" stroke="black" stroke-opacity="0.6" stroke-width="0.6"/>
  <path fill-rule="evenodd" clip-rule="evenodd" d="M6.37966 28.6524C5.19922 28.9833 4.78677 29.3776 4.31714 30.6236C3.94594 31.6086 5.16119 33.1727 6.09446 32.9109C7.2749 32.58 7.68735 32.1857 8.15698 30.9397C8.22828 29.8751 7.31293 28.3906 6.37966 28.6524Z" fill="#FE3E4F" stroke="black" stroke-opacity="0.6" stroke-width="0.6"/>
  <path fill-rule="evenodd" clip-rule="evenodd" d="M8.48954 30.2739C7.37626 31.0103 7.08148 31.5227 7.01563 32.8361C6.96358 33.8744 8.75415 34.8606 9.63426 34.2783C10.7475 33.5419 11.0423 33.0294 11.1082 31.7161C10.822 30.715 9.36965 29.6916 8.48954 30.2739Z" fill="#FE3E4F" stroke="black" stroke-opacity="0.6" stroke-width="0.6"/>
  <path fill-rule="evenodd" clip-rule="evenodd" d="M5.51948 20.5728C4.03591 20.282 3.38465 20.4643 2.26331 21.4844C1.37685 22.2909 1.99613 24.5318 3.16901 24.7618C4.65257 25.0527 5.30383 24.8703 6.42517 23.8502C7.01278 22.803 6.69234 20.8028 5.51948 20.5728Z" fill="#FE3E4F" stroke="black" stroke-opacity="0.6" stroke-width="0.6"/>
  <path fill-rule="evenodd" clip-rule="evenodd" d="M6.76328 24.1006C5.26673 23.888 4.6258 24.1042 3.55875 25.1817C2.71524 26.0336 3.4497 28.239 4.63288 28.4072C6.12943 28.6198 6.77036 28.4036 7.8374 27.3261C8.37 26.2494 7.94646 24.2688 6.76328 24.1006Z" fill="#FE3E4F" stroke="black" stroke-opacity="0.6" stroke-width="0.6"/>
  <path fill-rule="evenodd" clip-rule="evenodd" d="M8.08823 26.3669C6.62287 26.7398 6.11083 27.1839 5.52803 28.5876C5.06725 29.6973 6.57581 31.4594 7.73427 31.1646C9.19962 30.7917 9.71166 30.3476 10.2945 28.9439C10.383 27.7445 9.24669 26.0721 8.08823 26.3669Z" fill="#FE3E4F" stroke="black" stroke-opacity="0.6" stroke-width="0.6"/>
  <path fill-rule="evenodd" clip-rule="evenodd" d="M10.1022 28.4989C8.8888 29.406 8.58368 30.013 8.5766 31.5343C8.57098 32.737 10.6331 33.7871 11.5924 33.07C12.8058 32.1629 13.1109 31.5559 13.118 30.0346C12.7455 28.8918 11.0615 27.7818 10.1022 28.4989Z" fill="#FE3E4F" stroke="black" stroke-opacity="0.6" stroke-width="0.6"/>
  <path fill-rule="evenodd" clip-rule="evenodd" d="M6.63344 17.2678C5.01428 16.9525 4.30356 17.1502 3.07968 18.2563C2.11219 19.1308 2.78807 21.5607 4.06814 21.81C5.68729 22.1254 6.39802 21.9277 7.6219 20.8216C8.26322 19.686 7.91351 17.5172 6.63344 17.2678Z" fill="#FE3E4F" stroke="black" stroke-opacity="0.6" stroke-width="0.6"/>
  <path fill-rule="evenodd" clip-rule="evenodd" d="M8.44824 14.8702C6.83159 14.2278 6.04813 14.2747 4.53137 15.1047C3.33219 15.7609 3.50281 18.278 4.7809 18.7858C6.39754 19.4282 7.181 19.3813 8.69776 18.5513C9.6146 17.5724 9.72633 15.3781 8.44824 14.8702Z" fill="#FE3E4F" stroke="black" stroke-opacity="0.6" stroke-width="0.6"/>
  <path fill-rule="evenodd" clip-rule="evenodd" d="M8.40545 18.1782C6.68257 17.8628 5.92626 18.0605 4.62417 19.1666C3.59473 20.0411 4.31389 22.471 5.67595 22.7204C7.39883 23.0357 8.15514 22.838 9.45722 21.7319C10.1396 20.5964 9.76751 18.4275 8.40545 18.1782Z" fill="#FE3E4F" stroke="black" stroke-opacity="0.6" stroke-width="0.6"/>
  <path fill-rule="evenodd" clip-rule="evenodd" d="M9.8499 22.004C8.11183 21.7734 7.36762 22.0079 6.12854 23.1763C5.14897 24.1 6.00189 26.4913 7.37591 26.6737C9.11398 26.9043 9.8582 26.6698 11.0973 25.5014C11.7158 24.334 11.2239 22.1864 9.8499 22.004Z" fill="#FE3E4F" stroke="black" stroke-opacity="0.6" stroke-width="0.6"/>
  <path fill-rule="evenodd" clip-rule="evenodd" d="M11.3888 24.4606C9.68702 24.8649 9.09242 25.3465 8.41563 26.8685C7.88052 28.0718 9.63242 29.9825 10.9777 29.6627C12.6795 29.2584 13.2741 28.7769 13.9509 27.2548C14.0537 25.9543 12.7341 24.1409 11.3888 24.4606Z" fill="#FE3E4F" stroke="black" stroke-opacity="0.6" stroke-width="0.6"/>
  <path fill-rule="evenodd" clip-rule="evenodd" d="M13.3703 29.6188C12.1569 30.5258 11.8518 31.1329 11.8447 32.6542C11.8391 33.8569 13.9012 34.9069 14.8605 34.1899C16.0739 33.2828 16.3791 32.6758 16.3861 31.1544C16.0136 30.0117 14.3297 28.9017 13.3703 29.6188Z" fill="#FE3E4F" stroke="black" stroke-opacity="0.6" stroke-width="0.6"/>
  <path fill-rule="evenodd" clip-rule="evenodd" d="M13.7259 26.7726C12.3168 27.7562 11.9625 28.4145 11.9542 30.0641C11.9477 31.3682 14.3423 32.5067 15.4565 31.7291C16.8656 30.7456 17.2199 30.0872 17.2282 28.4377C16.7956 27.1986 14.84 25.9951 13.7259 26.7726Z" fill="#FE3E4F" stroke="black" stroke-opacity="0.6" stroke-width="0.6"/>
  <path fill-rule="evenodd" clip-rule="evenodd" d="M15.6219 27.6727C14.5026 28.9434 14.3254 29.662 14.7355 31.266C15.0598 32.534 17.6742 33.1035 18.559 32.0989C19.6782 30.8282 19.8555 30.1096 19.4453 28.5056C18.711 27.3991 16.5067 26.6681 15.6219 27.6727Z" fill="#FE3E4F" stroke="black" stroke-opacity="0.6" stroke-width="0.6"/>
  <path fill-rule="evenodd" clip-rule="evenodd" d="M10.0063 12.3915C8.4925 11.7953 7.75905 11.8389 6.33864 12.6091C5.21578 13.218 5.37555 15.5538 6.5723 16.025C8.0861 16.6212 8.81955 16.5776 10.24 15.8074C11.0984 14.899 11.2031 12.8627 10.0063 12.3915Z" fill="#FE3E4F" stroke="black" stroke-opacity="0.6" stroke-width="0.6"/>
  <path fill-rule="evenodd" clip-rule="evenodd" d="M10.4475 16.2394C8.83421 15.9468 8.12614 16.1302 6.90683 17.1567C5.94291 17.9681 6.61631 20.223 7.89167 20.4543C9.50492 20.7469 10.213 20.5635 11.4323 19.537C12.0712 18.4833 11.7228 16.4708 10.4475 16.2394Z" fill="#FE3E4F" stroke="black" stroke-opacity="0.6" stroke-width="0.6"/>
  <path fill-rule="evenodd" clip-rule="evenodd" d="M11.6795 18.9616C10.046 18.7311 9.34664 18.9655 8.18207 20.1339C7.26146 21.0576 8.06304 23.449 9.35437 23.6313C10.9878 23.8619 11.6872 23.6274 12.8518 22.459C13.433 21.2916 12.9708 19.144 11.6795 18.9616Z" fill="#FE3E4F" stroke="black" stroke-opacity="0.6" stroke-width="0.6"/>
  <path fill-rule="evenodd" clip-rule="evenodd" d="M13.2405 22.0704C11.6471 22.4456 11.0903 22.8924 10.4565 24.3048C9.95541 25.4214 11.5958 27.1943 12.8555 26.8978C14.4489 26.5226 15.0057 26.0757 15.6396 24.6633C15.7358 23.4565 14.5002 21.7738 13.2405 22.0704Z" fill="#FE3E4F" stroke="black" stroke-opacity="0.6" stroke-width="0.6"/>
  <path fill-rule="evenodd" clip-rule="evenodd" d="M14.71 24.2157C13.47 25.1284 13.1582 25.7392 13.1509 27.27C13.1452 28.4802 15.2525 29.5367 16.2328 28.8151C17.4729 27.9024 17.7847 27.2916 17.7919 25.7608C17.4112 24.6109 15.6903 23.4941 14.71 24.2157Z" fill="#FE3E4F" stroke="black" stroke-opacity="0.6" stroke-width="0.6"/>
  <path fill-rule="evenodd" clip-rule="evenodd" d="M18.4709 25.6823C17.423 26.8615 17.257 27.5284 17.641 29.0168C17.9447 30.1935 20.3926 30.722 21.2212 29.7898C22.2692 28.6106 22.4352 27.9437 22.0511 26.4553C21.3636 25.4284 19.2996 24.7501 18.4709 25.6823Z" fill="#FE3E4F" stroke="black" stroke-opacity="0.6" stroke-width="0.6"/>
  <path fill-rule="evenodd" clip-rule="evenodd" d="M12.4511 8.92712C10.8103 8.25847 10.0152 8.30729 8.47568 9.17121C7.25858 9.85421 7.43175 12.474 8.72894 13.0026C10.3698 13.6713 11.1649 13.6225 12.7044 12.7586C13.6349 11.7397 13.7483 9.45578 12.4511 8.92712Z" fill="#FE3E4F" stroke="black" stroke-opacity="0.6" stroke-width="0.6"/>
  <path fill-rule="evenodd" clip-rule="evenodd" d="M13.1549 13.3343C11.4064 13.006 10.6387 13.2118 9.31712 14.3631C8.27229 15.2733 9.0022 17.8024 10.3846 18.0619C12.1332 18.3901 12.9008 18.1844 14.2224 17.0331C14.915 15.8512 14.5373 13.5938 13.1549 13.3343Z" fill="#FE3E4F" stroke="black" stroke-opacity="0.6" stroke-width="0.6"/>
  <path fill-rule="evenodd" clip-rule="evenodd" d="M14.7513 17.3091C12.8744 17.0692 12.0706 17.3132 10.7325 18.5293C9.67464 19.4907 10.5957 21.9798 12.0796 22.1695C13.9565 22.4095 14.7604 22.1655 16.0984 20.9494C16.7664 19.7343 16.2352 17.4989 14.7513 17.3091Z" fill="#FE3E4F" stroke="black" stroke-opacity="0.6" stroke-width="0.6"/>
  <path fill-rule="evenodd" clip-rule="evenodd" d="M15.6351 19.8661C13.908 20.2869 13.3045 20.7881 12.6176 22.3723C12.0744 23.6247 13.8525 25.6134 15.2179 25.2807C16.945 24.8599 17.5485 24.3586 18.2355 22.7745C18.3398 21.4208 17.0005 19.5334 15.6351 19.8661Z" fill="#FE3E4F" stroke="black" stroke-opacity="0.6" stroke-width="0.6"/>
  <path fill-rule="evenodd" clip-rule="evenodd" d="M18.0077 22.2725C16.5775 23.2962 16.2178 23.9814 16.2095 25.6984C16.2029 27.0557 18.6334 28.2407 19.764 27.4314C21.1942 26.4077 21.5539 25.7226 21.5621 24.0056C21.1231 22.7159 19.1383 21.4633 18.0077 22.2725Z" fill="#FE3E4F" stroke="black" stroke-opacity="0.6" stroke-width="0.6"/>
  <path fill-rule="evenodd" clip-rule="evenodd" d="M21.3038 23.9177C20.1679 25.2403 19.9879 25.9883 20.4042 27.6578C20.7333 28.9775 23.3868 29.5704 24.2848 28.5247C25.4207 27.2021 25.6007 26.4541 25.1844 24.7846C24.4391 23.6329 22.2018 22.872 21.3038 23.9177Z" fill="#FE3E4F" stroke="black" stroke-opacity="0.6" stroke-width="0.6"/>
  <path fill-rule="evenodd" clip-rule="evenodd" d="M15.2692 6.31854C13.5564 5.67191 12.7263 5.71911 11.1192 6.55458C9.84868 7.21508 10.0295 9.74863 11.3836 10.2599C13.0965 10.9065 13.9265 10.8593 15.5336 10.0238C16.505 9.03849 16.6234 6.82978 15.2692 6.31854Z" fill="#FE3E4F" stroke="black" stroke-opacity="0.6" stroke-width="0.6"/>
  <path fill-rule="evenodd" clip-rule="evenodd" d="M16.0379 10.4527C14.2442 10.1267 13.4569 10.3311 12.1013 11.4746C11.0296 12.3786 11.7783 14.8905 13.1963 15.1483C14.99 15.4743 15.7773 15.2699 17.1329 14.1264C17.8433 12.9525 17.4559 10.7105 16.0379 10.4527Z" fill="#FE3E4F" stroke="black" stroke-opacity="0.6" stroke-width="0.6"/>
  <path fill-rule="evenodd" clip-rule="evenodd" d="M16.3256 14.6725C14.6014 14.4572 13.863 14.6762 12.6338 15.7675C11.662 16.6302 12.5081 18.8639 13.8713 19.0341C15.5955 19.2495 16.334 19.0305 17.5631 17.9391C18.1768 16.8487 17.6888 14.8428 16.3256 14.6725Z" fill="#FE3E4F" stroke="black" stroke-opacity="0.6" stroke-width="0.6"/>
  <path fill-rule="evenodd" clip-rule="evenodd" d="M18.0254 16.6983C16.2982 17.1191 15.6947 17.6204 15.0078 19.2045C14.4647 20.4569 16.2428 22.4456 17.6081 22.1129C19.3353 21.6921 19.9387 21.1908 20.6257 19.6067C20.73 18.253 19.3907 16.3656 18.0254 16.6983Z" fill="#FE3E4F" stroke="black" stroke-opacity="0.6" stroke-width="0.6"/>
  <path fill-rule="evenodd" clip-rule="evenodd" d="M20.3979 19.1047C18.9677 20.1285 18.608 20.8136 18.5997 22.5306C18.5931 23.8879 21.0236 25.0729 22.1542 24.2636C23.5844 23.2399 23.9441 22.5548 23.9524 20.8378C23.5133 19.5481 21.5285 18.2955 20.3979 19.1047Z" fill="#FE3E4F" stroke="black" stroke-opacity="0.6" stroke-width="0.6"/>
  <path fill-rule="evenodd" clip-rule="evenodd" d="M24.1942 21.8107C23.0582 23.1333 22.8783 23.8814 23.2946 25.5508C23.6237 26.8706 26.2772 27.4634 27.1752 26.4178C28.3111 25.0952 28.4911 24.3472 28.0748 22.6777C27.3295 21.5259 25.0922 20.7651 24.1942 21.8107Z" fill="#FE3E4F" stroke="black" stroke-opacity="0.6" stroke-width="0.6"/>
  <path fill-rule="evenodd" clip-rule="evenodd" d="M18.3322 4.22783C16.5799 3.50727 15.7307 3.55986 14.0867 4.49087C12.7868 5.22688 12.9718 8.05009 14.3571 8.61976C16.1095 9.34032 16.9586 9.28772 18.6027 8.35672C19.5965 7.25873 19.7176 4.7975 18.3322 4.22783Z" fill="#FE3E4F" stroke="black" stroke-opacity="0.6" stroke-width="0.6"/>
  <path fill-rule="evenodd" clip-rule="evenodd" d="M18.2865 7.93858C16.419 7.58487 15.5993 7.8066 14.1879 9.04727C13.072 10.0281 13.8515 12.7536 15.3279 13.0332C17.1954 13.3869 18.0151 13.1652 19.4266 11.9245C20.1662 10.6508 19.7629 8.21817 18.2865 7.93858Z" fill="#FE3E4F" stroke="black" stroke-opacity="0.6" stroke-width="0.6"/>
  <path fill-rule="evenodd" clip-rule="evenodd" d="M19.852 12.2292C17.9681 11.9706 17.1613 12.2336 15.8182 13.5441C14.7564 14.5801 15.681 17.2623 17.1703 17.4668C19.0542 17.7254 19.8609 17.4625 21.204 16.1519C21.8744 14.8425 21.3413 12.4337 19.852 12.2292Z" fill="#FE3E4F" stroke="black" stroke-opacity="0.6" stroke-width="0.6"/>
  <path fill-rule="evenodd" clip-rule="evenodd" d="M21.5207 14.9853C19.6761 15.4388 19.0316 15.9789 18.2979 17.6861C17.7178 19.0357 19.6168 21.1788 21.075 20.8203C22.9196 20.3668 23.564 19.8266 24.2978 18.1194C24.4092 16.6607 22.9789 14.6268 21.5207 14.9853Z" fill="#FE3E4F" stroke="black" stroke-opacity="0.6" stroke-width="0.6"/>
  <path fill-rule="evenodd" clip-rule="evenodd" d="M24.054 17.5777C22.5266 18.6808 22.1426 19.4192 22.1336 21.2694C22.1265 22.7321 24.7223 24.0091 25.9298 23.137C27.4571 22.0338 27.8412 21.2955 27.8502 19.4453C27.3813 18.0554 25.2615 16.7055 24.054 17.5777Z" fill="#FE3E4F" stroke="black" stroke-opacity="0.6" stroke-width="0.6"/>
  <path fill-rule="evenodd" clip-rule="evenodd" d="M27.4505 19.2803C26.3418 20.5771 26.1662 21.3104 26.5725 22.9473C26.8937 24.2412 29.4836 24.8224 30.3601 23.7973C31.4689 22.5005 31.6444 21.7672 31.2381 20.1304C30.5107 19.0011 28.3271 18.2552 27.4505 19.2803Z" fill="#FE3E4F" stroke="black" stroke-opacity="0.6" stroke-width="0.6"/>
  <path fill-rule="evenodd" clip-rule="evenodd" d="M22.434 5.32113C23.4216 4.10255 23.5637 3.42474 23.1446 1.93233C22.8132 0.752413 20.4087 0.284254 19.6278 1.24757C18.6403 2.46616 18.4982 3.14396 18.9173 4.63638C19.6188 5.65477 21.6532 6.28445 22.434 5.32113Z" fill="#FE3E4F" stroke="black" stroke-opacity="0.6" stroke-width="0.6"/>
  <path fill-rule="evenodd" clip-rule="evenodd" d="M17.537 2.32007C16.2143 3.4392 15.9199 4.1393 16.0646 5.82027C16.1791 7.14925 18.6877 8.10972 19.7333 7.22503C21.056 6.1059 21.3504 5.4058 21.2057 3.72483C20.6566 2.49859 18.5826 1.43537 17.537 2.32007Z" fill="#FE3E4F" stroke="black" stroke-opacity="0.6" stroke-width="0.6"/>
  <path fill-rule="evenodd" clip-rule="evenodd" d="M20.4716 6.20198C18.7364 5.87953 17.9746 6.08167 16.6631 7.21267C15.6262 8.10681 16.3506 10.5914 17.7224 10.8463C19.4577 11.1687 20.2195 10.9666 21.531 9.83556C22.2183 8.67447 21.8435 6.45679 20.4716 6.20198Z" fill="#FE3E4F" stroke="black" stroke-opacity="0.6" stroke-width="0.6"/>
  <path fill-rule="evenodd" clip-rule="evenodd" d="M21.925 10.1134C20.1745 9.87764 19.4248 10.1174 18.1767 11.312C17.1901 12.2565 18.0492 14.7017 19.4331 14.8881C21.1836 15.1238 21.9332 14.8841 23.1813 13.6894C23.8043 12.4958 23.3089 10.2997 21.925 10.1134Z" fill="#FE3E4F" stroke="black" stroke-opacity="0.6" stroke-width="0.6"/>
  <path fill-rule="evenodd" clip-rule="evenodd" d="M23.4757 12.6261C21.7616 13.0395 21.1627 13.5319 20.4811 15.0881C19.9421 16.3185 21.7066 18.272 23.0616 17.9452C24.7757 17.5318 25.3746 17.0394 26.0562 15.4831C26.1597 14.1533 24.8307 12.2992 23.4757 12.6261Z" fill="#FE3E4F" stroke="black" stroke-opacity="0.6" stroke-width="0.6"/>
  <path fill-rule="evenodd" clip-rule="evenodd" d="M25.8305 14.9897C24.4112 15.9954 24.0543 16.6685 24.0459 18.3552C24.0393 19.6887 26.4513 20.8529 27.5733 20.0577C28.9925 19.0521 29.3494 18.379 29.3577 16.6923C28.9219 15.4253 26.9522 14.1946 25.8303 14.9897H25.8305Z" fill="#FE3E4F" stroke="black" stroke-opacity="0.6" stroke-width="0.6"/>
  <path fill-rule="evenodd" clip-rule="evenodd" d="M30.7673 13.8403C29.9176 15.1924 29.8366 15.9052 30.3625 17.4041C30.7782 18.5891 33.1297 18.8401 33.8014 17.7712C34.6512 16.4191 34.7321 15.7063 34.2063 14.2074C33.4478 13.2247 31.4391 12.7714 30.7673 13.8403Z" fill="#FE3E4F" stroke="black" stroke-opacity="0.6" stroke-width="0.6"/>
  <path fill-rule="evenodd" clip-rule="evenodd" d="M29.4084 16.1863C28.2811 17.4856 28.1026 18.2205 28.5157 19.8605C28.8423 21.157 31.4755 21.7393 32.3668 20.7122C33.4941 19.4129 33.6726 18.678 33.2595 17.038C32.5199 15.9066 30.2997 15.1592 29.4084 16.1863Z" fill="#FE3E4F" stroke="black" stroke-opacity="0.6" stroke-width="0.6"/>
</svg>