<svg width="317" height="304" viewBox="0 0 317 304" fill="none" xmlns="http://www.w3.org/2000/svg">
<path opacity="0.38" d="M206.456 94.841C183.152 90.0498 167.621 69.8241 171.791 49.7703C175.896 29.6803 198.106 17.2489 221.43 22.0856C244.696 26.8975 260.25 47.0214 256.13 67.157C251.992 87.1888 229.753 99.5759 206.479 94.834L206.456 94.841Z" fill="white" fill-opacity="0.9"/>
<path d="M259.496 238.222C263.437 234.183 266.869 230.063 270.014 225.644C304.275 179.235 293.013 104.641 244.393 57.157C197.336 11.0488 129.258 2.92914 85.5252 35.7984L85.4858 35.7281C2.80441 99.1947 4.31602 179.094 12.0793 221.39C15.1315 237.873 23.0773 248.963 23.0773 248.963C82.0069 302.267 155.404 293.41 199.638 274.542C219.307 268.526 242.712 255.419 259.522 238.199L259.496 238.222Z" fill="url(#paint0_radial_39_21178)" fill-opacity="0.9"/>
<path d="M137.899 182.818C133.297 185.818 127.409 184.967 124.785 180.945C122.153 176.851 123.816 171.165 128.431 168.166C133.033 165.156 138.918 166.052 141.552 170.098C144.152 174.141 142.522 179.861 137.895 182.832L137.899 182.818Z" fill="url(#paint1_radial_39_21178)" fill-opacity="0.9"/>
<path d="M137.206 180.284C141.935 175.503 140.906 169.649 140.906 169.649C133.777 166.531 128.976 171.238 128.976 171.238C126.546 173.54 126.457 177.401 128.779 179.845C131.064 182.161 134.732 182.312 137.141 180.231L137.203 180.28L137.206 180.284Z" fill="#F9C625" fill-opacity="0.6"/>
<path opacity="0.52" d="M140.109 169.41C140.109 169.41 124.195 167.323 128.481 179.111C128.46 179.109 129.273 172.325 140.106 169.412L140.109 169.41Z" fill="#C0752E" fill-opacity="0.9"/>
<path opacity="0.9" d="M202.818 179.656C198.211 182.588 192.33 181.759 189.708 177.716C187.063 173.668 188.717 167.947 193.329 164.946C197.934 161.925 203.843 162.799 206.455 166.857C209.053 170.921 207.426 176.598 202.814 179.658L202.818 179.656Z" fill="url(#paint2_radial_39_21178)" fill-opacity="0.9"/>
<path opacity="0.9" d="M202.084 177.074C206.839 172.261 205.788 166.425 205.788 166.425C198.673 163.255 193.9 168.02 193.9 168.02C191.435 170.34 191.337 174.178 193.659 176.612C195.898 178.978 199.6 179.089 202.049 176.981L202.085 177.072L202.084 177.074Z" fill="#F9C625" fill-opacity="0.6"/>
<path opacity="0.9" d="M204.964 166.22C204.964 166.22 189.077 164.069 193.356 175.936C193.356 175.936 194.176 169.064 204.96 166.213L204.964 166.22Z" fill="#C0752E" fill-opacity="0.9"/>
<path opacity="0.43" d="M144.467 93.917C139.146 95.3541 133.839 92.7731 132.52 88.1033C131.279 83.4531 134.557 78.5091 139.904 77.016C145.178 75.6225 150.515 78.2383 151.791 82.8786C153.055 87.5604 149.79 92.4802 144.473 93.9342L144.467 93.917Z" fill="url(#paint3_radial_39_21178)" fill-opacity="0.9"/>
<path opacity="0.43" d="M144.531 91.3142C150.518 88.1954 151.32 82.2793 151.32 82.2793C145.453 77.1688 139.465 80.143 139.465 80.143C136.456 81.6341 135.199 85.2866 136.665 88.3152C138.075 91.2356 141.561 92.4718 144.51 91.1744L144.52 91.3298L144.531 91.3142Z" fill="#F9C625" fill-opacity="0.9"/>
<path opacity="0.43" d="M150.593 81.7886C150.593 81.7886 136.091 74.9873 136.603 87.5393C136.601 87.5612 139.428 81.2783 150.591 81.7969L150.593 81.7886Z" fill="#C0752E" fill-opacity="0.9"/>
<path opacity="0.9" d="M136.354 231.161C131.74 234.152 125.864 233.31 123.232 229.234C120.597 225.198 122.218 219.473 126.832 216.462C131.457 213.464 137.346 214.328 139.956 218.383C142.616 222.497 140.968 228.172 136.361 231.167L136.354 231.161Z" fill="url(#paint4_radial_39_21178)" fill-opacity="0.9"/>
<path opacity="0.9" d="M135.643 228.582C140.334 223.856 139.319 217.977 139.319 217.977C132.183 214.815 127.409 219.583 127.409 219.583C125.016 221.86 124.893 225.709 127.203 228.142C129.443 230.508 133.143 230.642 135.569 228.532L135.653 228.584L135.643 228.582Z" fill="#F9C625" fill-opacity="0.9"/>
<path opacity="0.9" d="M138.521 217.75C138.521 217.75 122.55 215.636 126.869 227.448C126.869 227.448 127.708 220.622 138.515 217.751L138.521 217.75Z" fill="#C0752E" fill-opacity="0.9"/>
<path opacity="0.9" d="M85.2593 227.904C80.6046 230.865 74.7704 230.016 72.118 225.927C69.516 221.884 71.0901 216.201 75.7274 213.189C80.3601 210.204 86.2425 211.023 88.8721 215.099C91.4939 219.144 89.8618 224.886 85.2537 227.902L85.2593 227.904Z" fill="url(#paint5_radial_39_21178)" fill-opacity="0.9"/>
<path opacity="0.9" d="M84.5077 225.277C89.2696 220.501 88.2179 214.652 88.2179 214.652C81.0801 211.537 76.2847 216.278 76.2847 216.278C73.8714 218.535 73.7928 222.399 76.0908 224.848C78.3275 227.229 82.0099 227.336 84.4794 225.23L84.5177 225.299L84.5077 225.277Z" fill="#F9C625" fill-opacity="0.6"/>
<path opacity="0.9" d="M87.4331 214.405C87.4331 214.405 71.4635 212.305 75.8142 224.154C75.8123 224.176 76.5875 217.323 87.442 214.411L87.4331 214.405Z" fill="#C0752E" fill-opacity="0.9"/>
<path opacity="0.43" d="M142.53 264.438C138.568 267.002 133.482 266.304 131.199 262.758C128.986 259.271 130.378 254.292 134.315 251.75C138.338 249.146 143.406 249.886 145.707 253.388C147.93 256.912 146.591 261.795 142.523 264.437L142.53 264.438Z" fill="url(#paint6_radial_39_21178)" fill-opacity="0.9"/>
<path opacity="0.43" d="M141.965 262.224C146.039 258.06 145.153 253.042 145.153 253.042C138.971 250.334 134.873 254.403 134.873 254.403C132.77 256.398 132.691 259.743 134.664 261.8C136.605 263.842 139.794 263.965 141.896 262.128L141.974 262.245L141.965 262.224Z" fill="#F9C625" fill-opacity="0.9"/>
<path opacity="0.43" d="M144.434 252.839C144.434 252.839 130.689 251.012 134.389 261.244C134.389 261.244 135.085 255.334 144.423 252.848L144.434 252.839Z" fill="#C0752E" fill-opacity="0.9"/>
<path opacity="0.43" d="M39.2166 229.493C35.4896 231.897 30.7954 231.222 28.7112 227.949C26.6017 224.719 27.8919 220.133 31.6168 217.729C35.3045 215.355 40.0353 216.032 42.0873 219.278C44.1793 222.526 42.8717 227.036 39.1951 229.49L39.2166 229.493Z" fill="url(#paint7_radial_39_21178)" fill-opacity="0.9"/>
<path opacity="0.43" d="M38.6401 227.411C42.4582 223.616 41.5996 218.937 41.5996 218.937C35.8987 216.422 32.0589 220.192 32.0589 220.192C30.1344 222.055 30.0695 225.112 31.9145 227.07C33.7023 228.964 36.6582 229.032 38.6009 227.362L38.6191 227.408L38.6401 227.411Z" fill="#F9C625" fill-opacity="0.9"/>
<path opacity="0.43" d="M40.9365 218.762C40.9365 218.762 28.2204 217.067 31.6627 226.496C31.6408 226.494 32.2759 221.044 40.9332 218.766L40.9365 218.762Z" fill="#C0752E" fill-opacity="0.9"/>
<path opacity="0.43" d="M48.4457 173.352C44.2235 176.075 38.8982 175.28 36.5017 171.588C34.097 167.919 35.628 162.725 39.7928 159.991C43.9766 157.288 49.3396 158.019 51.7548 161.745C54.1008 165.391 52.6483 170.573 48.4374 173.336L48.4457 173.352Z" fill="url(#paint8_radial_39_21178)" fill-opacity="0.9"/>
<path opacity="0.43" d="M47.7798 171.019C52.0393 166.646 51.1226 161.326 51.1226 161.326C44.6308 158.488 40.3319 162.789 40.3319 162.789C38.0744 164.889 38.017 168.396 40.1318 170.612C42.1688 172.75 45.4892 172.873 47.7091 170.936L47.7914 171.009L47.7798 171.019Z" fill="#F9C625" fill-opacity="0.9"/>
<path opacity="0.43" d="M50.3791 161.137C50.3791 161.137 35.9252 159.239 39.8421 169.956C39.8421 169.956 40.54 163.759 50.3755 161.138L50.3791 161.137Z" fill="#C0752E" fill-opacity="0.9"/>
<path opacity="0.43" d="M193.636 243.912C189.918 247.291 184.505 247.44 181.515 244.158C178.537 240.888 179.2 235.519 182.877 232.084C186.606 228.697 191.991 228.634 194.959 231.88C197.936 235.114 197.285 240.497 193.617 243.902L193.636 243.912Z" fill="url(#paint9_radial_39_21178)" fill-opacity="0.9"/>
<path opacity="0.43" d="M192.605 241.704C196.139 236.658 194.339 231.594 194.339 231.594C187.432 229.831 183.837 234.83 183.837 234.83C182.056 237.262 182.546 240.724 184.945 242.525C187.35 244.381 190.652 243.931 192.523 241.641L192.628 241.716L192.605 241.704Z" fill="#F9C625" fill-opacity="0.9"/>
<path opacity="0.43" d="M193.55 231.527C193.55 231.527 178.926 232.022 184.521 241.964C184.543 241.966 184.275 235.688 193.556 231.517L193.55 231.527Z" fill="#C0752E" fill-opacity="0.9"/>
<path opacity="0.9" d="M90.0498 180.652C86.333 184.039 80.914 184.099 77.9734 180.899C74.9629 177.605 75.6043 172.234 79.2873 168.866C83.027 165.491 88.4392 165.352 91.3765 168.596C94.3501 171.874 93.7023 177.213 90.0323 180.64L90.0498 180.652Z" fill="url(#paint10_radial_39_21178)" fill-opacity="0.9"/>
<path opacity="0.9" d="M88.9977 178.441C92.5373 173.44 90.7331 168.302 90.7331 168.302C83.8576 166.56 80.2647 171.501 80.2647 171.501C78.4152 173.962 78.9614 177.453 81.3786 179.279C83.7526 181.109 87.0908 180.632 88.9583 178.395L88.9784 178.419L88.9977 178.441Z" fill="#F9C625" fill-opacity="0.6"/>
<path opacity="0.9" d="M90.017 168.16C90.017 168.16 75.3489 168.682 80.9698 178.693C80.9698 178.693 80.6781 172.436 90.0118 168.159L90.017 168.16Z" fill="#C0752E" fill-opacity="0.9"/>
<path opacity="0.43" d="M69.2241 122.338C65.943 125.317 61.1326 125.459 58.4802 122.576C55.8951 119.665 56.4092 114.886 59.6928 111.877C62.9748 108.887 67.8018 108.779 70.449 111.618C73.1193 114.561 72.4957 119.349 69.2156 122.345L69.2241 122.338Z" fill="url(#paint11_radial_39_21178)" fill-opacity="0.9"/>
<path opacity="0.43" d="M68.3514 120.363C71.5171 115.956 69.8999 111.393 69.8999 111.393C63.7779 109.857 60.59 114.243 60.59 114.243C58.9564 116.42 59.3739 119.542 61.5415 121.155C63.6591 122.721 66.6056 122.386 68.2869 120.334L68.3491 120.384L68.3514 120.363Z" fill="#F9C625" fill-opacity="0.9"/>
<path opacity="0.43" d="M69.223 111.308C69.223 111.308 56.2161 111.736 61.2127 120.676C61.2109 120.698 60.9315 115.082 69.2277 111.315L69.223 111.308Z" fill="#C0752E" fill-opacity="0.9"/>
<path d="M181.842 210.141C177.596 212.893 172.203 212.135 169.788 208.39C167.389 204.633 168.847 199.374 173.093 196.623C177.357 193.931 182.769 194.721 185.133 198.397C187.559 202.138 186.057 207.382 181.846 210.145L181.842 210.141Z" fill="url(#paint12_radial_39_21178)" fill-opacity="0.9"/>
<path d="M181.178 207.787C185.519 203.386 184.573 198.02 184.573 198.02C177.969 195.161 173.644 199.516 173.644 199.516C171.387 201.619 171.325 205.145 173.442 207.372C175.494 209.556 178.887 209.651 181.127 207.737L181.188 207.809L181.178 207.787Z" fill="#F9C625" fill-opacity="0.9"/>
<path opacity="0.52" d="M183.829 197.82C183.829 197.82 169.209 195.863 173.139 206.716C173.159 206.74 173.91 200.437 183.834 197.824L183.829 197.82Z" fill="#C0752E" fill-opacity="0.9"/>
<path opacity="0.43" d="M227.545 222.582C223.328 225.288 217.912 224.512 215.507 220.806C213.101 217.105 214.568 211.885 218.819 209.076C223.065 206.336 228.456 207.113 230.872 210.839C233.3 214.557 231.778 219.778 227.541 222.583L227.545 222.582Z" fill="url(#paint13_radial_39_21178)" fill-opacity="0.9"/>
<path opacity="0.43" d="M226.929 220.187C231.222 215.797 230.286 210.439 230.286 210.439C223.729 207.562 219.375 211.872 219.375 211.872C217.137 214.019 217.049 217.593 219.122 219.812C221.219 222 224.625 222.051 226.84 220.169L226.904 220.197L226.929 220.187Z" fill="#F9C625" fill-opacity="0.9"/>
<path opacity="0.43" d="M229.537 210.195C229.537 210.195 214.945 208.31 218.858 219.103C218.858 219.103 219.6 212.91 229.532 210.187L229.537 210.195Z" fill="#C0752E" fill-opacity="0.9"/>
<path d="M111.003 133.874C106.724 136.622 101.368 135.835 98.9606 132.145C96.5445 128.43 98.0489 123.168 102.25 120.411C106.515 117.696 111.908 118.462 114.323 122.19C116.712 125.839 115.232 131.086 111 133.847L111.003 133.874Z" fill="url(#paint14_radial_39_21178)" fill-opacity="0.9"/>
<path d="M110.314 131.539C114.677 127.121 113.74 121.786 113.74 121.786C107.184 118.912 102.816 123.237 102.816 123.237C100.571 125.354 100.496 128.881 102.623 131.139C104.653 133.302 108.057 133.385 110.288 131.449L110.324 131.54L110.314 131.539Z" fill="#F9C625" fill-opacity="0.6"/>
<path opacity="0.52" d="M112.989 121.552C112.989 121.552 98.3767 119.666 102.331 130.476C102.329 130.498 103.055 124.237 112.983 121.557L112.989 121.552Z" fill="#C0752E" fill-opacity="0.9"/>
<path opacity="0.43" d="M99.0862 73.4355C95.0893 76.0178 89.9811 75.3142 87.7389 71.7885C85.4632 68.2772 86.8716 63.362 90.883 60.7355C94.8464 58.1635 99.9644 58.857 102.237 62.4003C104.532 65.8646 103.142 70.8316 99.0996 73.4315L99.0862 73.4355Z" fill="url(#paint15_radial_39_21178)" fill-opacity="0.9"/>
<path opacity="0.43" d="M98.5243 71.1778C102.58 67.0678 101.677 61.9949 101.677 61.9949C95.4989 59.2823 91.33 63.372 91.33 63.372C89.2778 65.4185 89.1887 68.7374 91.1705 70.8403C93.1317 72.9047 96.3213 73.0174 98.4585 71.14L98.5225 71.1675L98.5243 71.1778Z" fill="#F9C625" fill-opacity="0.9"/>
<path opacity="0.43" d="M100.993 61.7925C100.993 61.7925 87.2029 59.9898 90.9035 70.2238C90.9035 70.2238 91.6231 64.2942 100.985 61.7878L100.993 61.7925Z" fill="#C0752E" fill-opacity="0.9"/>
<path opacity="0.31" d="M283.734 189.444C283.734 189.444 299.2 154.034 276.473 116.731C280.129 112.084 281.695 106.233 276.194 99.834C275.973 99.552 275.729 99.2423 275.472 98.9746C270.06 92.8555 264.668 89.1772 260.244 86.869C260.262 66.6987 245.193 55.8785 245.193 55.8785C235.091 54.1938 229.202 55.0759 225.876 56.3288C225.768 56.2852 225.701 56.2796 225.592 56.2359C207.794 13.3702 151.186 16.23 151.186 16.23C169.308 20.946 182.883 37.9443 198.442 51.7141C183.579 46.8273 163.458 42.6209 151.853 50.4716C151.853 50.4716 170.531 75.0431 199.033 87.8017C185.638 96.3178 161.431 116.375 163.691 148.803C163.691 148.803 194.254 143.567 220.712 110.97C220.751 111.051 220.818 111.057 220.836 111.103C215.448 127.971 207.023 166.994 236.736 186.253C236.736 186.253 250.147 163.887 250.539 137.272C260.049 156.13 267.546 177.383 283.749 189.466L283.734 189.444Z" fill="#8B3624" fill-opacity="0.9"/>
<path d="M301.578 190.944C301.578 190.944 310.215 152.867 287.455 115.528C291.129 110.941 292.703 105.12 287.24 98.6773C286.974 98.3765 286.716 98.1238 286.493 97.8439C281.061 91.6929 275.705 87.9722 271.266 85.7103C271.272 65.5497 256.202 54.7474 256.202 54.7474C246.094 52.9996 240.237 53.9102 236.877 55.1776C236.758 55.1201 236.683 55.0857 236.605 55.0792C218.817 12.2144 149.536 10.7306 149.536 10.7306C167.634 15.4405 193.907 36.7859 209.468 50.5364C194.584 45.622 174.482 41.4603 162.886 49.2966C162.886 49.2966 181.507 73.881 210.057 86.6369C196.638 95.1596 172.466 115.211 174.698 147.681C174.698 147.681 205.276 142.427 231.735 109.818C231.776 109.841 231.798 109.867 231.859 109.939C226.483 126.807 218.064 165.873 247.784 185.058C247.784 185.058 261.164 162.766 261.564 136.065C271.12 154.905 285.441 178.854 301.622 190.935L301.578 190.944Z" fill="url(#paint16_linear_39_21178)" fill-opacity="0.9"/>
<path opacity="0.25" d="M245.524 68.9487C233.033 61.2415 217.983 51.7757 212.27 57.6027C204.488 65.5762 212.533 82.5556 228.818 98.458C234.561 104.111 242.099 105.826 247.996 108.825C251.878 89.2142 222.537 70.9211 245.534 68.9644L245.524 68.9487Z" fill="url(#paint17_linear_39_21178)" fill-opacity="0.9"/>
<path opacity="0.22" d="M206.464 91.3268C206.464 91.3268 176.531 108.861 177.506 145.018C177.506 145.018 190.384 140.935 197.162 135.588C197.184 135.59 183.128 121.898 206.476 91.3241L206.464 91.3268Z" fill="url(#paint18_linear_39_21178)" fill-opacity="0.9"/>
<path opacity="0.22" d="M233.478 114.685C233.478 114.685 217.163 157.114 246.744 182.202C246.744 182.202 251.744 172.332 253.659 168.045C253.659 168.045 230.213 152.457 233.477 114.691L233.478 114.685Z" fill="url(#paint19_linear_39_21178)" fill-opacity="0.9"/>
<path opacity="0.22" d="M175.844 46.9765C175.844 46.9765 166.819 48.4604 165.447 49.8605C165.447 49.8605 173.876 65.0511 205.805 82.824C205.805 82.824 165.736 51.2066 175.84 46.9723L175.844 46.9765Z" fill="url(#paint20_linear_39_21178)" fill-opacity="0.9"/>
<path opacity="0.22" d="M263.629 135.433C263.629 135.433 274.322 161.583 299.832 187.074C299.832 187.074 302.208 177.433 300.712 170.609C300.712 170.609 290.361 175.685 263.641 135.42L263.629 135.433Z" fill="url(#paint21_linear_39_21178)" fill-opacity="0.9"/>
<path opacity="0.63" d="M258.467 89.046C258.467 89.046 269.072 116.139 249.185 110.339C229.336 104.494 218.905 81.0522 217.944 73.3434C217.002 65.6619 224.721 51.794 239.542 67.0322L258.469 89.0473L258.467 89.046Z" fill="#488D41" fill-opacity="0.9"/>
<path d="M258.467 89.046C266.284 75.4956 291.935 56.4564 291.935 56.4564C292.202 43.1734 278.452 42.4491 278.452 42.4491C263.555 58.7264 248.76 64.7178 239.543 67.0329C233.352 63.1171 227.463 62.0196 224.188 64.7857C218.856 69.2935 222.18 82.0213 231.652 93.3103C241.084 104.568 253.077 110.062 258.372 105.627C261.848 102.67 261.613 96.2619 258.463 89.0344L258.467 89.046Z" fill="url(#paint22_linear_39_21178)" fill-opacity="0.9"/>
<defs>
<radialGradient id="paint0_radial_39_21178" cx="0" cy="0" r="1" gradientUnits="userSpaceOnUse" gradientTransform="translate(86.531 195.088) rotate(121.55) scale(242.456 242.456)">
<stop offset="0.2191" stop-color="#EA2D2E"/>
<stop offset="0.82023" stop-color="#B3282E"/>
</radialGradient>
<radialGradient id="paint1_radial_39_21178" cx="0" cy="0" r="1" gradientUnits="userSpaceOnUse" gradientTransform="translate(126.685 183.035) rotate(57.0673) scale(15.0301 17.1485)">
<stop offset="0.2191" stop-color="#932F25"/>
<stop offset="0.40256" stop-color="#993026"/>
<stop offset="0.65485" stop-color="#AB3129"/>
<stop offset="0.9382" stop-color="#C7342D"/>
</radialGradient>
<radialGradient id="paint2_radial_39_21178" cx="0" cy="0" r="1" gradientUnits="userSpaceOnUse" gradientTransform="translate(191.608 179.829) rotate(57.0673) scale(15.082 17.2077)">
<stop offset="0.2191" stop-color="#932F25"/>
<stop offset="0.40256" stop-color="#993026"/>
<stop offset="0.65485" stop-color="#AB3129"/>
<stop offset="0.9382" stop-color="#C7342D"/>
</radialGradient>
<radialGradient id="paint3_radial_39_21178" cx="0" cy="0" r="1" gradientUnits="userSpaceOnUse" gradientTransform="translate(133.703 90.6812) rotate(74.7771) scale(15.083 17.2083)">
<stop offset="0.2191" stop-color="#932F25"/>
<stop offset="0.40256" stop-color="#993026"/>
<stop offset="0.65485" stop-color="#AB3129"/>
<stop offset="0.9382" stop-color="#C7342D"/>
</radialGradient>
<radialGradient id="paint4_radial_39_21178" cx="0" cy="0" r="1" gradientUnits="userSpaceOnUse" gradientTransform="translate(125.136 231.348) rotate(57.0674) scale(15.0923 17.2194)">
<stop offset="0.2191" stop-color="#932F25"/>
<stop offset="0.40256" stop-color="#993026"/>
<stop offset="0.65485" stop-color="#AB3129"/>
<stop offset="0.9382" stop-color="#C7342D"/>
</radialGradient>
<radialGradient id="paint5_radial_39_21178" cx="0" cy="0" r="1" gradientUnits="userSpaceOnUse" gradientTransform="translate(74.0579 228.064) rotate(57.0674) scale(15.1078 17.2372)">
<stop offset="0.2191" stop-color="#932F25"/>
<stop offset="0.40256" stop-color="#993026"/>
<stop offset="0.65485" stop-color="#AB3129"/>
<stop offset="0.9382" stop-color="#C7342D"/>
</radialGradient>
<radialGradient id="paint6_radial_39_21178" cx="0" cy="0" r="1" gradientUnits="userSpaceOnUse" gradientTransform="translate(132.871 264.586) rotate(57.0673) scale(13.0269 14.8629)">
<stop offset="0.2191" stop-color="#932F25"/>
<stop offset="0.40256" stop-color="#993026"/>
<stop offset="0.65485" stop-color="#AB3129"/>
<stop offset="0.9382" stop-color="#C7342D"/>
</radialGradient>
<radialGradient id="paint7_radial_39_21178" cx="0" cy="0" r="1" gradientUnits="userSpaceOnUse" gradientTransform="translate(30.2516 229.656) rotate(57.0674) scale(12.0642 13.7646)">
<stop offset="0.2191" stop-color="#932F25"/>
<stop offset="0.40256" stop-color="#993026"/>
<stop offset="0.65485" stop-color="#AB3129"/>
<stop offset="0.9382" stop-color="#C7342D"/>
</radialGradient>
<radialGradient id="paint8_radial_39_21178" cx="0" cy="0" r="1" gradientUnits="userSpaceOnUse" gradientTransform="translate(38.2404 173.517) rotate(57.0673) scale(13.7137 15.6465)">
<stop offset="0.2191" stop-color="#932F25"/>
<stop offset="0.40256" stop-color="#993026"/>
<stop offset="0.65485" stop-color="#AB3129"/>
<stop offset="0.9382" stop-color="#C7342D"/>
</radialGradient>
<radialGradient id="paint9_radial_39_21178" cx="0" cy="0" r="1" gradientUnits="userSpaceOnUse" gradientTransform="translate(183.567 245.761) rotate(47.6178) scale(13.7757 15.7165)">
<stop offset="0.2191" stop-color="#932F25"/>
<stop offset="0.40256" stop-color="#993026"/>
<stop offset="0.65485" stop-color="#AB3129"/>
<stop offset="0.9382" stop-color="#C7342D"/>
</radialGradient>
<radialGradient id="paint10_radial_39_21178" cx="0" cy="0" r="1" gradientUnits="userSpaceOnUse" gradientTransform="translate(80.0029 182.479) rotate(47.6178) scale(13.7551 15.693)">
<stop offset="0.2191" stop-color="#932F25"/>
<stop offset="0.40256" stop-color="#993026"/>
<stop offset="0.65485" stop-color="#AB3129"/>
<stop offset="0.9382" stop-color="#C7342D"/>
</radialGradient>
<radialGradient id="paint11_radial_39_21178" cx="0" cy="0" r="1" gradientUnits="userSpaceOnUse" gradientTransform="translate(60.2827 123.997) rotate(47.6178) scale(12.1944 13.9124)">
<stop offset="0.2191" stop-color="#932F25"/>
<stop offset="0.40256" stop-color="#993026"/>
<stop offset="0.65485" stop-color="#AB3129"/>
<stop offset="0.9382" stop-color="#C7342D"/>
</radialGradient>
<radialGradient id="paint12_radial_39_21178" cx="0" cy="0" r="1" gradientUnits="userSpaceOnUse" gradientTransform="translate(171.535 210.303) rotate(57.0673) scale(13.8748 15.8304)">
<stop offset="0.2191" stop-color="#932F25"/>
<stop offset="0.40256" stop-color="#993026"/>
<stop offset="0.65485" stop-color="#AB3129"/>
<stop offset="0.9382" stop-color="#C7342D"/>
</radialGradient>
<radialGradient id="paint13_radial_39_21178" cx="0" cy="0" r="1" gradientUnits="userSpaceOnUse" gradientTransform="translate(217.259 222.738) rotate(57.0673) scale(13.8538 15.8064)">
<stop offset="0.2191" stop-color="#932F25"/>
<stop offset="0.40256" stop-color="#993026"/>
<stop offset="0.65485" stop-color="#AB3129"/>
<stop offset="0.9382" stop-color="#C7342D"/>
</radialGradient>
<radialGradient id="paint14_radial_39_21178" cx="0" cy="0" r="1" gradientUnits="userSpaceOnUse" gradientTransform="translate(100.701 134.058) rotate(57.0673) scale(13.8383 15.7887)">
<stop offset="0.2191" stop-color="#932F25"/>
<stop offset="0.40256" stop-color="#993026"/>
<stop offset="0.65485" stop-color="#AB3129"/>
<stop offset="0.9382" stop-color="#C7342D"/>
</radialGradient>
<radialGradient id="paint15_radial_39_21178" cx="0" cy="0" r="1" gradientUnits="userSpaceOnUse" gradientTransform="translate(89.3978 73.6199) rotate(57.0673) scale(13.0269 14.8629)">
<stop offset="0.2191" stop-color="#932F25"/>
<stop offset="0.40256" stop-color="#993026"/>
<stop offset="0.65485" stop-color="#AB3129"/>
<stop offset="0.9382" stop-color="#C7342D"/>
</radialGradient>
<linearGradient id="paint16_linear_39_21178" x1="263.716" y1="67.0422" x2="136.367" y2="179.825" gradientUnits="userSpaceOnUse">
<stop stop-color="#739A3F"/>
<stop offset="0.13499" stop-color="#82A43D"/>
<stop offset="0.50982" stop-color="#A8BB39"/>
<stop offset="0.81138" stop-color="#BFCA36"/>
<stop offset="1" stop-color="#C8CF35"/>
</linearGradient>
<linearGradient id="paint17_linear_39_21178" x1="243.762" y1="61.3287" x2="223.587" y2="93.3592" gradientUnits="userSpaceOnUse">
<stop stop-color="white"/>
<stop offset="0.12858" stop-color="#FAFBEC"/>
<stop offset="0.39018" stop-color="#ECF2BA"/>
<stop offset="0.75777" stop-color="#D6E36A"/>
<stop offset="1" stop-color="#C7D932"/>
</linearGradient>
<linearGradient id="paint18_linear_39_21178" x1="162.211" y1="177.217" x2="226.695" y2="60.4117" gradientUnits="userSpaceOnUse">
<stop stop-color="white"/>
<stop offset="0.26405" stop-color="white"/>
<stop offset="0.41398" stop-color="#DAEECE"/>
<stop offset="0.61528" stop-color="#ACD993"/>
<stop offset="0.78721" stop-color="#8BCA68"/>
<stop offset="0.9209" stop-color="#77C04E"/>
<stop offset="1" stop-color="#6FBD44"/>
</linearGradient>
<linearGradient id="paint19_linear_39_21178" x1="212.524" y1="198.419" x2="268.243" y2="97.5055" gradientUnits="userSpaceOnUse">
<stop stop-color="white"/>
<stop offset="0.26405" stop-color="white"/>
<stop offset="0.41398" stop-color="#DAEECE"/>
<stop offset="0.61528" stop-color="#ACD993"/>
<stop offset="0.78721" stop-color="#8BCA68"/>
<stop offset="0.9209" stop-color="#77C04E"/>
<stop offset="1" stop-color="#6FBD44"/>
</linearGradient>
<linearGradient id="paint20_linear_39_21178" x1="178.6" y1="79.0602" x2="196.465" y2="46.6815" gradientUnits="userSpaceOnUse">
<stop stop-color="white"/>
<stop offset="0.26405" stop-color="white"/>
<stop offset="0.41398" stop-color="#DAEECE"/>
<stop offset="0.61528" stop-color="#ACD993"/>
<stop offset="0.78721" stop-color="#8BCA68"/>
<stop offset="0.9209" stop-color="#77C04E"/>
<stop offset="1" stop-color="#6FBD44"/>
</linearGradient>
<linearGradient id="paint21_linear_39_21178" x1="267.216" y1="187.548" x2="296.519" y2="134.466" gradientUnits="userSpaceOnUse">
<stop stop-color="white"/>
<stop offset="0.26405" stop-color="white"/>
<stop offset="0.41398" stop-color="#DAEECE"/>
<stop offset="0.61528" stop-color="#ACD993"/>
<stop offset="0.78721" stop-color="#8BCA68"/>
<stop offset="0.9209" stop-color="#77C04E"/>
<stop offset="1" stop-color="#6FBD44"/>
</linearGradient>
<linearGradient id="paint22_linear_39_21178" x1="237.12" y1="90.2964" x2="276.648" y2="42.07" gradientUnits="userSpaceOnUse">
<stop stop-color="#71A642"/>
<stop offset="0.36591" stop-color="#7CAF42"/>
<stop offset="1" stop-color="#99C841"/>
</linearGradient>
</defs>
</svg>
