<?xml version="1.0" encoding="UTF-8" standalone="no"?>
<svg xmlns="http://www.w3.org/2000/svg" version="1.2" baseProfile="tiny" viewBox="0.00 0.00 572.00 573.00">
<g stroke-width="2.00" fill="none" stroke-linecap="butt">
<path stroke="#cedea717" vector-effect="non-scaling-stroke" d="
  M 252.23 139.93
  Q 253.47 142.39 255.50 142.86
  Q 258.38 143.54 261.26 144.49"
/>
<path stroke="#a0b8a117" vector-effect="non-scaling-stroke" d="
  M 261.26 144.49
  Q 255.92 149.24 255.32 156.26
  Q 254.60 164.76 256.24 171.69"
/>
<path stroke="#cedea717" vector-effect="non-scaling-stroke" d="
  M 256.24 171.69
  C 257.36 173.30 257.95 174.36 260.12 173.67
  C 268.85 170.91 284.86 161.15 277.27 149.90"
/>
<path stroke="#a0b8a117" vector-effect="non-scaling-stroke" d="
  M 277.27 149.90
  Q 274.81 144.70 268.13 142.67"
/>
<path stroke="#cedea717" vector-effect="non-scaling-stroke" d="
  M 268.13 142.67
  Q 267.65 139.98 272.07 141.73"
/>
<path stroke="#a0b8a117" vector-effect="non-scaling-stroke" d="
  M 272.07 141.73
  Q 278.80 146.70 286.17 150.11"
/>
<path stroke="#cedea717" vector-effect="non-scaling-stroke" d="
  M 286.17 150.11
  Q 286.14 151.14 287.51 151.75
  Q 291.54 153.55 295.53 155.43
  C 306.74 160.71 318.69 164.29 331.00 166.99
  Q 363.45 174.10 396.23 172.21"
/>
<path stroke="#a0b8a117" vector-effect="non-scaling-stroke" d="
  M 396.23 172.21
  Q 398.02 190.14 402.84 206.79
  A 0.68 0.66 -32.6 0 1 402.69 207.42
  C 392.49 218.53 368.76 230.41 358.20 212.89"
/>
<path stroke="#cedea717" vector-effect="non-scaling-stroke" d="
  M 358.20 212.89
  Q 358.05 212.69 358.15 212.45
  Q 358.34 212.01 358.82 212.08
  Q 372.98 214.27 381.70 202.72
  Q 387.89 194.53 383.13 186.76"
/>
<path stroke="#a0b8a117" vector-effect="non-scaling-stroke" d="
  M 383.13 186.76
  Q 378.72 178.42 371.02 177.49
  C 358.44 175.97 348.42 184.28 344.60 195.82
  Q 340.59 207.94 346.58 219.05
  Q 346.82 219.50 346.38 219.76
  C 336.30 225.66 324.40 230.12 314.16 221.62
  Q 313.62 221.17 313.11 220.28"
/>
<path stroke="#cedea717" vector-effect="non-scaling-stroke" d="
  M 313.11 220.28
  C 324.03 219.51 333.62 214.71 338.83 204.80
  Q 342.71 197.42 338.41 190.23"
/>
<path stroke="#a0b8a117" vector-effect="non-scaling-stroke" d="
  M 338.41 190.23
  C 333.14 177.53 317.07 176.87 308.37 185.88
  Q 301.75 192.74 299.06 201.51
  A 1.07 1.07 0.0 0 1 297.52 202.13
  Q 291.38 198.70 286.54 193.99
  C 281.62 189.22 278.17 196.85 277.24 200.24
  C 274.66 209.60 275.03 220.30 271.41 229.19
  C 270.39 231.71 267.58 235.08 264.55 234.83
  C 255.69 234.08 258.80 200.55 249.86 196.22
  Q 249.38 195.99 248.90 196.20
  C 245.54 197.68 243.80 204.18 242.68 208.04
  C 239.51 218.95 238.06 229.92 230.01 238.50
  A 1.63 1.63 0.0 0 1 227.45 238.25
  C 222.02 229.65 220.79 218.33 219.11 208.52
  C 217.92 201.60 214.01 193.53 205.36 195.27
  C 200.12 196.32 195.95 200.10 193.31 204.77
  Q 191.40 208.15 194.44 210.48"
/>
<path stroke="#cedea717" vector-effect="non-scaling-stroke" d="
  M 194.44 210.48
  Q 197.88 213.51 205.05 210.23"
/>
<path stroke="#a0b8a117" vector-effect="non-scaling-stroke" d="
  M 205.05 210.23
  Q 207.07 218.44 209.08 226.24
  C 211.50 235.64 215.45 245.51 223.98 251.04"
/>
<path stroke="#cedea717" vector-effect="non-scaling-stroke" d="
  M 223.98 251.04
  C 227.74 253.72 231.79 254.68 236.12 252.43
  Q 241.64 249.56 245.21 244.23
  Q 247.35 241.02 249.71 237.93"
/>
<path stroke="#a0b8a117" vector-effect="non-scaling-stroke" d="
  M 249.71 237.93
  L 256.19 245.17"
/>
<path stroke="#cedea717" vector-effect="non-scaling-stroke" d="
  M 256.19 245.33
  Q 267.91 253.66 278.24 244.60
  C 286.25 237.57 288.59 226.55 290.14 216.00
  Q 290.45 213.91 288.95 211.04"
/>
<path stroke="#a0b8a117" vector-effect="non-scaling-stroke" d="
  M 288.95 211.04
  Q 292.31 213.62 295.35 215.42
  C 297.90 216.93 297.74 218.17 298.66 220.77
  Q 302.10 230.49 311.47 236.49"
/>
<path stroke="#cedea717" vector-effect="non-scaling-stroke" d="
  M 311.47 236.49
  C 324.58 247.58 343.30 241.34 352.13 228.35
  A 0.76 0.76 0.0 0 1 353.41 228.40
  C 354.37 230.10 356.00 230.77 357.42 231.70
  C 371.73 241.04 389.48 235.89 402.64 227.13
  Q 406.06 224.85 409.14 221.65"
/>
<path stroke="#a0b8a117" vector-effect="non-scaling-stroke" d="
  M 409.14 221.65
  Q 413.37 228.73 417.88 233.37
  Q 420.94 236.51 424.81 238.32"
/>
<path stroke="#cedea717" vector-effect="non-scaling-stroke" d="
  M 424.81 238.32
  Q 430.52 242.11 437.20 242.48
  C 445.25 242.92 455.38 241.02 458.17 231.99
  Q 458.77 230.04 456.94 228.97"
/>
<path stroke="#a0b8a117" vector-effect="non-scaling-stroke" d="
  M 456.94 228.97
  Q 456.98 228.04 456.57 227.33
  A 1.06 1.05 -35.6 0 0 454.96 227.07
  C 447.96 233.22 438.49 232.77 430.62 228.58
  C 424.25 225.18 420.70 217.15 418.42 210.64"
/>
<path stroke="#cedea717" vector-effect="non-scaling-stroke" d="
  M 418.42 210.64
  C 421.96 199.60 423.41 190.61 425.28 180.70
  C 426.07 176.51 426.10 172.43 426.51 168.24
  A 2.27 2.25 84.4 0 1 428.09 166.30
  C 436.21 163.78 444.47 159.88 450.23 153.23
  Q 452.39 150.73 449.80 149.05"
/>
<path stroke="#a0b8a117" vector-effect="non-scaling-stroke" d="
  M 449.80 149.05
  Q 449.95 147.58 448.74 147.51
  Q 447.69 147.44 446.66 147.74
  C 440.08 149.64 433.64 151.48 426.87 152.63
  A 0.50 0.49 4.2 0 1 426.31 151.99
  Q 426.64 151.00 426.30 150.61"
/>
<path stroke="#cedea717" vector-effect="non-scaling-stroke" d="
  M 426.30 150.61
  Q 426.99 150.13 427.04 148.75
  Q 427.32 141.73 425.71 135.56"
/>
<path stroke="#a0b8a117" vector-effect="non-scaling-stroke" d="
  M 425.71 135.56
  C 424.99 128.49 421.40 118.76 414.87 115.21
  Q 411.45 113.35 408.00 114.01
  C 395.14 116.49 395.18 147.08 395.54 156.42
  A 0.39 0.38 86.9 0 1 395.19 156.82
  Q 352.70 160.17 311.29 150.08
  C 298.44 146.95 284.86 142.38 273.51 135.50"
/>
<path stroke="#cedea717" vector-effect="non-scaling-stroke" d="
  M 273.51 135.50
  Q 275.24 128.80 272.26 123.66"
/>
<path stroke="#a0b8a117" vector-effect="non-scaling-stroke" d="
  M 272.26 123.66
  C 266.40 111.84 253.13 106.89 240.87 105.00
  Q 240.38 104.93 240.35 105.43
  C 239.74 117.69 241.90 132.04 252.23 139.93"
/>
<path stroke="#6f974817" vector-effect="non-scaling-stroke" d="
  M 272.26 123.66
  Q 272.91 128.65 271.88 132.93
  Q 271.62 134.03 271.97 134.53
  Q 272.42 135.17 273.51 135.50"
/>
<path stroke="#6f974817" vector-effect="non-scaling-stroke" d="
  M 425.71 135.56
  L 426.30 150.61"
/>
<path stroke="#6f974817" vector-effect="non-scaling-stroke" d="
  M 449.80 149.05
  C 443.90 156.82 434.62 161.10 425.47 164.28
  Q 424.98 164.45 424.93 164.97
  C 423.50 179.12 422.06 191.19 417.40 206.22
  Q 416.77 208.28 418.42 210.64"
/>
<path stroke="#6f974817" vector-effect="non-scaling-stroke" d="
  M 456.94 228.97
  C 451.91 241.85 436.21 241.73 424.81 238.32"
/>
<path stroke="#6f974817" vector-effect="non-scaling-stroke" d="
  M 409.14 221.65
  Q 408.85 220.65 408.04 219.85
  Q 407.63 219.44 407.18 219.81
  C 398.64 226.99 388.60 232.12 377.51 233.86
  Q 362.14 236.26 351.87 225.33
  A 0.90 0.89 -49.4 0 0 350.48 225.44
  C 341.22 239.13 326.87 242.49 311.47 236.49"
/>
<path stroke="#6f974817" vector-effect="non-scaling-stroke" d="
  M 288.95 211.04
  Q 289.84 211.31 288.92 210.82
  Q 288.75 210.73 288.73 210.92
  C 287.10 223.67 282.79 245.86 265.62 246.68
  Q 261.02 246.90 256.19 245.17"
/>
<path stroke="#6f974817" vector-effect="non-scaling-stroke" d="
  M 249.71 237.93
  Q 249.73 237.11 248.24 235.52
  A 0.48 0.48 0.0 0 0 247.49 235.59
  C 244.33 240.59 241.00 245.32 236.12 248.85
  C 231.98 251.85 228.75 251.37 223.98 251.04"
/>
<path stroke="#6f974817" vector-effect="non-scaling-stroke" d="
  M 205.05 210.23
  Q 204.79 209.26 204.37 208.82
  Q 203.99 208.41 203.03 208.61
  Q 198.79 209.49 194.44 210.48"
/>
<path stroke="#6f974817" vector-effect="non-scaling-stroke" d="
  M 338.41 190.23
  C 340.41 207.37 327.27 214.88 312.49 217.96
  A 0.66 0.66 0.0 0 0 311.98 218.77
  Q 312.28 219.90 313.11 220.28"
/>
<path stroke="#6f974817" vector-effect="non-scaling-stroke" d="
  M 383.13 186.76
  Q 382.79 188.09 383.28 191.00
  C 383.86 194.40 382.11 197.07 379.98 200.11
  Q 372.27 211.09 358.04 209.89
  A 0.88 0.88 0.0 0 0 357.21 211.22
  L 358.20 212.89"
/>
<path stroke="#6f974817" vector-effect="non-scaling-stroke" d="
  M 396.23 172.21
  Q 395.89 171.83 395.90 171.12
  Q 395.91 169.91 394.69 169.96
  C 369.00 171.08 345.02 168.35 320.50 162.66
  C 311.81 160.64 305.27 157.70 297.69 154.94
  Q 294.97 153.94 291.92 152.56
  Q 289.09 151.28 286.17 150.11"
/>
<path stroke="#6f974817" vector-effect="non-scaling-stroke" d="
  M 272.07 141.73
  Q 270.56 139.64 268.46 138.45
  A 0.83 0.82 40.7 0 0 267.55 138.51
  Q 260.85 143.78 252.23 139.93"
/>
<path stroke="#6f974817" vector-effect="non-scaling-stroke" d="
  M 268.13 142.67
  Q 264.21 142.52 261.26 144.49"
/>
<path stroke="#6f974817" vector-effect="non-scaling-stroke" d="
  M 277.27 149.90
  C 277.64 157.31 275.17 161.25 269.26 165.55
  Q 264.34 169.13 256.24 171.69"
/>
<path stroke="#cedea717" vector-effect="non-scaling-stroke" d="
  M 281.14 136.57
  C 287.49 142.00 294.32 137.75 294.93 130.25
  Q 295.32 125.56 293.52 121.24"
/>
<path stroke="#a0b8a117" vector-effect="non-scaling-stroke" d="
  M 293.52 121.24
  L 290.45 113.67
  A 0.97 0.96 63.2 0 0 289.06 113.21
  C 281.85 117.55 270.14 128.44 281.14 136.57"
/>
<path stroke="#6f974817" vector-effect="non-scaling-stroke" d="
  M 293.52 121.24
  Q 293.36 124.63 293.08 127.88
  C 292.68 132.48 289.15 137.37 284.00 136.44
  Q 281.77 136.04 281.14 136.57"
/>
<path stroke="#cedea717" vector-effect="non-scaling-stroke" d="
  M 127.08 267.69
  Q 134.41 271.08 142.83 271.41
  Q 150.97 271.72 158.64 270.37
  C 180.76 266.50 197.15 245.04 191.54 222.48"
/>
<path stroke="#a0b8a117" vector-effect="non-scaling-stroke" d="
  M 191.54 222.48
  C 185.44 196.01 158.21 190.79 136.46 184.08
  C 130.16 182.14 122.07 179.14 119.07 172.69"
/>
<path stroke="#cedea717" vector-effect="non-scaling-stroke" d="
  M 119.07 172.69
  C 117.39 150.92 142.93 146.05 159.42 148.49"
/>
<path stroke="#a0b8a117" vector-effect="non-scaling-stroke" d="
  M 159.42 148.49
  Q 163.97 149.34 167.78 151.93
  C 175.61 157.27 173.88 165.41 172.73 173.32
  A 0.86 0.84 22.7 0 0 173.08 174.14
  Q 173.99 174.80 175.29 174.85"
/>
<path stroke="#cedea717" vector-effect="non-scaling-stroke" d="
  M 175.29 174.85
  Q 175.54 176.01 176.23 176.41
  Q 176.76 176.72 177.29 176.42
  C 183.63 172.82 186.43 163.67 184.77 156.94"
/>
<path stroke="#a0b8a117" vector-effect="non-scaling-stroke" d="
  M 184.77 156.94
  Q 183.78 148.06 177.09 141.65
  C 160.23 125.51 129.80 127.54 113.20 142.35
  C 101.68 152.62 98.20 172.35 109.05 184.47
  C 124.19 201.38 147.91 199.54 166.18 210.32
  C 176.51 216.41 179.45 227.96 173.84 238.45
  Q 166.16 252.82 147.99 253.56
  C 132.06 254.22 118.95 249.78 110.99 235.27
  C 108.15 230.10 105.78 223.61 101.76 219.28
  A 1.57 1.56 39.6 0 0 99.29 219.51
  Q 98.47 220.80 98.35 222.66
  Q 97.07 241.87 109.76 255.99
  Q 116.89 263.93 127.08 267.69"
/>
<path stroke="#6f974817" vector-effect="non-scaling-stroke" d="
  M 184.77 156.94
  Q 183.74 166.50 177.80 172.97"
/>
<path stroke="#a0b8a117" vector-effect="non-scaling-stroke" d="
  M 177.80 172.97
  L 176.74 174.16"
/>
<path stroke="#6f974817" vector-effect="non-scaling-stroke" d="
  M 176.74 174.16
  Q 175.79 174.96 175.29 174.85"
/>
<path stroke="#6f974817" vector-effect="non-scaling-stroke" d="
  M 159.42 148.49
  Q 155.73 146.41 151.25 146.17
  C 140.12 145.56 124.12 148.30 118.70 159.71
  Q 115.68 166.07 119.07 172.69"
/>
<path stroke="#6f974817" vector-effect="non-scaling-stroke" d="
  M 191.54 222.48
  C 192.59 246.13 176.28 266.23 153.00 268.79
  Q 141.07 270.10 127.08 267.69"
/>
<path stroke="#cedea717" vector-effect="non-scaling-stroke" d="
  M 176.74 174.16
  Q 177.31 174.86 178.24 173.80
  A 0.45 0.44 33.0 0 0 178.09 173.10
  L 177.80 172.97"
/>
<path stroke="#cedea717" vector-effect="non-scaling-stroke" d="
  M 230.92 362.70
  Q 248.77 373.23 260.31 356.54
  Q 260.61 356.11 260.62 355.58
  Q 260.64 353.97 261.30 353.63"
/>
<path stroke="#a0b8a117" vector-effect="non-scaling-stroke" d="
  M 261.30 353.63
  L 264.33 356.10"
/>
<path stroke="#cedea717" vector-effect="non-scaling-stroke" d="
  M 264.33 356.10
  Q 272.31 361.57 281.27 359.29
  C 296.05 355.54 296.40 336.26 294.29 322.53"
/>
<path stroke="#a0b8a117" vector-effect="non-scaling-stroke" d="
  M 294.29 322.53
  L 290.91 307.33
  Q 290.77 306.71 291.33 307.02
  C 295.08 309.13 301.10 311.66 305.47 310.60
  Q 306.02 310.47 306.00 311.03
  C 305.52 323.68 303.19 335.81 314.13 345.74"
/>
<path stroke="#cedea717" vector-effect="non-scaling-stroke" d="
  M 314.13 345.74
  Q 330.16 354.60 343.73 340.46
  Q 345.29 338.83 346.58 337.57
  A 1.41 1.41 0.0 0 1 348.42 337.46
  C 357.74 344.55 371.78 343.32 379.50 334.00
  Q 379.83 333.59 380.32 333.79
  L 380.77 333.98"
/>
<path stroke="#a0b8a117" vector-effect="non-scaling-stroke" d="
  M 380.77 333.98
  C 381.47 338.69 382.07 342.57 385.22 346.46"
/>
<path stroke="#cedea717" vector-effect="non-scaling-stroke" d="
  M 385.22 346.46
  Q 385.68 347.52 386.70 348.33
  A 1.16 1.16 0.0 0 0 387.56 348.57
  C 392.19 347.97 394.28 337.44 394.69 333.49
  Q 395.31 327.51 395.03 321.50
  Q 394.90 318.69 395.84 317.61
  C 400.87 311.80 405.74 302.31 414.55 301.28"
/>
<path stroke="#a0b8a117" vector-effect="non-scaling-stroke" d="
  M 414.55 301.28
  Q 415.70 303.30 415.16 306.25
  Q 413.64 314.51 412.13 322.74
  Q 410.66 330.83 415.93 336.02"
/>
<path stroke="#cedea717" vector-effect="non-scaling-stroke" d="
  M 415.93 336.02
  C 424.27 346.52 445.99 331.12 448.13 321.77
  Q 448.24 321.28 447.90 320.91
  L 446.85 319.79"
/>
<path stroke="#a0b8a117" vector-effect="non-scaling-stroke" d="
  M 446.85 319.79
  Q 447.26 319.17 447.04 318.70
  A 1.07 1.07 0.0 0 0 445.37 318.34
  Q 436.65 325.89 426.02 328.76
  Q 424.22 329.25 422.46 328.71"
/>
<path stroke="#cedea717" vector-effect="non-scaling-stroke" d="
  M 422.46 328.71
  C 426.02 319.40 431.01 307.33 427.08 297.72"
/>
<path stroke="#a0b8a117" vector-effect="non-scaling-stroke" d="
  M 427.08 297.72
  C 422.82 285.93 409.94 283.15 400.19 290.68
  Q 397.28 292.93 396.03 293.89
  Q 395.40 294.38 395.65 293.62
  C 396.13 292.15 396.65 291.08 396.81 289.58
  Q 398.01 277.88 396.11 266.36
  C 394.95 259.31 390.59 246.84 382.72 245.09
  Q 379.54 244.39 379.43 247.49
  C 379.21 253.88 381.32 260.65 382.65 266.86
  C 385.41 279.69 384.35 289.67 383.08 304.01
  C 382.54 310.16 373.57 323.81 368.30 326.33
  Q 360.63 329.99 353.26 324.28"
/>
<path stroke="#cedea717" vector-effect="non-scaling-stroke" d="
  M 353.26 324.28
  Q 358.79 314.54 360.24 303.62
  A 1.70 1.69 2.2 0 1 361.84 302.15
  C 367.81 301.88 377.92 299.16 380.77 293.04
  Q 381.70 291.06 380.47 289.46"
/>
<path stroke="#a0b8a117" vector-effect="non-scaling-stroke" d="
  M 380.47 289.46
  Q 379.99 286.18 377.01 285.99
  Q 374.05 285.79 363.08 286.60"
/>
<path stroke="#cedea717" vector-effect="non-scaling-stroke" d="
  M 363.08 286.60
  C 365.33 279.03 364.16 268.30 363.03 260.56"
/>
<path stroke="#a0b8a117" vector-effect="non-scaling-stroke" d="
  M 363.03 260.56
  C 362.19 252.10 357.14 236.93 346.23 240.35
  C 332.91 244.53 330.56 276.12 330.75 287.26
  Q 330.77 288.10 329.93 288.06
  Q 322.63 287.76 316.00 287.33
  Q 314.39 287.22 313.06 287.81
  A 0.58 0.58 0.0 0 0 312.84 288.70
  C 316.43 293.29 323.65 296.74 329.42 297.55
  A 2.10 2.10 0.0 0 1 331.23 299.48
  Q 332.15 312.13 337.41 323.65
  Q 337.65 324.16 337.40 324.66
  C 334.59 330.44 327.76 335.18 321.61 334.04
  A 2.11 2.11 0.0 0 1 319.97 332.51
  C 318.42 326.54 319.14 320.18 319.42 314.07
  Q 319.44 313.72 319.52 314.05
  Q 319.54 314.15 319.52 314.25
  Q 319.49 314.44 319.50 314.58
  Q 319.52 315.41 319.59 314.57
  C 320.13 307.71 320.71 297.92 311.25 298.21
  Q 295.38 298.69 283.56 295.31
  Q 280.70 294.49 278.40 292.87
  A 1.34 1.34 0.0 0 0 276.30 293.79
  C 276.09 295.37 276.34 296.97 277.05 298.55
  C 278.68 302.14 280.27 304.93 280.64 309.00
  Q 281.68 320.48 281.38 332.00
  C 281.26 336.76 280.63 345.39 274.00 345.13
  C 272.18 345.06 269.30 344.61 268.43 343.03
  C 266.50 339.55 266.59 334.87 267.06 330.30
  Q 268.14 319.70 268.19 312.00
  Q 268.19 310.66 267.32 308.73
  Q 267.12 308.29 266.65 308.22
  C 265.40 308.01 265.04 307.89 264.14 306.90
  C 259.28 301.59 250.93 301.49 245.01 304.26
  Q 225.28 313.46 221.22 335.00
  Q 219.54 343.93 222.33 351.43
  Q 224.70 357.84 230.92 362.70"
/>
<path stroke="#6f974817" vector-effect="non-scaling-stroke" d="
  M 363.03 260.56
  Q 363.63 273.27 363.30 276.75
  Q 362.70 283.01 363.08 286.60"
/>
<path stroke="#6f974817" vector-effect="non-scaling-stroke" d="
  M 380.47 289.46
  C 377.13 293.30 375.77 295.69 369.96 297.64
  Q 365.08 299.27 360.12 299.95
  A 1.17 1.17 0.0 0 0 359.11 301.02
  Q 358.95 302.92 358.20 304.94
  Q 354.67 314.38 353.26 324.28"
/>
<path stroke="#6f974817" vector-effect="non-scaling-stroke" d="
  M 427.08 297.72
  C 427.78 307.63 424.93 315.03 422.31 323.75
  Q 421.38 326.87 422.46 328.71"
/>
<path stroke="#6f974817" vector-effect="non-scaling-stroke" d="
  M 446.85 319.79
  Q 439.65 332.71 425.51 336.95
  Q 420.81 338.35 415.93 336.02"
/>
<path stroke="#6f974817" vector-effect="non-scaling-stroke" d="
  M 414.55 301.28
  C 413.76 297.66 408.31 300.28 406.53 301.80
  C 402.87 304.93 393.56 314.14 393.85 319.24
  C 394.25 325.98 393.54 344.60 385.22 346.46"
/>
<path stroke="#6f974817" vector-effect="non-scaling-stroke" d="
  M 380.77 333.98
  L 380.54 330.78
  Q 380.52 330.48 380.63 330.19
  Q 380.76 329.82 380.60 329.48
  Q 380.32 328.92 379.93 329.40
  C 375.21 335.19 370.76 338.75 363.01 339.49
  Q 353.68 340.37 346.54 335.09
  A 1.09 1.08 39.1 0 0 345.10 335.23
  Q 343.56 336.90 341.87 338.64
  Q 331.05 349.77 314.13 345.74"
/>
<path stroke="#6f974817" vector-effect="non-scaling-stroke" d="
  M 294.29 322.53
  C 293.59 329.66 295.25 336.24 293.22 342.85
  C 289.88 353.70 281.12 359.30 269.69 357.09
  Q 267.08 356.59 264.33 356.10"
/>
<path stroke="#6f974817" vector-effect="non-scaling-stroke" d="
  M 261.30 353.63
  Q 261.00 353.06 260.59 352.82
  Q 260.12 352.54 259.76 352.97
  C 255.28 358.32 252.15 363.35 244.38 364.22
  Q 237.82 364.96 230.92 362.70"
/>
<path stroke="#cedea717" vector-effect="non-scaling-stroke" d="
  M 168.30 422.82
  Q 169.11 423.68 171.02 424.16
  C 195.37 430.27 220.94 419.36 230.79 395.83
  C 232.73 391.20 237.62 374.20 232.37 370.10"
/>
<path stroke="#a0b8a117" vector-effect="non-scaling-stroke" d="
  M 232.37 370.10
  Q 231.76 368.89 231.46 368.76
  A 1.61 1.28 26.3 0 0 229.61 369.16
  C 225.78 375.35 223.42 382.12 219.40 388.18
  C 211.77 399.69 200.96 406.63 187.12 408.23
  C 172.51 409.93 151.96 401.92 147.95 386.51"
/>
<path stroke="#cedea717" vector-effect="non-scaling-stroke" d="
  M 147.95 386.51
  C 146.41 372.92 152.13 357.02 165.61 351.92
  Q 167.49 351.21 169.93 351.61
  Q 180.44 353.34 189.23 352.18
  Q 200.64 350.67 195.63 340.82"
/>
<path stroke="#a0b8a117" vector-effect="non-scaling-stroke" d="
  M 195.63 340.82
  C 190.48 333.17 176.27 333.06 168.47 333.84
  Q 165.16 334.18 163.14 333.53
  Q 156.26 331.31 153.07 324.97"
/>
<path stroke="#cedea717" vector-effect="non-scaling-stroke" d="
  M 153.07 324.97
  Q 152.24 314.64 155.99 306.73"
/>
<path stroke="#a0b8a117" vector-effect="non-scaling-stroke" d="
  M 155.99 306.73
  L 162.70 309.73"
/>
<path stroke="#cedea717" vector-effect="non-scaling-stroke" d="
  M 162.70 309.73
  Q 163.09 310.73 164.03 310.90
  Q 164.16 310.92 164.13 310.94
  L 163.88 311.06
  A 0.03 0.03 0.0 0 0 163.88 311.11
  Q 180.44 317.75 198.25 316.21
  C 212.20 315.00 227.13 303.69 218.54 288.16"
/>
<path stroke="#a0b8a117" vector-effect="non-scaling-stroke" d="
  M 218.54 288.16
  Q 214.73 280.85 208.57 277.14
  C 189.28 265.53 165.10 269.45 149.49 285.31
  A 0.83 0.83 0.0 0 1 148.21 285.19
  L 143.09 277.56
  A 1.28 1.28 0.0 0 0 140.81 277.87
  C 139.32 282.33 140.77 288.65 142.91 292.80
  A 1.03 1.03 0.0 0 1 142.91 293.72
  Q 140.55 298.49 139.85 300.29
  C 134.14 314.95 135.79 331.16 148.20 341.60
  Q 148.58 341.92 148.20 342.24
  Q 132.01 355.82 131.08 377.25
  C 130.09 399.94 147.45 417.37 168.30 422.82"
/>
<path stroke="#6f974817" vector-effect="non-scaling-stroke" d="
  M 218.54 288.16
  Q 220.41 295.35 218.02 300.50
  C 210.07 317.59 185.04 315.55 170.48 312.10
  C 168.17 311.56 165.43 310.25 162.70 309.73"
/>
<path stroke="#6f974817" vector-effect="non-scaling-stroke" d="
  M 155.99 306.73
  Q 155.67 305.79 154.04 305.28
  Q 153.55 305.13 153.33 305.59
  Q 148.53 315.50 153.07 324.97"
/>
<path stroke="#6f974817" vector-effect="non-scaling-stroke" d="
  M 195.63 340.82
  Q 195.24 348.62 189.06 349.91
  Q 179.30 351.94 166.70 349.49
  Q 164.21 349.01 161.99 350.25
  Q 150.06 356.92 147.01 369.91
  C 145.94 374.50 145.51 382.32 147.95 386.51"
/>
<path stroke="#6f974817" vector-effect="non-scaling-stroke" d="
  M 232.37 370.10
  C 234.28 393.49 220.16 414.35 197.77 421.40
  Q 185.06 425.39 174.75 423.57
  Q 170.54 422.82 168.30 422.82"
/>
<path stroke="#a0b8a117" vector-effect="non-scaling-stroke" d="
  M 387.76 385.25
  Q 387.76 381.68 389.32 384.79
  Q 389.60 385.35 390.02 386.43
  A 2.16 2.16 0.0 0 0 392.66 387.71
  Q 394.36 387.18 394.05 385.60
  Q 394.04 385.56 393.16 383.96
  C 391.94 381.75 394.89 380.26 393.85 377.90
  C 392.69 375.29 388.34 375.01 385.92 375.30
  A 2.20 2.19 -3.5 0 0 383.98 377.49
  L 384.03 386.32
  A 1.36 1.35 -87.4 0 0 385.25 387.66
  L 386.43 387.77
  A 1.21 1.21 0.0 0 0 387.76 386.57
  L 387.76 385.25"
/>
<path stroke="#a0b8a117" vector-effect="non-scaling-stroke" d="
  M 410.51 381.83
  A 6.47 6.47 0.0 0 0 404.04 375.36
  A 6.47 6.47 0.0 0 0 397.57 381.83
  A 6.47 6.47 0.0 0 0 404.04 388.30
  A 6.47 6.47 0.0 0 0 410.51 381.83"
/>
<path stroke="#a0b8a117" vector-effect="non-scaling-stroke" d="
  M 375.22 384.16
  Q 380.36 383.94 379.83 378.84
  C 379.44 375.15 373.63 375.44 371.29 376.10
  A 1.42 1.42 0.0 0 0 370.25 377.52
  L 370.55 386.73
  Q 370.60 388.11 371.98 388.11
  L 372.80 388.11
  Q 374.22 388.12 374.37 386.70
  L 374.57 384.78
  A 0.69 0.69 0.0 0 1 375.22 384.16"
/>
<path stroke="#a0b8a117" vector-effect="non-scaling-stroke" d="
  M 414.75 378.13
  L 414.16 386.61
  A 1.99 1.99 0.0 0 0 416.00 388.74
  L 419.29 388.97
  A 6.06 5.46 4.0 0 0 425.71 383.94
  L 425.82 382.39
  A 6.06 5.46 4.0 0 0 420.16 376.52
  L 416.87 376.29
  A 1.99 1.99 0.0 0 0 414.75 378.13"
/>
<path stroke="#a0b8a117" vector-effect="non-scaling-stroke" d="
  M 354.56 380.99
  C 355.46 379.89 357.04 380.23 358.37 380.25
  A 0.58 0.58 0.0 0 0 358.94 379.82
  C 359.57 377.48 357.09 376.65 355.25 376.98
  C 347.72 378.33 347.85 390.26 356.74 389.61
  Q 358.94 389.45 360.07 387.54
  A 1.18 1.18 0.0 0 0 358.71 385.81
  L 356.84 386.40
  Q 356.30 386.56 355.78 386.34
  C 353.85 385.48 353.24 382.61 354.56 380.99"
/>
<path stroke="#a0b8a117" vector-effect="non-scaling-stroke" d="
  M 435.28 387.45
  L 434.73 387.37
  A 1.25 1.25 0.0 0 1 433.67 386.03
  L 434.25 379.69
  A 1.81 1.81 0.0 0 0 432.70 377.73
  L 432.42 377.69
  Q 430.73 377.46 430.40 379.13
  C 429.59 383.29 428.47 388.86 432.74 390.12
  C 440.96 392.56 440.85 385.69 441.29 380.34
  A 1.67 1.66 -82.3 0 0 439.95 378.57
  L 439.52 378.49
  Q 437.69 378.14 437.43 379.98
  L 436.48 386.55
  A 1.06 1.06 0.0 0 1 435.28 387.45"
/>
<path stroke="#a0b8a117" vector-effect="non-scaling-stroke" d="
  M 345.1889 380.2413
  A 1.60 1.60 0.0 0 0 343.3653 378.9018
  L 342.5942 379.0198
  A 1.60 1.60 0.0 0 0 341.2547 380.8434
  L 342.6311 389.8387
  A 1.60 1.60 0.0 0 0 344.4547 391.1782
  L 345.2258 391.0602
  A 1.60 1.60 0.0 0 0 346.5653 389.2366
  L 345.1889 380.2413"
/>
<path stroke="#a0b8a117" vector-effect="non-scaling-stroke" d="
  M 448.70 388.23
  Q 448.14 385.30 450.19 383.36
  A 1.05 1.04 -58.0 0 1 451.20 383.12
  L 453.71 383.87
  A 0.94 0.94 0.0 0 0 454.93 383.00
  L 454.95 382.65
  Q 455.00 381.21 453.66 380.66
  C 442.32 376.05 441.26 396.35 452.97 391.91
  Q 454.39 391.37 453.72 390.16
  A 1.04 1.04 0.0 0 0 452.82 389.61
  Q 450.98 389.58 449.28 388.93
  A 0.95 0.94 -84.9 0 1 448.70 388.23"
/>
<path stroke="#a0b8a117" vector-effect="non-scaling-stroke" d="
  M 333.81 386.49
  C 331.93 384.97 330.26 381.42 327.49 381.93
  Q 324.60 382.46 325.16 385.24
  Q 325.93 389.13 326.87 392.81
  Q 327.26 394.35 328.85 394.20
  L 329.12 394.18
  Q 330.71 394.03 330.32 392.48
  L 329.38 388.68
  Q 329.20 387.97 329.78 388.41
  C 332.33 390.30 332.90 393.80 336.98 392.59
  A 1.82 1.81 75.8 0 0 338.23 390.49
  L 336.44 381.62
  Q 336.10 379.97 334.48 380.44
  L 334.02 380.57
  Q 332.58 380.99 333.02 382.43
  L 334.19 386.24
  Q 334.42 386.99 333.81 386.49"
/>
<path stroke="#a0b8a117" vector-effect="non-scaling-stroke" d="
  M 461.71 390.13
  Q 463.18 389.84 464.66 390.04
  A 1.02 1.01 -67.6 0 0 465.61 389.64
  Q 466.15 388.92 465.91 387.96
  Q 465.75 387.34 465.13 387.20
  L 462.96 386.70
  A 0.95 0.93 -89.6 0 1 462.24 385.96
  L 462.17 385.62
  A 0.36 0.35 -3.1 0 1 462.55 385.20
  L 466.02 385.46
  A 1.28 1.28 0.0 0 0 467.34 383.80
  Q 466.98 382.66 465.53 382.38
  Q 463.29 381.94 460.65 381.78
  A 1.78 1.77 6.7 0 0 458.79 383.24
  L 457.22 392.31
  Q 456.99 393.61 458.29 393.83
  L 464.22 394.88
  A 1.62 1.42 -89.0 0 0 465.85 393.08
  Q 465.83 392.91 465.51 392.59
  Q 465.32 392.40 465.03 392.30
  Q 463.36 391.72 461.66 391.20
  A 0.55 0.55 0.0 0 1 461.71 390.13"
/>
<path stroke="#a0b8a117" vector-effect="non-scaling-stroke" d="
  M 316.33 395.32
  Q 318.62 393.77 320.38 395.67
  Q 321.33 396.69 322.52 395.96
  L 322.98 395.68
  A 1.38 1.38 0.0 0 0 323.47 393.83
  Q 321.30 389.91 318.64 386.47
  C 317.32 384.77 315.37 384.44 313.73 385.68
  Q 312.55 386.57 312.39 388.89
  Q 312.13 392.85 312.01 397.07
  A 1.13 1.12 -88.0 0 0 313.09 398.24
  L 314.51 398.30
  A 1.17 1.16 -86.4 0 0 315.71 397.24
  L 315.81 396.19
  Q 315.87 395.63 316.33 395.32"
/>
<path stroke="#a0b8a117" vector-effect="non-scaling-stroke" d="
  M 305.01 397.73
  Q 304.98 398.45 304.23 398.64
  C 300.70 399.49 298.51 394.74 301.41 392.76
  C 302.46 392.04 303.93 391.96 305.23 391.80
  A 0.95 0.94 -82.3 0 0 305.98 391.22
  Q 306.22 390.62 306.04 390.01
  Q 305.89 389.54 305.44 389.36
  C 298.44 386.60 292.99 396.88 298.77 400.88
  C 301.56 402.81 305.03 402.04 307.60 400.10
  C 309.88 398.38 308.26 395.32 306.96 393.58
  Q 306.65 393.18 306.15 393.26
  Q 304.15 393.61 302.37 394.57
  A 1.00 0.99 -40.7 0 0 302.24 396.24
  Q 303.22 396.97 304.44 397.08
  A 0.63 0.63 0.0 0 1 305.01 397.73"
/>
<path stroke="#a0b8a117" vector-effect="non-scaling-stroke" d="
  M 476.3872 392.1213
  A 1.39 1.39 0.0 0 0 475.2766 390.4993
  L 471.3842 389.7709
  A 1.39 1.39 0.0 0 0 469.7622 390.8814
  L 469.7328 391.0387
  A 1.39 1.39 0.0 0 0 470.8434 392.6607
  L 474.7358 393.3891
  A 1.39 1.39 0.0 0 0 476.3578 392.2786
  L 476.3872 392.1213"
/>
<path stroke="#a0b8a117" vector-effect="non-scaling-stroke" d="
  M 288.48 404.01
  A 0.66 0.66 0.0 0 1 289.56 403.31
  L 291.63 405.31
  Q 292.84 406.48 294.07 405.35
  L 294.63 404.84
  A 1.50 1.50 0.0 0 0 294.60 402.61
  L 292.85 401.09
  A 1.05 1.02 -68.6 0 1 292.49 400.24
  C 292.90 392.88 287.91 394.52 283.45 396.23
  A 1.93 1.93 0.0 0 0 282.31 398.69
  Q 283.58 402.21 285.14 405.84
  C 285.87 407.55 287.55 409.27 289.12 406.99
  A 1.01 1.01 0.0 0 0 289.24 406.05
  L 288.48 404.01"
/>
<path stroke="#a0b8a117" vector-effect="non-scaling-stroke" d="
  M 274.5409 413.6375
  A 6.48 6.34 88.4 0 0 280.6975 406.9830
  A 6.48 6.34 88.4 0 0 274.1791 400.6825
  A 6.48 6.34 88.4 0 0 268.0225 407.3370
  A 6.48 6.34 88.4 0 0 274.5409 413.6375"
/>
<path stroke="#a0b8a117" vector-effect="non-scaling-stroke" d="
  M 265.5966 412.6689
  A 1.40 1.40 0.0 0 0 263.7234 412.0276
  L 260.2032 413.7522
  A 1.40 1.40 0.0 0 0 259.5618 415.6253
  L 259.6234 415.7511
  A 1.40 1.40 0.0 0 0 261.4966 416.3924
  L 265.0168 414.6678
  A 1.40 1.40 0.0 0 0 265.6582 412.7947
  L 265.5966 412.6689"
/>
<path stroke="#a0b8a117" vector-effect="non-scaling-stroke" d="
  M 256.65 125.31
  Q 257.15 125.15 258.02 125.71
  Q 261.05 127.67 264.48 130.25
  Q 265.83 131.27 265.49 129.61
  C 263.90 122.04 255.57 117.14 248.59 114.63
  Q 248.06 114.44 248.21 114.98
  C 250.94 125.29 251.80 133.57 264.17 135.80
  Q 265.19 135.99 264.39 135.32
  Q 259.67 131.41 256.29 126.35
  Q 255.78 125.58 256.65 125.31"
/>
<path stroke="#a0b8a117" vector-effect="non-scaling-stroke" d="
  M 408.62 155.25
  Q 410.52 155.61 413.45 154.89
  A 0.67 0.66 84.2 0 0 413.95 154.27
  C 414.22 146.84 414.38 138.21 412.01 131.44"
/>
<path stroke="#6f974817" vector-effect="non-scaling-stroke" d="
  M 412.01 131.44
  Q 411.81 129.69 410.91 128.56
  Q 410.48 128.01 410.29 128.69
  Q 406.76 141.45 408.62 155.25"
/>
<path stroke="#cedea717" vector-effect="non-scaling-stroke" d="
  M 412.01 131.44
  Q 410.95 131.19 410.82 132.25
  Q 409.47 143.40 408.62 155.25"
/>
<path stroke="#6f974817" vector-effect="non-scaling-stroke" d="
  M 409.69 168.23
  Q 408.96 170.62 409.98 174.24"
/>
<path stroke="#a0b8a117" vector-effect="non-scaling-stroke" d="
  M 409.98 174.24
  L 410.34 180.15
  Q 410.46 182.12 411.03 180.23
  Q 412.73 174.57 412.49 168.67
  Q 412.46 168.12 411.91 168.14
  L 409.69 168.23"
/>
<path stroke="#cedea717" vector-effect="non-scaling-stroke" d="
  M 409.98 174.24
  Q 410.46 171.02 409.69 168.23"
/>
<path stroke="#a0b8a117" vector-effect="non-scaling-stroke" d="
  M 358.08 203.73
  Q 368.47 202.56 372.63 192.34"
/>
<path stroke="#6f974817" vector-effect="non-scaling-stroke" d="
  M 372.63 192.34
  Q 373.10 191.52 371.79 190.42
  C 367.37 186.69 360.41 192.37 358.43 196.21
  C 357.12 198.75 356.09 200.70 355.96 203.32
  Q 355.93 203.87 356.48 203.93
  Q 357.39 204.03 358.08 203.73"
/>
<path stroke="#cedea717" vector-effect="non-scaling-stroke" d="
  M 372.63 192.34
  Q 366.35 190.82 361.83 196.34
  Q 359.16 199.59 358.08 203.73"
/>
<path stroke="#a0b8a117" vector-effect="non-scaling-stroke" d="
  M 312.98 204.03
  C 318.53 203.97 324.28 200.43 326.38 195.31"
/>
<path stroke="#6f974817" vector-effect="non-scaling-stroke" d="
  M 326.38 195.31
  C 326.67 192.06 322.54 191.25 320.19 192.14
  C 315.88 193.78 312.91 198.99 311.61 203.14
  A 0.89 0.89 0.0 0 0 312.19 204.26
  Q 312.61 204.40 312.98 204.03"
/>
<path stroke="#cedea717" vector-effect="non-scaling-stroke" d="
  M 326.38 195.31
  Q 326.38 194.81 326.24 194.52
  Q 326.10 194.24 325.62 194.24
  C 318.25 194.21 316.57 199.74 312.98 204.03"
/>
<path stroke="#a0b8a117" vector-effect="non-scaling-stroke" d="
  M 284.68 132.30
  Q 287.95 129.57 287.91 124.92"
/>
<path stroke="#6f974817" vector-effect="non-scaling-stroke" d="
  M 287.91 124.92
  Q 288.00 123.44 287.43 121.57
  A 0.42 0.42 0.0 0 0 286.76 121.37
  C 283.52 124.02 281.08 128.69 282.99 132.83
  A 0.66 0.66 0.0 0 0 283.67 133.21
  Q 284.69 133.09 284.68 132.30"
/>
<path stroke="#cedea717" vector-effect="non-scaling-stroke" d="
  M 287.91 124.92
  Q 282.85 128.43 284.68 132.30"
/>
<path stroke="#a0b8a117" vector-effect="non-scaling-stroke" d="
  M 264.28 160.91
  Q 269.13 157.52 270.64 151.79"
/>
<path stroke="#6f974817" vector-effect="non-scaling-stroke" d="
  M 270.64 151.79
  L 270.69 147.90
  A 0.82 0.82 0.0 0 0 269.47 147.17
  Q 261.73 151.54 261.33 160.56
  A 1.17 1.17 0.0 0 0 263.10 161.62
  L 264.28 160.91"
/>
<path stroke="#cedea717" vector-effect="non-scaling-stroke" d="
  M 270.64 151.79
  Q 270.67 150.72 269.84 150.69
  A 0.74 0.72 -62.0 0 0 269.37 150.84
  Q 264.61 154.51 263.71 160.27
  Q 263.63 160.74 264.28 160.91"
/>
<path stroke="#a0b8a117" vector-effect="non-scaling-stroke" d="
  M 343.61 286.80
  Q 343.18 288.89 349.35 287.79
  A 1.12 1.12 0.0 0 0 350.26 286.90
  Q 353.18 271.49 349.73 255.81"
/>
<path stroke="#6f974817" vector-effect="non-scaling-stroke" d="
  M 349.73 255.81
  Q 349.41 254.70 348.86 254.19
  Q 348.41 253.78 348.18 254.34
  C 343.75 265.14 342.98 275.02 343.61 286.80"
/>
<path stroke="#cedea717" vector-effect="non-scaling-stroke" d="
  M 349.73 255.81
  Q 347.12 262.85 346.39 266.25
  Q 344.77 273.89 343.61 286.80"
/>
<path stroke="#a0b8a117" vector-effect="non-scaling-stroke" d="
  M 346.10 299.64
  L 344.76 299.71
  A 0.21 0.21 0.0 0 0 344.56 299.93
  L 344.59 300.45
  A 4.97 0.77 87.0 0 0 345.62 305.37
  L 345.84 305.36
  A 4.97 0.77 87.0 0 0 346.35 300.36
  L 346.32 299.84
  A 0.21 0.21 0.0 0 0 346.10 299.64"
/>
<path stroke="#a0b8a117" vector-effect="non-scaling-stroke" d="
  M 234.30 344.57
  C 234.27 352.90 243.91 355.18 248.14 348.82
  C 254.92 338.63 254.33 324.52 255.14 312.87"
/>
<path stroke="#6f974817" vector-effect="non-scaling-stroke" d="
  M 255.14 312.87
  Q 255.43 311.82 255.34 310.84
  A 0.73 0.72 73.1 0 0 254.28 310.27
  Q 239.16 318.33 234.69 334.47
  Q 233.14 340.05 234.30 344.57"
/>
<path stroke="#cedea717" vector-effect="non-scaling-stroke" d="
  M 255.14 312.87
  Q 236.70 323.20 234.30 344.57"
/>
<path stroke="#a0b8a117" vector-effect="non-scaling-stroke" d="
  M 163.71 296.29
  C 173.00 299.01 195.79 302.86 203.12 294.89
  A 1.20 1.20 0.0 0 0 203.12 293.25
  Q 200.83 290.80 198.04 289.73"
/>
<path stroke="#6f974817" vector-effect="non-scaling-stroke" d="
  M 198.04 289.73
  C 186.90 282.24 170.40 285.01 161.32 294.64
  Q 160.84 295.15 161.49 295.40
  L 163.71 296.29"
/>
<path stroke="#cedea717" vector-effect="non-scaling-stroke" d="
  M 198.04 289.73
  Q 178.95 283.43 163.71 296.29"
/>
<path stroke="#a0b8a117" vector-effect="non-scaling-stroke" d="
  M 389.7315 380.2161
  A 1.32 1.11 39.3 0 0 389.4131 378.5210
  A 1.32 1.11 39.3 0 0 387.6885 378.5439
  A 1.32 1.11 39.3 0 0 388.0069 380.2390
  A 1.32 1.11 39.3 0 0 389.7315 380.2161"
/>
<path stroke="#a0b8a117" vector-effect="non-scaling-stroke" d="
  M 403.9065 385.0992
  A 3.24 2.43 91.3 0 0 406.4094 381.9151
  A 3.24 2.43 91.3 0 0 404.0535 378.6208
  A 3.24 2.43 91.3 0 0 401.5506 381.8049
  A 3.24 2.43 91.3 0 0 403.9065 385.0992"
/>
<path stroke="#a0b8a117" vector-effect="non-scaling-stroke" d="
  M 376.18 380.04
  A 1.16 1.16 0.0 0 0 375.02 378.88
  A 1.16 1.16 0.0 0 0 373.86 380.04
  A 1.16 1.16 0.0 0 0 375.02 381.20
  A 1.16 1.16 0.0 0 0 376.18 380.04"
/>
<path stroke="#a0b8a117" vector-effect="non-scaling-stroke" d="
  M 418.60 379.80
  L 418.17 385.50
  A 0.36 0.36 0.0 0 0 418.50 385.89
  L 418.76 385.91
  A 2.84 2.76 4.3 0 0 421.80 383.37
  L 421.87 382.45
  A 2.84 2.76 4.3 0 0 419.24 379.49
  L 418.99 379.47
  A 0.36 0.36 0.0 0 0 418.60 379.80"
/>
<path stroke="#a0b8a117" vector-effect="non-scaling-stroke" d="
  M 317.37 390.99
  L 316.52 389.56
  Q 316.02 388.72 315.83 389.68
  L 315.46 391.58
  A 0.54 0.54 0.0 0 0 316.11 392.20
  L 316.95 392.00
  Q 317.85 391.78 317.37 390.99"
/>
<path stroke="#a0b8a117" vector-effect="non-scaling-stroke" d="
  M 288.9462 398.8456
  A 1.38 1.19 -8.1 0 0 287.4123 397.8619
  A 1.38 1.19 -8.1 0 0 286.2138 399.2344
  A 1.38 1.19 -8.1 0 0 287.7477 400.2181
  A 1.38 1.19 -8.1 0 0 288.9462 398.8456"
/>
<path stroke="#a0b8a117" vector-effect="non-scaling-stroke" d="
  M 275.8952 410.1628
  A 3.35 2.34 63.3 0 0 276.4805 406.1186
  A 3.35 2.34 63.3 0 0 272.8848 404.1772
  A 3.35 2.34 63.3 0 0 272.2995 408.2214
  A 3.35 2.34 63.3 0 0 275.8952 410.1628"
/>
</g>
<path fill="#ffffff00" d="
  M 0.00 0.00
  L 572.00 0.00
  L 572.00 573.00
  L 0.00 573.00
  L 0.00 0.00
  Z
  M 252.23 139.93
  Q 253.47 142.39 255.50 142.86
  Q 258.38 143.54 261.26 144.49
  Q 255.92 149.24 255.32 156.26
  Q 254.60 164.76 256.24 171.69
  C 257.36 173.30 257.95 174.36 260.12 173.67
  C 268.85 170.91 284.86 161.15 277.27 149.90
  Q 274.81 144.70 268.13 142.67
  Q 267.65 139.98 272.07 141.73
  Q 278.80 146.70 286.17 150.11
  Q 286.14 151.14 287.51 151.75
  Q 291.54 153.55 295.53 155.43
  C 306.74 160.71 318.69 164.29 331.00 166.99
  Q 363.45 174.10 396.23 172.21
  Q 398.02 190.14 402.84 206.79
  A 0.68 0.66 -32.6 0 1 402.69 207.42
  C 392.49 218.53 368.76 230.41 358.20 212.89
  Q 358.05 212.69 358.15 212.45
  Q 358.34 212.01 358.82 212.08
  Q 372.98 214.27 381.70 202.72
  Q 387.89 194.53 383.13 186.76
  Q 378.72 178.42 371.02 177.49
  C 358.44 175.97 348.42 184.28 344.60 195.82
  Q 340.59 207.94 346.58 219.05
  Q 346.82 219.50 346.38 219.76
  C 336.30 225.66 324.40 230.12 314.16 221.62
  Q 313.62 221.17 313.11 220.28
  C 324.03 219.51 333.62 214.71 338.83 204.80
  Q 342.71 197.42 338.41 190.23
  C 333.14 177.53 317.07 176.87 308.37 185.88
  Q 301.75 192.74 299.06 201.51
  A 1.07 1.07 0.0 0 1 297.52 202.13
  Q 291.38 198.70 286.54 193.99
  C 281.62 189.22 278.17 196.85 277.24 200.24
  C 274.66 209.60 275.03 220.30 271.41 229.19
  C 270.39 231.71 267.58 235.08 264.55 234.83
  C 255.69 234.08 258.80 200.55 249.86 196.22
  Q 249.38 195.99 248.90 196.20
  C 245.54 197.68 243.80 204.18 242.68 208.04
  C 239.51 218.95 238.06 229.92 230.01 238.50
  A 1.63 1.63 0.0 0 1 227.45 238.25
  C 222.02 229.65 220.79 218.33 219.11 208.52
  C 217.92 201.60 214.01 193.53 205.36 195.27
  C 200.12 196.32 195.95 200.10 193.31 204.77
  Q 191.40 208.15 194.44 210.48
  Q 197.88 213.51 205.05 210.23
  Q 207.07 218.44 209.08 226.24
  C 211.50 235.64 215.45 245.51 223.98 251.04
  C 227.74 253.72 231.79 254.68 236.12 252.43
  Q 241.64 249.56 245.21 244.23
  Q 247.35 241.02 249.71 237.93
  L 256.19 245.33
  Q 267.91 253.66 278.24 244.60
  C 286.25 237.57 288.59 226.55 290.14 216.00
  Q 290.45 213.91 288.95 211.04
  Q 292.31 213.62 295.35 215.42
  C 297.90 216.93 297.74 218.17 298.66 220.77
  Q 302.10 230.49 311.47 236.49
  C 324.58 247.58 343.30 241.34 352.13 228.35
  A 0.76 0.76 0.0 0 1 353.41 228.40
  C 354.37 230.10 356.00 230.77 357.42 231.70
  C 371.73 241.04 389.48 235.89 402.64 227.13
  Q 406.06 224.85 409.14 221.65
  Q 413.37 228.73 417.88 233.37
  Q 420.94 236.51 424.81 238.32
  Q 430.52 242.11 437.20 242.48
  C 445.25 242.92 455.38 241.02 458.17 231.99
  Q 458.77 230.04 456.94 228.97
  Q 456.98 228.04 456.57 227.33
  A 1.06 1.05 -35.6 0 0 454.96 227.07
  C 447.96 233.22 438.49 232.77 430.62 228.58
  C 424.25 225.18 420.70 217.15 418.42 210.64
  C 421.96 199.60 423.41 190.61 425.28 180.70
  C 426.07 176.51 426.10 172.43 426.51 168.24
  A 2.27 2.25 84.4 0 1 428.09 166.30
  C 436.21 163.78 444.47 159.88 450.23 153.23
  Q 452.39 150.73 449.80 149.05
  Q 449.95 147.58 448.74 147.51
  Q 447.69 147.44 446.66 147.74
  C 440.08 149.64 433.64 151.48 426.87 152.63
  A 0.50 0.49 4.2 0 1 426.31 151.99
  Q 426.64 151.00 426.30 150.61
  Q 426.99 150.13 427.04 148.75
  Q 427.32 141.73 425.71 135.56
  C 424.99 128.49 421.40 118.76 414.87 115.21
  Q 411.45 113.35 408.00 114.01
  C 395.14 116.49 395.18 147.08 395.54 156.42
  A 0.39 0.38 86.9 0 1 395.19 156.82
  Q 352.70 160.17 311.29 150.08
  C 298.44 146.95 284.86 142.38 273.51 135.50
  Q 275.24 128.80 272.26 123.66
  C 266.40 111.84 253.13 106.89 240.87 105.00
  Q 240.38 104.93 240.35 105.43
  C 239.74 117.69 241.90 132.04 252.23 139.93
  Z
  M 281.14 136.57
  C 287.49 142.00 294.32 137.75 294.93 130.25
  Q 295.32 125.56 293.52 121.24
  L 290.45 113.67
  A 0.97 0.96 63.2 0 0 289.06 113.21
  C 281.85 117.55 270.14 128.44 281.14 136.57
  Z
  M 127.08 267.69
  Q 134.41 271.08 142.83 271.41
  Q 150.97 271.72 158.64 270.37
  C 180.76 266.50 197.15 245.04 191.54 222.48
  C 185.44 196.01 158.21 190.79 136.46 184.08
  C 130.16 182.14 122.07 179.14 119.07 172.69
  C 117.39 150.92 142.93 146.05 159.42 148.49
  Q 163.97 149.34 167.78 151.93
  C 175.61 157.27 173.88 165.41 172.73 173.32
  A 0.86 0.84 22.7 0 0 173.08 174.14
  Q 173.99 174.80 175.29 174.85
  Q 175.54 176.01 176.23 176.41
  Q 176.76 176.72 177.29 176.42
  C 183.63 172.82 186.43 163.67 184.77 156.94
  Q 183.78 148.06 177.09 141.65
  C 160.23 125.51 129.80 127.54 113.20 142.35
  C 101.68 152.62 98.20 172.35 109.05 184.47
  C 124.19 201.38 147.91 199.54 166.18 210.32
  C 176.51 216.41 179.45 227.96 173.84 238.45
  Q 166.16 252.82 147.99 253.56
  C 132.06 254.22 118.95 249.78 110.99 235.27
  C 108.15 230.10 105.78 223.61 101.76 219.28
  A 1.57 1.56 39.6 0 0 99.29 219.51
  Q 98.47 220.80 98.35 222.66
  Q 97.07 241.87 109.76 255.99
  Q 116.89 263.93 127.08 267.69
  Z
  M 230.92 362.70
  Q 248.77 373.23 260.31 356.54
  Q 260.61 356.11 260.62 355.58
  Q 260.64 353.97 261.30 353.63
  L 264.33 356.10
  Q 272.31 361.57 281.27 359.29
  C 296.05 355.54 296.40 336.26 294.29 322.53
  L 290.91 307.33
  Q 290.77 306.71 291.33 307.02
  C 295.08 309.13 301.10 311.66 305.47 310.60
  Q 306.02 310.47 306.00 311.03
  C 305.52 323.68 303.19 335.81 314.13 345.74
  Q 330.16 354.60 343.73 340.46
  Q 345.29 338.83 346.58 337.57
  A 1.41 1.41 0.0 0 1 348.42 337.46
  C 357.74 344.55 371.78 343.32 379.50 334.00
  Q 379.83 333.59 380.32 333.79
  L 380.77 333.98
  C 381.47 338.69 382.07 342.57 385.22 346.46
  Q 385.68 347.52 386.70 348.33
  A 1.16 1.16 0.0 0 0 387.56 348.57
  C 392.19 347.97 394.28 337.44 394.69 333.49
  Q 395.31 327.51 395.03 321.50
  Q 394.90 318.69 395.84 317.61
  C 400.87 311.80 405.74 302.31 414.55 301.28
  Q 415.70 303.30 415.16 306.25
  Q 413.64 314.51 412.13 322.74
  Q 410.66 330.83 415.93 336.02
  C 424.27 346.52 445.99 331.12 448.13 321.77
  Q 448.24 321.28 447.90 320.91
  L 446.85 319.79
  Q 447.26 319.17 447.04 318.70
  A 1.07 1.07 0.0 0 0 445.37 318.34
  Q 436.65 325.89 426.02 328.76
  Q 424.22 329.25 422.46 328.71
  C 426.02 319.40 431.01 307.33 427.08 297.72
  C 422.82 285.93 409.94 283.15 400.19 290.68
  Q 397.28 292.93 396.03 293.89
  Q 395.40 294.38 395.65 293.62
  C 396.13 292.15 396.65 291.08 396.81 289.58
  Q 398.01 277.88 396.11 266.36
  C 394.95 259.31 390.59 246.84 382.72 245.09
  Q 379.54 244.39 379.43 247.49
  C 379.21 253.88 381.32 260.65 382.65 266.86
  C 385.41 279.69 384.35 289.67 383.08 304.01
  C 382.54 310.16 373.57 323.81 368.30 326.33
  Q 360.63 329.99 353.26 324.28
  Q 358.79 314.54 360.24 303.62
  A 1.70 1.69 2.2 0 1 361.84 302.15
  C 367.81 301.88 377.92 299.16 380.77 293.04
  Q 381.70 291.06 380.47 289.46
  Q 379.99 286.18 377.01 285.99
  Q 374.05 285.79 363.08 286.60
  C 365.33 279.03 364.16 268.30 363.03 260.56
  C 362.19 252.10 357.14 236.93 346.23 240.35
  C 332.91 244.53 330.56 276.12 330.75 287.26
  Q 330.77 288.10 329.93 288.06
  Q 322.63 287.76 316.00 287.33
  Q 314.39 287.22 313.06 287.81
  A 0.58 0.58 0.0 0 0 312.84 288.70
  C 316.43 293.29 323.65 296.74 329.42 297.55
  A 2.10 2.10 0.0 0 1 331.23 299.48
  Q 332.15 312.13 337.41 323.65
  Q 337.65 324.16 337.40 324.66
  C 334.59 330.44 327.76 335.18 321.61 334.04
  A 2.11 2.11 0.0 0 1 319.97 332.51
  C 318.42 326.54 319.14 320.18 319.42 314.07
  Q 319.44 313.72 319.52 314.05
  Q 319.54 314.15 319.52 314.25
  Q 319.49 314.44 319.50 314.58
  Q 319.52 315.41 319.59 314.57
  C 320.13 307.71 320.71 297.92 311.25 298.21
  Q 295.38 298.69 283.56 295.31
  Q 280.70 294.49 278.40 292.87
  A 1.34 1.34 0.0 0 0 276.30 293.79
  C 276.09 295.37 276.34 296.97 277.05 298.55
  C 278.68 302.14 280.27 304.93 280.64 309.00
  Q 281.68 320.48 281.38 332.00
  C 281.26 336.76 280.63 345.39 274.00 345.13
  C 272.18 345.06 269.30 344.61 268.43 343.03
  C 266.50 339.55 266.59 334.87 267.06 330.30
  Q 268.14 319.70 268.19 312.00
  Q 268.19 310.66 267.32 308.73
  Q 267.12 308.29 266.65 308.22
  C 265.40 308.01 265.04 307.89 264.14 306.90
  C 259.28 301.59 250.93 301.49 245.01 304.26
  Q 225.28 313.46 221.22 335.00
  Q 219.54 343.93 222.33 351.43
  Q 224.70 357.84 230.92 362.70
  Z
  M 168.30 422.82
  Q 169.11 423.68 171.02 424.16
  C 195.37 430.27 220.94 419.36 230.79 395.83
  C 232.73 391.20 237.62 374.20 232.37 370.10
  Q 231.76 368.89 231.46 368.76
  A 1.61 1.28 26.3 0 0 229.61 369.16
  C 225.78 375.35 223.42 382.12 219.40 388.18
  C 211.77 399.69 200.96 406.63 187.12 408.23
  C 172.51 409.93 151.96 401.92 147.95 386.51
  C 146.41 372.92 152.13 357.02 165.61 351.92
  Q 167.49 351.21 169.93 351.61
  Q 180.44 353.34 189.23 352.18
  Q 200.64 350.67 195.63 340.82
  C 190.48 333.17 176.27 333.06 168.47 333.84
  Q 165.16 334.18 163.14 333.53
  Q 156.26 331.31 153.07 324.97
  Q 152.24 314.64 155.99 306.73
  L 162.70 309.73
  Q 163.09 310.73 164.03 310.90
  Q 164.16 310.92 164.13 310.94
  L 163.88 311.06
  A 0.03 0.03 0.0 0 0 163.88 311.11
  Q 180.44 317.75 198.25 316.21
  C 212.20 315.00 227.13 303.69 218.54 288.16
  Q 214.73 280.85 208.57 277.14
  C 189.28 265.53 165.10 269.45 149.49 285.31
  A 0.83 0.83 0.0 0 1 148.21 285.19
  L 143.09 277.56
  A 1.28 1.28 0.0 0 0 140.81 277.87
  C 139.32 282.33 140.77 288.65 142.91 292.80
  A 1.03 1.03 0.0 0 1 142.91 293.72
  Q 140.55 298.49 139.85 300.29
  C 134.14 314.95 135.79 331.16 148.20 341.60
  Q 148.58 341.92 148.20 342.24
  Q 132.01 355.82 131.08 377.25
  C 130.09 399.94 147.45 417.37 168.30 422.82
  Z
  M 387.76 385.25
  Q 387.76 381.68 389.32 384.79
  Q 389.60 385.35 390.02 386.43
  A 2.16 2.16 0.0 0 0 392.66 387.71
  Q 394.36 387.18 394.05 385.60
  Q 394.04 385.56 393.16 383.96
  C 391.94 381.75 394.89 380.26 393.85 377.90
  C 392.69 375.29 388.34 375.01 385.92 375.30
  A 2.20 2.19 -3.5 0 0 383.98 377.49
  L 384.03 386.32
  A 1.36 1.35 -87.4 0 0 385.25 387.66
  L 386.43 387.77
  A 1.21 1.21 0.0 0 0 387.76 386.57
  L 387.76 385.25
  Z
  M 410.51 381.83
  A 6.47 6.47 0.0 0 0 404.04 375.36
  A 6.47 6.47 0.0 0 0 397.57 381.83
  A 6.47 6.47 0.0 0 0 404.04 388.30
  A 6.47 6.47 0.0 0 0 410.51 381.83
  Z
  M 375.22 384.16
  Q 380.36 383.94 379.83 378.84
  C 379.44 375.15 373.63 375.44 371.29 376.10
  A 1.42 1.42 0.0 0 0 370.25 377.52
  L 370.55 386.73
  Q 370.60 388.11 371.98 388.11
  L 372.80 388.11
  Q 374.22 388.12 374.37 386.70
  L 374.57 384.78
  A 0.69 0.69 0.0 0 1 375.22 384.16
  Z
  M 414.75 378.13
  L 414.16 386.61
  A 1.99 1.99 0.0 0 0 416.00 388.74
  L 419.29 388.97
  A 6.06 5.46 4.0 0 0 425.71 383.94
  L 425.82 382.39
  A 6.06 5.46 4.0 0 0 420.16 376.52
  L 416.87 376.29
  A 1.99 1.99 0.0 0 0 414.75 378.13
  Z
  M 354.56 380.99
  C 355.46 379.89 357.04 380.23 358.37 380.25
  A 0.58 0.58 0.0 0 0 358.94 379.82
  C 359.57 377.48 357.09 376.65 355.25 376.98
  C 347.72 378.33 347.85 390.26 356.74 389.61
  Q 358.94 389.45 360.07 387.54
  A 1.18 1.18 0.0 0 0 358.71 385.81
  L 356.84 386.40
  Q 356.30 386.56 355.78 386.34
  C 353.85 385.48 353.24 382.61 354.56 380.99
  Z
  M 435.28 387.45
  L 434.73 387.37
  A 1.25 1.25 0.0 0 1 433.67 386.03
  L 434.25 379.69
  A 1.81 1.81 0.0 0 0 432.70 377.73
  L 432.42 377.69
  Q 430.73 377.46 430.40 379.13
  C 429.59 383.29 428.47 388.86 432.74 390.12
  C 440.96 392.56 440.85 385.69 441.29 380.34
  A 1.67 1.66 -82.3 0 0 439.95 378.57
  L 439.52 378.49
  Q 437.69 378.14 437.43 379.98
  L 436.48 386.55
  A 1.06 1.06 0.0 0 1 435.28 387.45
  Z
  M 345.1889 380.2413
  A 1.60 1.60 0.0 0 0 343.3653 378.9018
  L 342.5942 379.0198
  A 1.60 1.60 0.0 0 0 341.2547 380.8434
  L 342.6311 389.8387
  A 1.60 1.60 0.0 0 0 344.4547 391.1782
  L 345.2258 391.0602
  A 1.60 1.60 0.0 0 0 346.5653 389.2366
  L 345.1889 380.2413
  Z
  M 448.70 388.23
  Q 448.14 385.30 450.19 383.36
  A 1.05 1.04 -58.0 0 1 451.20 383.12
  L 453.71 383.87
  A 0.94 0.94 0.0 0 0 454.93 383.00
  L 454.95 382.65
  Q 455.00 381.21 453.66 380.66
  C 442.32 376.05 441.26 396.35 452.97 391.91
  Q 454.39 391.37 453.72 390.16
  A 1.04 1.04 0.0 0 0 452.82 389.61
  Q 450.98 389.58 449.28 388.93
  A 0.95 0.94 -84.9 0 1 448.70 388.23
  Z
  M 333.81 386.49
  C 331.93 384.97 330.26 381.42 327.49 381.93
  Q 324.60 382.46 325.16 385.24
  Q 325.93 389.13 326.87 392.81
  Q 327.26 394.35 328.85 394.20
  L 329.12 394.18
  Q 330.71 394.03 330.32 392.48
  L 329.38 388.68
  Q 329.20 387.97 329.78 388.41
  C 332.33 390.30 332.90 393.80 336.98 392.59
  A 1.82 1.81 75.8 0 0 338.23 390.49
  L 336.44 381.62
  Q 336.10 379.97 334.48 380.44
  L 334.02 380.57
  Q 332.58 380.99 333.02 382.43
  L 334.19 386.24
  Q 334.42 386.99 333.81 386.49
  Z
  M 461.71 390.13
  Q 463.18 389.84 464.66 390.04
  A 1.02 1.01 -67.6 0 0 465.61 389.64
  Q 466.15 388.92 465.91 387.96
  Q 465.75 387.34 465.13 387.20
  L 462.96 386.70
  A 0.95 0.93 -89.6 0 1 462.24 385.96
  L 462.17 385.62
  A 0.36 0.35 -3.1 0 1 462.55 385.20
  L 466.02 385.46
  A 1.28 1.28 0.0 0 0 467.34 383.80
  Q 466.98 382.66 465.53 382.38
  Q 463.29 381.94 460.65 381.78
  A 1.78 1.77 6.7 0 0 458.79 383.24
  L 457.22 392.31
  Q 456.99 393.61 458.29 393.83
  L 464.22 394.88
  A 1.62 1.42 -89.0 0 0 465.85 393.08
  Q 465.83 392.91 465.51 392.59
  Q 465.32 392.40 465.03 392.30
  Q 463.36 391.72 461.66 391.20
  A 0.55 0.55 0.0 0 1 461.71 390.13
  Z
  M 316.33 395.32
  Q 318.62 393.77 320.38 395.67
  Q 321.33 396.69 322.52 395.96
  L 322.98 395.68
  A 1.38 1.38 0.0 0 0 323.47 393.83
  Q 321.30 389.91 318.64 386.47
  C 317.32 384.77 315.37 384.44 313.73 385.68
  Q 312.55 386.57 312.39 388.89
  Q 312.13 392.85 312.01 397.07
  A 1.13 1.12 -88.0 0 0 313.09 398.24
  L 314.51 398.30
  A 1.17 1.16 -86.4 0 0 315.71 397.24
  L 315.81 396.19
  Q 315.87 395.63 316.33 395.32
  Z
  M 305.01 397.73
  Q 304.98 398.45 304.23 398.64
  C 300.70 399.49 298.51 394.74 301.41 392.76
  C 302.46 392.04 303.93 391.96 305.23 391.80
  A 0.95 0.94 -82.3 0 0 305.98 391.22
  Q 306.22 390.62 306.04 390.01
  Q 305.89 389.54 305.44 389.36
  C 298.44 386.60 292.99 396.88 298.77 400.88
  C 301.56 402.81 305.03 402.04 307.60 400.10
  C 309.88 398.38 308.26 395.32 306.96 393.58
  Q 306.65 393.18 306.15 393.26
  Q 304.15 393.61 302.37 394.57
  A 1.00 0.99 -40.7 0 0 302.24 396.24
  Q 303.22 396.97 304.44 397.08
  A 0.63 0.63 0.0 0 1 305.01 397.73
  Z
  M 476.3872 392.1213
  A 1.39 1.39 0.0 0 0 475.2766 390.4993
  L 471.3842 389.7709
  A 1.39 1.39 0.0 0 0 469.7622 390.8814
  L 469.7328 391.0387
  A 1.39 1.39 0.0 0 0 470.8434 392.6607
  L 474.7358 393.3891
  A 1.39 1.39 0.0 0 0 476.3578 392.2786
  L 476.3872 392.1213
  Z
  M 288.48 404.01
  A 0.66 0.66 0.0 0 1 289.56 403.31
  L 291.63 405.31
  Q 292.84 406.48 294.07 405.35
  L 294.63 404.84
  A 1.50 1.50 0.0 0 0 294.60 402.61
  L 292.85 401.09
  A 1.05 1.02 -68.6 0 1 292.49 400.24
  C 292.90 392.88 287.91 394.52 283.45 396.23
  A 1.93 1.93 0.0 0 0 282.31 398.69
  Q 283.58 402.21 285.14 405.84
  C 285.87 407.55 287.55 409.27 289.12 406.99
  A 1.01 1.01 0.0 0 0 289.24 406.05
  L 288.48 404.01
  Z
  M 274.5409 413.6375
  A 6.48 6.34 88.4 0 0 280.6975 406.9830
  A 6.48 6.34 88.4 0 0 274.1791 400.6825
  A 6.48 6.34 88.4 0 0 268.0225 407.3370
  A 6.48 6.34 88.4 0 0 274.5409 413.6375
  Z
  M 265.5966 412.6689
  A 1.40 1.40 0.0 0 0 263.7234 412.0276
  L 260.2032 413.7522
  A 1.40 1.40 0.0 0 0 259.5618 415.6253
  L 259.6234 415.7511
  A 1.40 1.40 0.0 0 0 261.4966 416.3924
  L 265.0168 414.6678
  A 1.40 1.40 0.0 0 0 265.6582 412.7947
  L 265.5966 412.6689
  Z"
/>
<path fill="#41714217" d="
  M 272.26 123.66
  Q 272.91 128.65 271.88 132.93
  Q 271.62 134.03 271.97 134.53
  Q 272.42 135.17 273.51 135.50
  C 284.86 142.38 298.44 146.95 311.29 150.08
  Q 352.70 160.17 395.19 156.82
  A 0.39 0.38 86.9 0 0 395.54 156.42
  C 395.18 147.08 395.14 116.49 408.00 114.01
  Q 411.45 113.35 414.87 115.21
  C 421.40 118.76 424.99 128.49 425.71 135.56
  L 426.30 150.61
  Q 426.64 151.00 426.31 151.99
  A 0.50 0.49 4.2 0 0 426.87 152.63
  C 433.64 151.48 440.08 149.64 446.66 147.74
  Q 447.69 147.44 448.74 147.51
  Q 449.95 147.58 449.80 149.05
  C 443.90 156.82 434.62 161.10 425.47 164.28
  Q 424.98 164.45 424.93 164.97
  C 423.50 179.12 422.06 191.19 417.40 206.22
  Q 416.77 208.28 418.42 210.64
  C 420.70 217.15 424.25 225.18 430.62 228.58
  C 438.49 232.77 447.96 233.22 454.96 227.07
  A 1.06 1.05 -35.6 0 1 456.57 227.33
  Q 456.98 228.04 456.94 228.97
  C 451.91 241.85 436.21 241.73 424.81 238.32
  Q 420.94 236.51 417.88 233.37
  Q 413.37 228.73 409.14 221.65
  Q 408.85 220.65 408.04 219.85
  Q 407.63 219.44 407.18 219.81
  C 398.64 226.99 388.60 232.12 377.51 233.86
  Q 362.14 236.26 351.87 225.33
  A 0.90 0.89 -49.4 0 0 350.48 225.44
  C 341.22 239.13 326.87 242.49 311.47 236.49
  Q 302.10 230.49 298.66 220.77
  C 297.74 218.17 297.90 216.93 295.35 215.42
  Q 292.31 213.62 288.95 211.04
  Q 289.84 211.31 288.92 210.82
  Q 288.75 210.73 288.73 210.92
  C 287.10 223.67 282.79 245.86 265.62 246.68
  Q 261.02 246.90 256.19 245.33
  L 249.71 237.93
  Q 249.73 237.11 248.24 235.52
  A 0.48 0.48 0.0 0 0 247.49 235.59
  C 244.33 240.59 241.00 245.32 236.12 248.85
  C 231.98 251.85 228.75 251.37 223.98 251.04
  C 215.45 245.51 211.50 235.64 209.08 226.24
  Q 207.07 218.44 205.05 210.23
  Q 204.79 209.26 204.37 208.82
  Q 203.99 208.41 203.03 208.61
  Q 198.79 209.49 194.44 210.48
  Q 191.40 208.15 193.31 204.77
  C 195.95 200.10 200.12 196.32 205.36 195.27
  C 214.01 193.53 217.92 201.60 219.11 208.52
  C 220.79 218.33 222.02 229.65 227.45 238.25
  A 1.63 1.63 0.0 0 0 230.01 238.50
  C 238.06 229.92 239.51 218.95 242.68 208.04
  C 243.80 204.18 245.54 197.68 248.90 196.20
  Q 249.38 195.99 249.86 196.22
  C 258.80 200.55 255.69 234.08 264.55 234.83
  C 267.58 235.08 270.39 231.71 271.41 229.19
  C 275.03 220.30 274.66 209.60 277.24 200.24
  C 278.17 196.85 281.62 189.22 286.54 193.99
  Q 291.38 198.70 297.52 202.13
  A 1.07 1.07 0.0 0 0 299.06 201.51
  Q 301.75 192.74 308.37 185.88
  C 317.07 176.87 333.14 177.53 338.41 190.23
  C 340.41 207.37 327.27 214.88 312.49 217.96
  A 0.66 0.66 0.0 0 0 311.98 218.77
  Q 312.28 219.90 313.11 220.28
  Q 313.62 221.17 314.16 221.62
  C 324.40 230.12 336.30 225.66 346.38 219.76
  Q 346.82 219.50 346.58 219.05
  Q 340.59 207.94 344.60 195.82
  C 348.42 184.28 358.44 175.97 371.02 177.49
  Q 378.72 178.42 383.13 186.76
  Q 382.79 188.09 383.28 191.00
  C 383.86 194.40 382.11 197.07 379.98 200.11
  Q 372.27 211.09 358.04 209.89
  A 0.88 0.88 0.0 0 0 357.21 211.22
  L 358.20 212.89
  C 368.76 230.41 392.49 218.53 402.69 207.42
  A 0.68 0.66 -32.6 0 0 402.84 206.79
  Q 398.02 190.14 396.23 172.21
  Q 395.89 171.83 395.90 171.12
  Q 395.91 169.91 394.69 169.96
  C 369.00 171.08 345.02 168.35 320.50 162.66
  C 311.81 160.64 305.27 157.70 297.69 154.94
  Q 294.97 153.94 291.92 152.56
  Q 289.09 151.28 286.17 150.11
  Q 278.80 146.70 272.07 141.73
  Q 270.56 139.64 268.46 138.45
  A 0.83 0.82 40.7 0 0 267.55 138.51
  Q 260.85 143.78 252.23 139.93
  C 241.90 132.04 239.74 117.69 240.35 105.43
  Q 240.38 104.93 240.87 105.00
  C 253.13 106.89 266.40 111.84 272.26 123.66
  Z
  M 256.65 125.31
  Q 257.15 125.15 258.02 125.71
  Q 261.05 127.67 264.48 130.25
  Q 265.83 131.27 265.49 129.61
  C 263.90 122.04 255.57 117.14 248.59 114.63
  Q 248.06 114.44 248.21 114.98
  C 250.94 125.29 251.80 133.57 264.17 135.80
  Q 265.19 135.99 264.39 135.32
  Q 259.67 131.41 256.29 126.35
  Q 255.78 125.58 256.65 125.31
  Z
  M 408.62 155.25
  Q 410.52 155.61 413.45 154.89
  A 0.67 0.66 84.2 0 0 413.95 154.27
  C 414.22 146.84 414.38 138.21 412.01 131.44
  Q 411.81 129.69 410.91 128.56
  Q 410.48 128.01 410.29 128.69
  Q 406.76 141.45 408.62 155.25
  Z
  M 409.69 168.23
  Q 408.96 170.62 409.98 174.24
  L 410.34 180.15
  Q 410.46 182.12 411.03 180.23
  Q 412.73 174.57 412.49 168.67
  Q 412.46 168.12 411.91 168.14
  L 409.69 168.23
  Z
  M 358.08 203.73
  Q 368.47 202.56 372.63 192.34
  Q 373.10 191.52 371.79 190.42
  C 367.37 186.69 360.41 192.37 358.43 196.21
  C 357.12 198.75 356.09 200.70 355.96 203.32
  Q 355.93 203.87 356.48 203.93
  Q 357.39 204.03 358.08 203.73
  Z
  M 312.98 204.03
  C 318.53 203.97 324.28 200.43 326.38 195.31
  C 326.67 192.06 322.54 191.25 320.19 192.14
  C 315.88 193.78 312.91 198.99 311.61 203.14
  A 0.89 0.89 0.0 0 0 312.19 204.26
  Q 312.61 204.40 312.98 204.03
  Z"
/>
<path fill="#41714217" d="
  M 293.52 121.24
  Q 293.36 124.63 293.08 127.88
  C 292.68 132.48 289.15 137.37 284.00 136.44
  Q 281.77 136.04 281.14 136.57
  C 270.14 128.44 281.85 117.55 289.06 113.21
  A 0.97 0.96 63.2 0 1 290.45 113.67
  L 293.52 121.24
  Z
  M 284.68 132.30
  Q 287.95 129.57 287.91 124.92
  Q 288.00 123.44 287.43 121.57
  A 0.42 0.42 0.0 0 0 286.76 121.37
  C 283.52 124.02 281.08 128.69 282.99 132.83
  A 0.66 0.66 0.0 0 0 283.67 133.21
  Q 284.69 133.09 284.68 132.30
  Z"
/>
<path fill="#ffffff00" d="
  M 256.65 125.31
  Q 255.78 125.58 256.29 126.35
  Q 259.67 131.41 264.39 135.32
  Q 265.19 135.99 264.17 135.80
  C 251.80 133.57 250.94 125.29 248.21 114.98
  Q 248.06 114.44 248.59 114.63
  C 255.57 117.14 263.90 122.04 265.49 129.61
  Q 265.83 131.27 264.48 130.25
  Q 261.05 127.67 258.02 125.71
  Q 257.15 125.15 256.65 125.31
  Z"
/>
<path fill="#9cbc4e17" d="
  M 287.91 124.92
  Q 282.85 128.43 284.68 132.30
  Q 284.69 133.09 283.67 133.21
  A 0.66 0.66 0.0 0 1 282.99 132.83
  C 281.08 128.69 283.52 124.02 286.76 121.37
  A 0.42 0.42 0.0 0 1 287.43 121.57
  Q 288.00 123.44 287.91 124.92
  Z"
/>
<path fill="#9cbc4e17" d="
  M 293.52 121.24
  Q 295.32 125.56 294.93 130.25
  C 294.32 137.75 287.49 142.00 281.14 136.57
  Q 281.77 136.04 284.00 136.44
  C 289.15 137.37 292.68 132.48 293.08 127.88
  Q 293.36 124.63 293.52 121.24
  Z"
/>
<path fill="#9cbc4e17" d="
  M 272.26 123.66
  Q 275.24 128.80 273.51 135.50
  Q 272.42 135.17 271.97 134.53
  Q 271.62 134.03 271.88 132.93
  Q 272.91 128.65 272.26 123.66
  Z"
/>
<path fill="#ffffff00" d="
  M 287.91 124.92
  Q 287.95 129.57 284.68 132.30
  Q 282.85 128.43 287.91 124.92
  Z"
/>
<path fill="#9cbc4e17" d="
  M 412.01 131.44
  Q 410.95 131.19 410.82 132.25
  Q 409.47 143.40 408.62 155.25
  Q 406.76 141.45 410.29 128.69
  Q 410.48 128.01 410.91 128.56
  Q 411.81 129.69 412.01 131.44
  Z"
/>
<path fill="#41714217" d="
  M 184.77 156.94
  Q 183.74 166.50 177.80 172.97
  L 176.74 174.16
  Q 175.79 174.96 175.29 174.85
  Q 173.99 174.80 173.08 174.14
  A 0.86 0.84 22.7 0 1 172.73 173.32
  C 173.88 165.41 175.61 157.27 167.78 151.93
  Q 163.97 149.34 159.42 148.49
  Q 155.73 146.41 151.25 146.17
  C 140.12 145.56 124.12 148.30 118.70 159.71
  Q 115.68 166.07 119.07 172.69
  C 122.07 179.14 130.16 182.14 136.46 184.08
  C 158.21 190.79 185.44 196.01 191.54 222.48
  C 192.59 246.13 176.28 266.23 153.00 268.79
  Q 141.07 270.10 127.08 267.69
  Q 116.89 263.93 109.76 255.99
  Q 97.07 241.87 98.35 222.66
  Q 98.47 220.80 99.29 219.51
  A 1.57 1.56 39.6 0 1 101.76 219.28
  C 105.78 223.61 108.15 230.10 110.99 235.27
  C 118.95 249.78 132.06 254.22 147.99 253.56
  Q 166.16 252.82 173.84 238.45
  C 179.45 227.96 176.51 216.41 166.18 210.32
  C 147.91 199.54 124.19 201.38 109.05 184.47
  C 98.20 172.35 101.68 152.62 113.20 142.35
  C 129.80 127.54 160.23 125.51 177.09 141.65
  Q 183.78 148.06 184.77 156.94
  Z"
/>
<path fill="#ffffff00" d="
  M 412.01 131.44
  C 414.38 138.21 414.22 146.84 413.95 154.27
  A 0.67 0.66 84.2 0 1 413.45 154.89
  Q 410.52 155.61 408.62 155.25
  Q 409.47 143.40 410.82 132.25
  Q 410.95 131.19 412.01 131.44
  Z"
/>
<path fill="#9cbc4e17" d="
  M 425.71 135.56
  Q 427.32 141.73 427.04 148.75
  Q 426.99 150.13 426.30 150.61
  L 425.71 135.56
  Z"
/>
<path fill="#9cbc4e17" d="
  M 272.07 141.73
  Q 267.65 139.98 268.13 142.67
  Q 264.21 142.52 261.26 144.49
  Q 258.38 143.54 255.50 142.86
  Q 253.47 142.39 252.23 139.93
  Q 260.85 143.78 267.55 138.51
  A 0.83 0.82 40.7 0 1 268.46 138.45
  Q 270.56 139.64 272.07 141.73
  Z"
/>
<path fill="#41714217" d="
  M 268.13 142.67
  Q 274.81 144.70 277.27 149.90
  C 277.64 157.31 275.17 161.25 269.26 165.55
  Q 264.34 169.13 256.24 171.69
  Q 254.60 164.76 255.32 156.26
  Q 255.92 149.24 261.26 144.49
  Q 264.21 142.52 268.13 142.67
  Z
  M 264.28 160.91
  Q 269.13 157.52 270.64 151.79
  L 270.69 147.90
  A 0.82 0.82 0.0 0 0 269.47 147.17
  Q 261.73 151.54 261.33 160.56
  A 1.17 1.17 0.0 0 0 263.10 161.62
  L 264.28 160.91
  Z"
/>
<path fill="#9cbc4e17" d="
  M 159.42 148.49
  C 142.93 146.05 117.39 150.92 119.07 172.69
  Q 115.68 166.07 118.70 159.71
  C 124.12 148.30 140.12 145.56 151.25 146.17
  Q 155.73 146.41 159.42 148.49
  Z"
/>
<path fill="#9cbc4e17" d="
  M 270.64 151.79
  Q 270.67 150.72 269.84 150.69
  A 0.74 0.72 -62.0 0 0 269.37 150.84
  Q 264.61 154.51 263.71 160.27
  Q 263.63 160.74 264.28 160.91
  L 263.10 161.62
  A 1.17 1.17 0.0 0 1 261.33 160.56
  Q 261.73 151.54 269.47 147.17
  A 0.82 0.82 0.0 0 1 270.69 147.90
  L 270.64 151.79
  Z"
/>
<path fill="#9cbc4e17" d="
  M 449.80 149.05
  Q 452.39 150.73 450.23 153.23
  C 444.47 159.88 436.21 163.78 428.09 166.30
  A 2.27 2.25 84.4 0 0 426.51 168.24
  C 426.10 172.43 426.07 176.51 425.28 180.70
  C 423.41 190.61 421.96 199.60 418.42 210.64
  Q 416.77 208.28 417.40 206.22
  C 422.06 191.19 423.50 179.12 424.93 164.97
  Q 424.98 164.45 425.47 164.28
  C 434.62 161.10 443.90 156.82 449.80 149.05
  Z"
/>
<path fill="#9cbc4e17" d="
  M 277.27 149.90
  C 284.86 161.15 268.85 170.91 260.12 173.67
  C 257.95 174.36 257.36 173.30 256.24 171.69
  Q 264.34 169.13 269.26 165.55
  C 275.17 161.25 277.64 157.31 277.27 149.90
  Z"
/>
<path fill="#9cbc4e17" d="
  M 286.17 150.11
  Q 289.09 151.28 291.92 152.56
  Q 294.97 153.94 297.69 154.94
  C 305.27 157.70 311.81 160.64 320.50 162.66
  C 345.02 168.35 369.00 171.08 394.69 169.96
  Q 395.91 169.91 395.90 171.12
  Q 395.89 171.83 396.23 172.21
  Q 363.45 174.10 331.00 166.99
  C 318.69 164.29 306.74 160.71 295.53 155.43
  Q 291.54 153.55 287.51 151.75
  Q 286.14 151.14 286.17 150.11
  Z"
/>
<path fill="#ffffff00" d="
  M 270.64 151.79
  Q 269.13 157.52 264.28 160.91
  Q 263.63 160.74 263.71 160.27
  Q 264.61 154.51 269.37 150.84
  A 0.74 0.72 -62.0 0 1 269.84 150.69
  Q 270.67 150.72 270.64 151.79
  Z"
/>
<path fill="#9cbc4e17" d="
  M 184.77 156.94
  C 186.43 163.67 183.63 172.82 177.29 176.42
  Q 176.76 176.72 176.23 176.41
  Q 175.54 176.01 175.29 174.85
  Q 175.79 174.96 176.74 174.16
  Q 177.31 174.86 178.24 173.80
  A 0.45 0.44 33.0 0 0 178.09 173.10
  L 177.80 172.97
  Q 183.74 166.50 184.77 156.94
  Z"
/>
<path fill="#ffffff00" d="
  M 409.98 174.24
  Q 410.46 171.02 409.69 168.23
  L 411.91 168.14
  Q 412.46 168.12 412.49 168.67
  Q 412.73 174.57 411.03 180.23
  Q 410.46 182.12 410.34 180.15
  L 409.98 174.24
  Z"
/>
<path fill="#9cbc4e17" d="
  M 409.69 168.23
  Q 410.46 171.02 409.98 174.24
  Q 408.96 170.62 409.69 168.23
  Z"
/>
<path fill="#ffffff00" d="
  M 177.80 172.97
  L 178.09 173.10
  A 0.45 0.44 33.0 0 1 178.24 173.80
  Q 177.31 174.86 176.74 174.16
  L 177.80 172.97
  Z"
/>
<path fill="#9cbc4e17" d="
  M 383.13 186.76
  Q 387.89 194.53 381.70 202.72
  Q 372.98 214.27 358.82 212.08
  Q 358.34 212.01 358.15 212.45
  Q 358.05 212.69 358.20 212.89
  L 357.21 211.22
  A 0.88 0.88 0.0 0 1 358.04 209.89
  Q 372.27 211.09 379.98 200.11
  C 382.11 197.07 383.86 194.40 383.28 191.00
  Q 382.79 188.09 383.13 186.76
  Z"
/>
<path fill="#9cbc4e17" d="
  M 372.63 192.34
  Q 366.35 190.82 361.83 196.34
  Q 359.16 199.59 358.08 203.73
  Q 357.39 204.03 356.48 203.93
  Q 355.93 203.87 355.96 203.32
  C 356.09 200.70 357.12 198.75 358.43 196.21
  C 360.41 192.37 367.37 186.69 371.79 190.42
  Q 373.10 191.52 372.63 192.34
  Z"
/>
<path fill="#9cbc4e17" d="
  M 338.41 190.23
  Q 342.71 197.42 338.83 204.80
  C 333.62 214.71 324.03 219.51 313.11 220.28
  Q 312.28 219.90 311.98 218.77
  A 0.66 0.66 0.0 0 1 312.49 217.96
  C 327.27 214.88 340.41 207.37 338.41 190.23
  Z"
/>
<path fill="#9cbc4e17" d="
  M 326.38 195.31
  Q 326.38 194.81 326.24 194.52
  Q 326.10 194.24 325.62 194.24
  C 318.25 194.21 316.57 199.74 312.98 204.03
  Q 312.61 204.40 312.19 204.26
  A 0.89 0.89 0.0 0 1 311.61 203.14
  C 312.91 198.99 315.88 193.78 320.19 192.14
  C 322.54 191.25 326.67 192.06 326.38 195.31
  Z"
/>
<path fill="#ffffff00" d="
  M 372.63 192.34
  Q 368.47 202.56 358.08 203.73
  Q 359.16 199.59 361.83 196.34
  Q 366.35 190.82 372.63 192.34
  Z"
/>
<path fill="#ffffff00" d="
  M 326.38 195.31
  C 324.28 200.43 318.53 203.97 312.98 204.03
  C 316.57 199.74 318.25 194.21 325.62 194.24
  Q 326.10 194.24 326.24 194.52
  Q 326.38 194.81 326.38 195.31
  Z"
/>
<path fill="#9cbc4e17" d="
  M 205.05 210.23
  Q 197.88 213.51 194.44 210.48
  Q 198.79 209.49 203.03 208.61
  Q 203.99 208.41 204.37 208.82
  Q 204.79 209.26 205.05 210.23
  Z"
/>
<path fill="#9cbc4e17" d="
  M 288.95 211.04
  Q 290.45 213.91 290.14 216.00
  C 288.59 226.55 286.25 237.57 278.24 244.60
  Q 267.91 253.66 256.19 245.33
  Q 261.02 246.90 265.62 246.68
  C 282.79 245.86 287.10 223.67 288.73 210.92
  Q 288.75 210.73 288.92 210.82
  Q 289.84 211.31 288.95 211.04
  Z"
/>
<path fill="#9cbc4e17" d="
  M 409.14 221.65
  Q 406.06 224.85 402.64 227.13
  C 389.48 235.89 371.73 241.04 357.42 231.70
  C 356.00 230.77 354.37 230.10 353.41 228.40
  A 0.76 0.76 0.0 0 0 352.13 228.35
  C 343.30 241.34 324.58 247.58 311.47 236.49
  C 326.87 242.49 341.22 239.13 350.48 225.44
  A 0.90 0.89 -49.4 0 1 351.87 225.33
  Q 362.14 236.26 377.51 233.86
  C 388.60 232.12 398.64 226.99 407.18 219.81
  Q 407.63 219.44 408.04 219.85
  Q 408.85 220.65 409.14 221.65
  Z"
/>
<path fill="#9cbc4e17" d="
  M 191.54 222.48
  C 197.15 245.04 180.76 266.50 158.64 270.37
  Q 150.97 271.72 142.83 271.41
  Q 134.41 271.08 127.08 267.69
  Q 141.07 270.10 153.00 268.79
  C 176.28 266.23 192.59 246.13 191.54 222.48
  Z"
/>
<path fill="#9cbc4e17" d="
  M 456.94 228.97
  Q 458.77 230.04 458.17 231.99
  C 455.38 241.02 445.25 242.92 437.20 242.48
  Q 430.52 242.11 424.81 238.32
  C 436.21 241.73 451.91 241.85 456.94 228.97
  Z"
/>
<path fill="#9cbc4e17" d="
  M 249.71 237.93
  Q 247.35 241.02 245.21 244.23
  Q 241.64 249.56 236.12 252.43
  C 231.79 254.68 227.74 253.72 223.98 251.04
  C 228.75 251.37 231.98 251.85 236.12 248.85
  C 241.00 245.32 244.33 240.59 247.49 235.59
  A 0.48 0.48 0.0 0 1 248.24 235.52
  Q 249.73 237.11 249.71 237.93
  Z"
/>
<path fill="#41714217" d="
  M 363.03 260.56
  Q 363.63 273.27 363.30 276.75
  Q 362.70 283.01 363.08 286.60
  Q 374.05 285.79 377.01 285.99
  Q 379.99 286.18 380.47 289.46
  C 377.13 293.30 375.77 295.69 369.96 297.64
  Q 365.08 299.27 360.12 299.95
  A 1.17 1.17 0.0 0 0 359.11 301.02
  Q 358.95 302.92 358.20 304.94
  Q 354.67 314.38 353.26 324.28
  Q 360.63 329.99 368.30 326.33
  C 373.57 323.81 382.54 310.16 383.08 304.01
  C 384.35 289.67 385.41 279.69 382.65 266.86
  C 381.32 260.65 379.21 253.88 379.43 247.49
  Q 379.54 244.39 382.72 245.09
  C 390.59 246.84 394.95 259.31 396.11 266.36
  Q 398.01 277.88 396.81 289.58
  C 396.65 291.08 396.13 292.15 395.65 293.62
  Q 395.40 294.38 396.03 293.89
  Q 397.28 292.93 400.19 290.68
  C 409.94 283.15 422.82 285.93 427.08 297.72
  C 427.78 307.63 424.93 315.03 422.31 323.75
  Q 421.38 326.87 422.46 328.71
  Q 424.22 329.25 426.02 328.76
  Q 436.65 325.89 445.37 318.34
  A 1.07 1.07 0.0 0 1 447.04 318.70
  Q 447.26 319.17 446.85 319.79
  Q 439.65 332.71 425.51 336.95
  Q 420.81 338.35 415.93 336.02
  Q 410.66 330.83 412.13 322.74
  Q 413.64 314.51 415.16 306.25
  Q 415.70 303.30 414.55 301.28
  C 413.76 297.66 408.31 300.28 406.53 301.80
  C 402.87 304.93 393.56 314.14 393.85 319.24
  C 394.25 325.98 393.54 344.60 385.22 346.46
  C 382.07 342.57 381.47 338.69 380.77 333.98
  L 380.54 330.78
  Q 380.52 330.48 380.63 330.19
  Q 380.76 329.82 380.60 329.48
  Q 380.32 328.92 379.93 329.40
  C 375.21 335.19 370.76 338.75 363.01 339.49
  Q 353.68 340.37 346.54 335.09
  A 1.09 1.08 39.1 0 0 345.10 335.23
  Q 343.56 336.90 341.87 338.64
  Q 331.05 349.77 314.13 345.74
  C 303.19 335.81 305.52 323.68 306.00 311.03
  Q 306.02 310.47 305.47 310.60
  C 301.10 311.66 295.08 309.13 291.33 307.02
  Q 290.77 306.71 290.91 307.33
  L 294.29 322.53
  C 293.59 329.66 295.25 336.24 293.22 342.85
  C 289.88 353.70 281.12 359.30 269.69 357.09
  Q 267.08 356.59 264.33 356.10
  L 261.30 353.63
  Q 261.00 353.06 260.59 352.82
  Q 260.12 352.54 259.76 352.97
  C 255.28 358.32 252.15 363.35 244.38 364.22
  Q 237.82 364.96 230.92 362.70
  Q 224.70 357.84 222.33 351.43
  Q 219.54 343.93 221.22 335.00
  Q 225.28 313.46 245.01 304.26
  C 250.93 301.49 259.28 301.59 264.14 306.90
  C 265.04 307.89 265.40 308.01 266.65 308.22
  Q 267.12 308.29 267.32 308.73
  Q 268.19 310.66 268.19 312.00
  Q 268.14 319.70 267.06 330.30
  C 266.59 334.87 266.50 339.55 268.43 343.03
  C 269.30 344.61 272.18 345.06 274.00 345.13
  C 280.63 345.39 281.26 336.76 281.38 332.00
  Q 281.68 320.48 280.64 309.00
  C 280.27 304.93 278.68 302.14 277.05 298.55
  C 276.34 296.97 276.09 295.37 276.30 293.79
  A 1.34 1.34 0.0 0 1 278.40 292.87
  Q 280.70 294.49 283.56 295.31
  Q 295.38 298.69 311.25 298.21
  C 320.71 297.92 320.13 307.71 319.59 314.57
  Q 319.52 315.41 319.50 314.58
  Q 319.49 314.44 319.52 314.25
  Q 319.54 314.15 319.52 314.05
  Q 319.44 313.72 319.42 314.07
  C 319.14 320.18 318.42 326.54 319.97 332.51
  A 2.11 2.11 0.0 0 0 321.61 334.04
  C 327.76 335.18 334.59 330.44 337.40 324.66
  Q 337.65 324.16 337.41 323.65
  Q 332.15 312.13 331.23 299.48
  A 2.10 2.10 0.0 0 0 329.42 297.55
  C 323.65 296.74 316.43 293.29 312.84 288.70
  A 0.58 0.58 0.0 0 1 313.06 287.81
  Q 314.39 287.22 316.00 287.33
  Q 322.63 287.76 329.93 288.06
  Q 330.77 288.10 330.75 287.26
  C 330.56 276.12 332.91 244.53 346.23 240.35
  C 357.14 236.93 362.19 252.10 363.03 260.56
  Z
  M 343.61 286.80
  Q 343.18 288.89 349.35 287.79
  A 1.12 1.12 0.0 0 0 350.26 286.90
  Q 353.18 271.49 349.73 255.81
  Q 349.41 254.70 348.86 254.19
  Q 348.41 253.78 348.18 254.34
  C 343.75 265.14 342.98 275.02 343.61 286.80
  Z
  M 346.10 299.64
  L 344.76 299.71
  A 0.21 0.21 0.0 0 0 344.56 299.93
  L 344.59 300.45
  A 4.97 0.77 87.0 0 0 345.62 305.37
  L 345.84 305.36
  A 4.97 0.77 87.0 0 0 346.35 300.36
  L 346.32 299.84
  A 0.21 0.21 0.0 0 0 346.10 299.64
  Z
  M 234.30 344.57
  C 234.27 352.90 243.91 355.18 248.14 348.82
  C 254.92 338.63 254.33 324.52 255.14 312.87
  Q 255.43 311.82 255.34 310.84
  A 0.73 0.72 73.1 0 0 254.28 310.27
  Q 239.16 318.33 234.69 334.47
  Q 233.14 340.05 234.30 344.57
  Z"
/>
<path fill="#9cbc4e17" d="
  M 349.73 255.81
  Q 347.12 262.85 346.39 266.25
  Q 344.77 273.89 343.61 286.80
  C 342.98 275.02 343.75 265.14 348.18 254.34
  Q 348.41 253.78 348.86 254.19
  Q 349.41 254.70 349.73 255.81
  Z"
/>
<path fill="#ffffff00" d="
  M 349.73 255.81
  Q 353.18 271.49 350.26 286.90
  A 1.12 1.12 0.0 0 1 349.35 287.79
  Q 343.18 288.89 343.61 286.80
  Q 344.77 273.89 346.39 266.25
  Q 347.12 262.85 349.73 255.81
  Z"
/>
<path fill="#9cbc4e17" d="
  M 363.03 260.56
  C 364.16 268.30 365.33 279.03 363.08 286.60
  Q 362.70 283.01 363.30 276.75
  Q 363.63 273.27 363.03 260.56
  Z"
/>
<path fill="#41714217" d="
  M 218.54 288.16
  Q 220.41 295.35 218.02 300.50
  C 210.07 317.59 185.04 315.55 170.48 312.10
  C 168.17 311.56 165.43 310.25 162.70 309.73
  L 155.99 306.73
  Q 155.67 305.79 154.04 305.28
  Q 153.55 305.13 153.33 305.59
  Q 148.53 315.50 153.07 324.97
  Q 156.26 331.31 163.14 333.53
  Q 165.16 334.18 168.47 333.84
  C 176.27 333.06 190.48 333.17 195.63 340.82
  Q 195.24 348.62 189.06 349.91
  Q 179.30 351.94 166.70 349.49
  Q 164.21 349.01 161.99 350.25
  Q 150.06 356.92 147.01 369.91
  C 145.94 374.50 145.51 382.32 147.95 386.51
  C 151.96 401.92 172.51 409.93 187.12 408.23
  C 200.96 406.63 211.77 399.69 219.40 388.18
  C 223.42 382.12 225.78 375.35 229.61 369.16
  A 1.61 1.28 26.3 0 1 231.46 368.76
  Q 231.76 368.89 232.37 370.10
  C 234.28 393.49 220.16 414.35 197.77 421.40
  Q 185.06 425.39 174.75 423.57
  Q 170.54 422.82 168.30 422.82
  C 147.45 417.37 130.09 399.94 131.08 377.25
  Q 132.01 355.82 148.20 342.24
  Q 148.58 341.92 148.20 341.60
  C 135.79 331.16 134.14 314.95 139.85 300.29
  Q 140.55 298.49 142.91 293.72
  A 1.03 1.03 0.0 0 0 142.91 292.80
  C 140.77 288.65 139.32 282.33 140.81 277.87
  A 1.28 1.28 0.0 0 1 143.09 277.56
  L 148.21 285.19
  A 0.83 0.83 0.0 0 0 149.49 285.31
  C 165.10 269.45 189.28 265.53 208.57 277.14
  Q 214.73 280.85 218.54 288.16
  Z
  M 163.71 296.29
  C 173.00 299.01 195.79 302.86 203.12 294.89
  A 1.20 1.20 0.0 0 0 203.12 293.25
  Q 200.83 290.80 198.04 289.73
  C 186.90 282.24 170.40 285.01 161.32 294.64
  Q 160.84 295.15 161.49 295.40
  L 163.71 296.29
  Z"
/>
<path fill="#9cbc4e17" d="
  M 198.04 289.73
  Q 178.95 283.43 163.71 296.29
  L 161.49 295.40
  Q 160.84 295.15 161.32 294.64
  C 170.40 285.01 186.90 282.24 198.04 289.73
  Z"
/>
<path fill="#ffffff00" d="
  M 198.04 289.73
  Q 200.83 290.80 203.12 293.25
  A 1.20 1.20 0.0 0 1 203.12 294.89
  C 195.79 302.86 173.00 299.01 163.71 296.29
  Q 178.95 283.43 198.04 289.73
  Z"
/>
<path fill="#9cbc4e17" d="
  M 218.54 288.16
  C 227.13 303.69 212.20 315.00 198.25 316.21
  Q 180.44 317.75 163.88 311.11
  A 0.03 0.03 0.0 0 1 163.88 311.06
  L 164.13 310.94
  Q 164.16 310.92 164.03 310.90
  Q 163.09 310.73 162.70 309.73
  C 165.43 310.25 168.17 311.56 170.48 312.10
  C 185.04 315.55 210.07 317.59 218.02 300.50
  Q 220.41 295.35 218.54 288.16
  Z"
/>
<path fill="#9cbc4e17" d="
  M 380.47 289.46
  Q 381.70 291.06 380.77 293.04
  C 377.92 299.16 367.81 301.88 361.84 302.15
  A 1.70 1.69 2.2 0 0 360.24 303.62
  Q 358.79 314.54 353.26 324.28
  Q 354.67 314.38 358.20 304.94
  Q 358.95 302.92 359.11 301.02
  A 1.17 1.17 0.0 0 1 360.12 299.95
  Q 365.08 299.27 369.96 297.64
  C 375.77 295.69 377.13 293.30 380.47 289.46
  Z"
/>
<path fill="#9cbc4e17" d="
  M 427.08 297.72
  C 431.01 307.33 426.02 319.40 422.46 328.71
  Q 421.38 326.87 422.31 323.75
  C 424.93 315.03 427.78 307.63 427.08 297.72
  Z"
/>
<path fill="#ffffff00" d="
  M 346.10 299.64
  A 0.21 0.21 0.0 0 1 346.32 299.84
  L 346.35 300.36
  A 4.97 0.77 87.0 0 1 345.84 305.36
  L 345.62 305.37
  A 4.97 0.77 87.0 0 1 344.59 300.45
  L 344.56 299.93
  A 0.21 0.21 0.0 0 1 344.76 299.71
  L 346.10 299.64
  Z"
/>
<path fill="#9cbc4e17" d="
  M 414.55 301.28
  C 405.74 302.31 400.87 311.80 395.84 317.61
  Q 394.90 318.69 395.03 321.50
  Q 395.31 327.51 394.69 333.49
  C 394.28 337.44 392.19 347.97 387.56 348.57
  A 1.16 1.16 0.0 0 1 386.70 348.33
  Q 385.68 347.52 385.22 346.46
  C 393.54 344.60 394.25 325.98 393.85 319.24
  C 393.56 314.14 402.87 304.93 406.53 301.80
  C 408.31 300.28 413.76 297.66 414.55 301.28
  Z"
/>
<path fill="#9cbc4e17" d="
  M 155.99 306.73
  Q 152.24 314.64 153.07 324.97
  Q 148.53 315.50 153.33 305.59
  Q 153.55 305.13 154.04 305.28
  Q 155.67 305.79 155.99 306.73
  Z"
/>
<path fill="#9cbc4e17" d="
  M 255.14 312.87
  Q 236.70 323.20 234.30 344.57
  Q 233.14 340.05 234.69 334.47
  Q 239.16 318.33 254.28 310.27
  A 0.73 0.72 73.1 0 1 255.34 310.84
  Q 255.43 311.82 255.14 312.87
  Z"
/>
<path fill="#ffffff00" d="
  M 255.14 312.87
  C 254.33 324.52 254.92 338.63 248.14 348.82
  C 243.91 355.18 234.27 352.90 234.30 344.57
  Q 236.70 323.20 255.14 312.87
  Z"
/>
<path fill="#9cbc4e17" d="
  M 446.85 319.79
  L 447.90 320.91
  Q 448.24 321.28 448.13 321.77
  C 445.99 331.12 424.27 346.52 415.93 336.02
  Q 420.81 338.35 425.51 336.95
  Q 439.65 332.71 446.85 319.79
  Z"
/>
<path fill="#9cbc4e17" d="
  M 294.29 322.53
  C 296.40 336.26 296.05 355.54 281.27 359.29
  Q 272.31 361.57 264.33 356.10
  Q 267.08 356.59 269.69 357.09
  C 281.12 359.30 289.88 353.70 293.22 342.85
  C 295.25 336.24 293.59 329.66 294.29 322.53
  Z"
/>
<path fill="#9cbc4e17" d="
  M 380.77 333.98
  L 380.32 333.79
  Q 379.83 333.59 379.50 334.00
  C 371.78 343.32 357.74 344.55 348.42 337.46
  A 1.41 1.41 0.0 0 0 346.58 337.57
  Q 345.29 338.83 343.73 340.46
  Q 330.16 354.60 314.13 345.74
  Q 331.05 349.77 341.87 338.64
  Q 343.56 336.90 345.10 335.23
  A 1.09 1.08 39.1 0 1 346.54 335.09
  Q 353.68 340.37 363.01 339.49
  C 370.76 338.75 375.21 335.19 379.93 329.40
  Q 380.32 328.92 380.60 329.48
  Q 380.76 329.82 380.63 330.19
  Q 380.52 330.48 380.54 330.78
  L 380.77 333.98
  Z"
/>
<path fill="#9cbc4e17" d="
  M 195.63 340.82
  Q 200.64 350.67 189.23 352.18
  Q 180.44 353.34 169.93 351.61
  Q 167.49 351.21 165.61 351.92
  C 152.13 357.02 146.41 372.92 147.95 386.51
  C 145.51 382.32 145.94 374.50 147.01 369.91
  Q 150.06 356.92 161.99 350.25
  Q 164.21 349.01 166.70 349.49
  Q 179.30 351.94 189.06 349.91
  Q 195.24 348.62 195.63 340.82
  Z"
/>
<path fill="#9cbc4e17" d="
  M 261.30 353.63
  Q 260.64 353.97 260.62 355.58
  Q 260.61 356.11 260.31 356.54
  Q 248.77 373.23 230.92 362.70
  Q 237.82 364.96 244.38 364.22
  C 252.15 363.35 255.28 358.32 259.76 352.97
  Q 260.12 352.54 260.59 352.82
  Q 261.00 353.06 261.30 353.63
  Z"
/>
<path fill="#9cbc4e17" d="
  M 232.37 370.10
  C 237.62 374.20 232.73 391.20 230.79 395.83
  C 220.94 419.36 195.37 430.27 171.02 424.16
  Q 169.11 423.68 168.30 422.82
  Q 170.54 422.82 174.75 423.57
  Q 185.06 425.39 197.77 421.40
  C 220.16 414.35 234.28 393.49 232.37 370.10
  Z"
/>
<path fill="#41714217" d="
  M 387.76 385.25
  L 387.76 386.57
  A 1.21 1.21 0.0 0 1 386.43 387.77
  L 385.25 387.66
  A 1.36 1.35 -87.4 0 1 384.03 386.32
  L 383.98 377.49
  A 2.20 2.19 -3.5 0 1 385.92 375.30
  C 388.34 375.01 392.69 375.29 393.85 377.90
  C 394.89 380.26 391.94 381.75 393.16 383.96
  Q 394.04 385.56 394.05 385.60
  Q 394.36 387.18 392.66 387.71
  A 2.16 2.16 0.0 0 1 390.02 386.43
  Q 389.60 385.35 389.32 384.79
  Q 387.76 381.68 387.76 385.25
  Z
  M 389.7315 380.2161
  A 1.32 1.11 39.3 0 0 389.4131 378.5210
  A 1.32 1.11 39.3 0 0 387.6885 378.5439
  A 1.32 1.11 39.3 0 0 388.0069 380.2390
  A 1.32 1.11 39.3 0 0 389.7315 380.2161
  Z"
/>
<path fill="#41714217" d="
  M 410.51 381.83
  A 6.47 6.47 0.0 0 1 404.04 388.30
  A 6.47 6.47 0.0 0 1 397.57 381.83
  A 6.47 6.47 0.0 0 1 404.04 375.36
  A 6.47 6.47 0.0 0 1 410.51 381.83
  Z
  M 403.9065 385.0992
  A 3.24 2.43 91.3 0 0 406.4094 381.9151
  A 3.24 2.43 91.3 0 0 404.0535 378.6208
  A 3.24 2.43 91.3 0 0 401.5506 381.8049
  A 3.24 2.43 91.3 0 0 403.9065 385.0992
  Z"
/>
<path fill="#41714217" d="
  M 374.57 384.78
  L 374.37 386.70
  Q 374.22 388.12 372.80 388.11
  L 371.98 388.11
  Q 370.60 388.11 370.55 386.73
  L 370.25 377.52
  A 1.42 1.42 0.0 0 1 371.29 376.10
  C 373.63 375.44 379.44 375.15 379.83 378.84
  Q 380.36 383.94 375.22 384.16
  A 0.69 0.69 0.0 0 0 374.57 384.78
  Z
  M 376.18 380.04
  A 1.16 1.16 0.0 0 0 375.02 378.88
  A 1.16 1.16 0.0 0 0 373.86 380.04
  A 1.16 1.16 0.0 0 0 375.02 381.20
  A 1.16 1.16 0.0 0 0 376.18 380.04
  Z"
/>
<path fill="#41714217" d="
  M 414.75 378.13
  A 1.99 1.99 0.0 0 1 416.87 376.29
  L 420.16 376.52
  A 6.06 5.46 4.0 0 1 425.82 382.39
  L 425.71 383.94
  A 6.06 5.46 4.0 0 1 419.29 388.97
  L 416.00 388.74
  A 1.99 1.99 0.0 0 1 414.16 386.61
  L 414.75 378.13
  Z
  M 418.60 379.80
  L 418.17 385.50
  A 0.36 0.36 0.0 0 0 418.50 385.89
  L 418.76 385.91
  A 2.84 2.76 4.3 0 0 421.80 383.37
  L 421.87 382.45
  A 2.84 2.76 4.3 0 0 419.24 379.49
  L 418.99 379.47
  A 0.36 0.36 0.0 0 0 418.60 379.80
  Z"
/>
<path fill="#41714217" d="
  M 354.56 380.99
  C 353.24 382.61 353.85 385.48 355.78 386.34
  Q 356.30 386.56 356.84 386.40
  L 358.71 385.81
  A 1.18 1.18 0.0 0 1 360.07 387.54
  Q 358.94 389.45 356.74 389.61
  C 347.85 390.26 347.72 378.33 355.25 376.98
  C 357.09 376.65 359.57 377.48 358.94 379.82
  A 0.58 0.58 0.0 0 1 358.37 380.25
  C 357.04 380.23 355.46 379.89 354.56 380.99
  Z"
/>
<path fill="#41714217" d="
  M 436.48 386.55
  L 437.43 379.98
  Q 437.69 378.14 439.52 378.49
  L 439.95 378.57
  A 1.67 1.66 -82.3 0 1 441.29 380.34
  C 440.85 385.69 440.96 392.56 432.74 390.12
  C 428.47 388.86 429.59 383.29 430.40 379.13
  Q 430.73 377.46 432.42 377.69
  L 432.70 377.73
  A 1.81 1.81 0.0 0 1 434.25 379.69
  L 433.67 386.03
  A 1.25 1.25 0.0 0 0 434.73 387.37
  L 435.28 387.45
  A 1.06 1.06 0.0 0 0 436.48 386.55
  Z"
/>
<ellipse fill="#ffffff00" cx="0.00" cy="0.00" transform="translate(388.71,379.38) rotate(39.3)" rx="1.32" ry="1.11"/>
<ellipse fill="#ffffff00" cx="0.00" cy="0.00" transform="translate(403.98,381.86) rotate(91.3)" rx="3.24" ry="2.43"/>
<rect fill="#41714217" x="-1.99" y="-6.15" transform="translate(343.91,385.04) rotate(-8.7)" width="3.98" height="12.30" rx="1.60"/>
<circle fill="#ffffff00" cx="375.02" cy="380.04" r="1.16"/>
<path fill="#ffffff00" d="
  M 418.60 379.80
  A 0.36 0.36 0.0 0 1 418.99 379.47
  L 419.24 379.49
  A 2.84 2.76 4.3 0 1 421.87 382.45
  L 421.80 383.37
  A 2.84 2.76 4.3 0 1 418.76 385.91
  L 418.50 385.89
  A 0.36 0.36 0.0 0 1 418.17 385.50
  L 418.60 379.80
  Z"
/>
<path fill="#41714217" d="
  M 449.28 388.93
  Q 450.98 389.58 452.82 389.61
  A 1.04 1.04 0.0 0 1 453.72 390.16
  Q 454.39 391.37 452.97 391.91
  C 441.26 396.35 442.32 376.05 453.66 380.66
  Q 455.00 381.21 454.95 382.65
  L 454.93 383.00
  A 0.94 0.94 0.0 0 1 453.71 383.87
  L 451.20 383.12
  A 1.05 1.04 -58.0 0 0 450.19 383.36
  Q 448.14 385.30 448.70 388.23
  A 0.95 0.94 -84.9 0 0 449.28 388.93
  Z"
/>
<path fill="#41714217" d="
  M 334.19 386.24
  L 333.02 382.43
  Q 332.58 380.99 334.02 380.57
  L 334.48 380.44
  Q 336.10 379.97 336.44 381.62
  L 338.23 390.49
  A 1.82 1.81 75.8 0 1 336.98 392.59
  C 332.90 393.80 332.33 390.30 329.78 388.41
  Q 329.20 387.97 329.38 388.68
  L 330.32 392.48
  Q 330.71 394.03 329.12 394.18
  L 328.85 394.20
  Q 327.26 394.35 326.87 392.81
  Q 325.93 389.13 325.16 385.24
  Q 324.60 382.46 327.49 381.93
  C 330.26 381.42 331.93 384.97 333.81 386.49
  Q 334.42 386.99 334.19 386.24
  Z"
/>
<path fill="#41714217" d="
  M 461.71 390.13
  A 0.55 0.55 0.0 0 0 461.66 391.20
  Q 463.36 391.72 465.03 392.30
  Q 465.32 392.40 465.51 392.59
  Q 465.83 392.91 465.85 393.08
  A 1.62 1.42 -89.0 0 1 464.22 394.88
  L 458.29 393.83
  Q 456.99 393.61 457.22 392.31
  L 458.79 383.24
  A 1.78 1.77 6.7 0 1 460.65 381.78
  Q 463.29 381.94 465.53 382.38
  Q 466.98 382.66 467.34 383.80
  A 1.28 1.28 0.0 0 1 466.02 385.46
  L 462.55 385.20
  A 0.36 0.35 -3.1 0 0 462.17 385.62
  L 462.24 385.96
  A 0.95 0.93 -89.6 0 0 462.96 386.70
  L 465.13 387.20
  Q 465.75 387.34 465.91 387.96
  Q 466.15 388.92 465.61 389.64
  A 1.02 1.01 -67.6 0 1 464.66 390.04
  Q 463.18 389.84 461.71 390.13
  Z"
/>
<path fill="#41714217" d="
  M 315.81 396.19
  L 315.71 397.24
  A 1.17 1.16 -86.4 0 1 314.51 398.30
  L 313.09 398.24
  A 1.13 1.12 -88.0 0 1 312.01 397.07
  Q 312.13 392.85 312.39 388.89
  Q 312.55 386.57 313.73 385.68
  C 315.37 384.44 317.32 384.77 318.64 386.47
  Q 321.30 389.91 323.47 393.83
  A 1.38 1.38 0.0 0 1 322.98 395.68
  L 322.52 395.96
  Q 321.33 396.69 320.38 395.67
  Q 318.62 393.77 316.33 395.32
  Q 315.87 395.63 315.81 396.19
  Z
  M 317.37 390.99
  L 316.52 389.56
  Q 316.02 388.72 315.83 389.68
  L 315.46 391.58
  A 0.54 0.54 0.0 0 0 316.11 392.20
  L 316.95 392.00
  Q 317.85 391.78 317.37 390.99
  Z"
/>
<path fill="#41714217" d="
  M 304.44 397.08
  Q 303.22 396.97 302.24 396.24
  A 1.00 0.99 -40.7 0 1 302.37 394.57
  Q 304.15 393.61 306.15 393.26
  Q 306.65 393.18 306.96 393.58
  C 308.26 395.32 309.88 398.38 307.60 400.10
  C 305.03 402.04 301.56 402.81 298.77 400.88
  C 292.99 396.88 298.44 386.60 305.44 389.36
  Q 305.89 389.54 306.04 390.01
  Q 306.22 390.62 305.98 391.22
  A 0.95 0.94 -82.3 0 1 305.23 391.80
  C 303.93 391.96 302.46 392.04 301.41 392.76
  C 298.51 394.74 300.70 399.49 304.23 398.64
  Q 304.98 398.45 305.01 397.73
  A 0.63 0.63 0.0 0 0 304.44 397.08
  Z"
/>
<path fill="#ffffff00" d="
  M 317.37 390.99
  Q 317.85 391.78 316.95 392.00
  L 316.11 392.20
  A 0.54 0.54 0.0 0 1 315.46 391.58
  L 315.83 389.68
  Q 316.02 388.72 316.52 389.56
  L 317.37 390.99
  Z"
/>
<rect fill="#41714217" x="-3.37" y="-1.47" transform="translate(473.06,391.58) rotate(10.6)" width="6.74" height="2.94" rx="1.39"/>
<path fill="#41714217" d="
  M 288.48 404.01
  L 289.24 406.05
  A 1.01 1.01 0.0 0 1 289.12 406.99
  C 287.55 409.27 285.87 407.55 285.14 405.84
  Q 283.58 402.21 282.31 398.69
  A 1.93 1.93 0.0 0 1 283.45 396.23
  C 287.91 394.52 292.90 392.88 292.49 400.24
  A 1.05 1.02 -68.6 0 0 292.85 401.09
  L 294.60 402.61
  A 1.50 1.50 0.0 0 1 294.63 404.84
  L 294.07 405.35
  Q 292.84 406.48 291.63 405.31
  L 289.56 403.31
  A 0.66 0.66 0.0 0 0 288.48 404.01
  Z
  M 288.9462 398.8456
  A 1.38 1.19 -8.1 0 0 287.4123 397.8619
  A 1.38 1.19 -8.1 0 0 286.2138 399.2344
  A 1.38 1.19 -8.1 0 0 287.7477 400.2181
  A 1.38 1.19 -8.1 0 0 288.9462 398.8456
  Z"
/>
<ellipse fill="#ffffff00" cx="0.00" cy="0.00" transform="translate(287.58,399.04) rotate(-8.1)" rx="1.38" ry="1.19"/>
<path fill="#41714217" d="
  M 274.5409 413.6375
  A 6.48 6.34 88.4 0 1 268.0225 407.3370
  A 6.48 6.34 88.4 0 1 274.1791 400.6825
  A 6.48 6.34 88.4 0 1 280.6975 406.9830
  A 6.48 6.34 88.4 0 1 274.5409 413.6375
  Z
  M 275.8952 410.1628
  A 3.35 2.34 63.3 0 0 276.4805 406.1186
  A 3.35 2.34 63.3 0 0 272.8848 404.1772
  A 3.35 2.34 63.3 0 0 272.2995 408.2214
  A 3.35 2.34 63.3 0 0 275.8952 410.1628
  Z"
/>
<ellipse fill="#ffffff00" cx="0.00" cy="0.00" transform="translate(274.39,407.17) rotate(63.3)" rx="3.35" ry="2.34"/>
<rect fill="#41714217" x="-3.36" y="-1.47" transform="translate(262.61,414.21) rotate(-26.1)" width="6.72" height="2.94" rx="1.40"/>
</svg>
