<svg width="484" height="433" viewBox="0 0 484 433" fill="none" xmlns="http://www.w3.org/2000/svg">
<path d="M298.572 82.9482C260.89 72.6154 212.101 82.1219 151.898 118.508C102.861 148.146 71.3468 188.195 58.6134 231.604C41.0299 291.548 62.4254 336.263 116.368 359.61C156.081 376.799 209.087 381.844 284.489 342.12C345.699 309.871 401.069 266.862 397.601 204.189C396.308 180.857 378.891 162.761 361.279 144.087C353.277 111.959 331.445 91.9574 298.574 82.944L298.572 82.9482Z" fill="#B91F27" fill-opacity="0.9"/>
<g opacity="0.453" filter="url(#filter0_f_64_62)">
<path d="M322.132 217.624C319.268 212.846 313.538 209.972 305.876 209.47C298.213 208.969 289.069 210.87 279.935 214.863C285.812 209.959 290.283 204.618 292.715 199.595C295.147 194.571 295.417 190.118 293.488 186.865C291.034 182.756 285.24 180.869 277.38 181.619C269.52 182.37 260.238 185.696 251.575 190.867C242.913 196.038 235.58 202.629 231.189 209.192C226.799 215.754 225.71 221.75 228.163 225.86C230.189 229.237 234.488 231.128 240.407 231.246C246.325 231.364 253.537 229.703 260.943 226.515C253.596 232.596 248.06 239.518 245.179 246.226C242.298 252.935 242.228 259.063 244.981 263.678C247.583 268.015 252.555 270.792 259.221 271.634C265.888 272.475 273.927 271.341 282.249 268.384C280.294 271.596 279.137 274.914 278.868 278.082C278.6 281.25 279.226 284.184 280.699 286.658C283.256 290.943 288.19 293.572 294.414 293.967C300.639 294.361 307.644 292.488 313.889 288.761C316.982 286.915 319.795 284.669 322.167 282.151C324.539 279.634 326.425 276.894 327.716 274.088C329.007 271.283 329.678 268.466 329.691 265.799C329.704 263.133 329.059 260.668 327.792 258.547C326.253 255.976 323.84 253.977 320.756 252.717C317.671 251.457 314.004 250.973 310.058 251.303C316.119 245.506 320.498 239.215 322.646 233.223C324.795 227.23 324.615 221.804 322.131 217.625L322.132 217.624Z" fill="white" fill-opacity="0.9"/>
</g>
<g opacity="0.688" filter="url(#filter1_f_64_62)">
<path d="M260.304 254.531C264.512 261.579 278.333 261.078 291.176 253.412C304.018 245.746 311.018 233.818 306.811 226.77C302.604 219.721 288.782 220.222 275.94 227.888C263.097 235.554 256.097 247.483 260.304 254.531Z" fill="white" fill-opacity="0.9"/>
</g>
<g opacity="0.525" filter="url(#filter2_f_64_62)">
<path d="M281.197 114.705C293.368 135.095 307.99 148.786 313.856 145.285C319.721 141.783 314.609 122.415 302.438 102.025C290.266 81.6354 275.644 67.9445 269.779 71.4459C263.913 74.9473 269.025 94.3151 281.197 114.705Z" fill="#FFFFBA" fill-opacity="0.9"/>
</g>
<g opacity="0.351" filter="url(#filter3_f_64_62)">
<path d="M331.758 196.333C337.649 206.202 346.274 211.905 351.023 209.071C355.771 206.237 354.845 195.938 348.953 186.069C343.062 176.199 334.437 170.496 329.688 173.331C324.94 176.165 325.866 186.464 331.758 196.333Z" fill="white" fill-opacity="0.9"/>
</g>
<path d="M353.582 130.78C356.691 127.926 332.733 92.1679 323.886 85.6279C329.712 96.5498 337.992 107.731 336.506 117.879C326.961 105.173 315.561 110.392 308.201 112.597C312.71 114.173 317.485 115.591 321.591 117.408C314.471 119.282 307.328 131.433 300.189 142.074C316.476 136.77 330.853 129.594 343.273 148.367C349.755 163.885 359.776 177.98 372.542 188.973C372.856 186.534 384.687 213.61 381.754 225.089C386.321 218.566 381.904 188.992 375.882 186.523C383.555 183.162 389.46 184.114 395.178 185.522C388.806 176.392 380.275 169.561 371.322 163.179C367.541 149.344 364.518 135.453 357.408 121.867C357.265 125.66 356.895 129.288 353.582 130.78Z" fill="url(#paint0_linear_64_62)" fill-opacity="0.9"/>
<path d="M461.722 225.364C449.218 222.618 439.268 231.089 428.256 224.076C409.334 212.026 389.031 195.881 371.535 187.28C352.844 170.348 345.456 147.026 333.58 125.36C330.459 119.665 327.573 116.026 332.585 112.557C336.545 109.816 334.129 108.898 335.593 104.469L341.065 111.721C340.485 86.6977 345.511 73.8494 353.328 51.9802C354.541 48.5853 355.044 49.1316 357.691 50.4649C364.305 53.7959 371.355 56.8662 378.152 60.0866L356.25 52.1241C348.793 83.1504 348.714 104.32 353.952 133.608C368.026 126.624 362.179 92.3792 402.498 88.9975C366.651 100.646 383.054 131.206 367.458 158.618C379.022 159.548 417.785 160.61 437.645 181.201C416.84 161.797 396.148 169.307 382.206 173.365C390.229 180.038 392.782 177.548 396.072 176.292C394.134 180.14 391.278 182.502 384.784 182.485C397.004 194.58 413.509 214.202 430.783 222.567C443.099 228.531 448.908 222.25 461.72 225.364L461.722 225.364Z" fill="url(#paint1_linear_64_62)" fill-opacity="0.9"/>
<path d="M312.44 90.2154C322.078 101.869 332.058 109.603 342.412 113.069L337.46 102.605C332.344 102.727 321.179 94.8723 312.441 90.2162L312.44 90.2154Z" fill="url(#paint2_linear_64_62)" fill-opacity="0.9"/>
<path d="M378.16 60.0889C377.245 59.655 376.309 59.2337 375.385 58.8043L355.844 51.0546C345.365 72.0674 344.23 90.2837 342.87 113.287C347.37 119.716 350.828 126.536 353.92 133.693L353.965 133.609C353.963 133.61 353.961 133.611 353.959 133.612C348.721 104.324 348.8 83.1558 356.257 52.1296L378.161 60.09L378.16 60.0889Z" fill="#62753C" fill-opacity="0.9"/>
<path d="M461.722 225.364C448.91 222.249 443.1 228.531 430.785 222.567C413.805 214.343 397.589 195.279 385.434 183.144L385.373 183.138C385.227 182.963 385.074 182.798 384.926 182.627C384.881 182.582 384.83 182.528 384.785 182.483C384.79 182.483 384.795 182.484 384.801 182.484C378.405 175.158 369.95 170.438 364.331 159.806C362.693 160.886 359.623 164.26 355.109 163.047C377.831 182.394 423.766 224.453 437.317 225.912C445.407 226.784 450.507 223.655 458.931 224.939C459.85 225.03 460.776 225.156 461.722 225.364Z" fill="#62753C" fill-opacity="0.9"/>
<path d="M402.502 89.0044C380.318 90.8654 372.116 102.069 366.876 112.935C367.711 121.384 369.998 128.308 374.644 136.728C378.023 116.438 376.092 97.5861 402.502 89.0044Z" fill="url(#paint3_linear_64_62)" fill-opacity="0.9"/>
<path d="M355.751 164.122C377.183 164.497 369.689 144.849 413.487 143.562C415.854 138.523 414.17 136.903 410.963 133.104C397.228 128.473 365.72 131.89 355.9 140.265C358.096 147.935 355.953 153.583 353.64 160.855L355.751 164.122Z" fill="#546534" fill-opacity="0.9"/>
<path d="M413.798 136.758C413.605 136.423 413.37 136.085 413.116 135.74C413.03 135.624 412.938 135.504 412.847 135.385C412.681 135.171 412.505 134.951 412.321 134.726C411.904 134.218 411.468 133.701 410.967 133.108C410.449 132.933 409.894 132.774 409.327 132.622C409.122 132.567 408.912 132.515 408.701 132.463C408.293 132.362 407.873 132.268 407.443 132.178C407.235 132.135 407.031 132.09 406.818 132.049C406.214 131.932 405.593 131.825 404.952 131.73C403.987 131.585 402.977 131.47 401.942 131.371C401.647 131.343 401.344 131.319 401.044 131.294C400.233 131.228 399.405 131.175 398.563 131.135C398.259 131.12 397.96 131.101 397.653 131.09C396.582 131.051 395.489 131.034 394.38 131.036C394.04 131.036 393.695 131.045 393.352 131.049C392.526 131.059 391.694 131.08 390.856 131.111C390.438 131.127 390.021 131.141 389.601 131.162C388.517 131.216 387.428 131.285 386.336 131.373C386.324 131.374 386.312 131.376 386.3 131.377C385.91 131.409 385.519 131.451 385.128 131.487C384.335 131.56 383.542 131.642 382.751 131.732C382.256 131.789 381.761 131.849 381.268 131.913C380.478 132.014 379.693 132.127 378.911 132.246C378.276 132.343 377.646 132.443 377.018 132.552C376.249 132.684 375.487 132.824 374.733 132.972C374.215 133.075 373.702 133.182 373.193 133.292C372.569 133.426 371.956 133.569 371.348 133.715C370.883 133.827 370.41 133.933 369.955 134.051C390.359 133.392 379.535 140.884 384.824 149.072C390.951 146.212 399.66 143.972 413.491 143.566C413.662 143.202 413.806 142.861 413.936 142.53C413.973 142.436 414.003 142.347 414.036 142.255C414.12 142.027 414.195 141.803 414.259 141.589C414.29 141.488 414.318 141.387 414.345 141.288C414.398 141.088 414.44 140.896 414.476 140.707C414.493 140.615 414.515 140.521 414.528 140.431C414.561 140.211 414.58 139.999 414.589 139.792C414.592 139.722 414.596 139.651 414.597 139.582C414.598 139.363 414.587 139.15 414.562 138.943C414.555 138.882 414.542 138.823 414.533 138.763C414.507 138.596 414.474 138.432 414.431 138.27C414.411 138.194 414.392 138.118 414.368 138.043C414.32 137.888 414.264 137.735 414.201 137.583C414.174 137.519 414.15 137.454 414.121 137.39C414.025 137.179 413.92 136.968 413.798 136.758Z" fill="url(#paint4_linear_64_62)" fill-opacity="0.9"/>
<g opacity="0.681" filter="url(#filter4_f_64_62)">
<path d="M260.681 130.831C257.787 125.985 251.698 123.316 243.751 123.411C235.805 123.506 226.653 126.358 218.309 131.339C209.964 136.32 203.111 143.022 199.256 149.972C195.401 156.921 194.861 163.548 197.753 168.395C199.666 171.568 202.973 173.83 207.349 174.959C209.617 170.729 212.846 166.512 216.843 162.56C220.841 158.608 225.525 155.002 230.617 151.956C235.715 148.914 241.115 146.496 246.494 144.848C251.874 143.199 257.123 142.354 261.928 142.362C262.998 137.985 262.568 134.012 260.681 130.831Z" fill="#FFFF7E" fill-opacity="0.9"/>
</g>
<path d="M410.063 133.482C408.286 137.624 409.912 141.476 412.089 143.105C409.627 139.718 410.517 137.006 410.063 133.482Z" fill="#889A59" fill-opacity="0.9"/>
<defs>
<filter id="filter0_f_64_62" x="151.12" y="105.699" width="254.33" height="264.078" filterUnits="userSpaceOnUse" color-interpolation-filters="sRGB">
<feFlood flood-opacity="0" result="BackgroundImageFix"/>
<feBlend mode="normal" in="SourceGraphic" in2="BackgroundImageFix" result="shape"/>
<feGaussianBlur stdDeviation="37.8793" result="effect1_foregroundBlur_64_62"/>
</filter>
<filter id="filter1_f_64_62" x="183.323" y="146.036" width="200.469" height="189.229" filterUnits="userSpaceOnUse" color-interpolation-filters="sRGB">
<feFlood flood-opacity="0" result="BackgroundImageFix"/>
<feBlend mode="normal" in="SourceGraphic" in2="BackgroundImageFix" result="shape"/>
<feGaussianBlur stdDeviation="37.8793" result="effect1_foregroundBlur_64_62"/>
</filter>
<filter id="filter2_f_64_62" x="212.015" y="15.5667" width="159.605" height="185.597" filterUnits="userSpaceOnUse" color-interpolation-filters="sRGB">
<feFlood flood-opacity="0" result="BackgroundImageFix"/>
<feBlend mode="normal" in="SourceGraphic" in2="BackgroundImageFix" result="shape"/>
<feGaussianBlur stdDeviation="27.6664" result="effect1_foregroundBlur_64_62"/>
</filter>
<filter id="filter3_f_64_62" x="283.82" y="129.769" width="113.072" height="122.864" filterUnits="userSpaceOnUse" color-interpolation-filters="sRGB">
<feFlood flood-opacity="0" result="BackgroundImageFix"/>
<feBlend mode="normal" in="SourceGraphic" in2="BackgroundImageFix" result="shape"/>
<feGaussianBlur stdDeviation="21.4174" result="effect1_foregroundBlur_64_62"/>
</filter>
<filter id="filter4_f_64_62" x="96.1924" y="23.6844" width="266.034" height="250.999" filterUnits="userSpaceOnUse" color-interpolation-filters="sRGB">
<feFlood flood-opacity="0" result="BackgroundImageFix"/>
<feBlend mode="normal" in="SourceGraphic" in2="BackgroundImageFix" result="shape"/>
<feGaussianBlur stdDeviation="49.862" result="effect1_foregroundBlur_64_62"/>
</filter>
<linearGradient id="paint0_linear_64_62" x1="364.594" y1="146.718" x2="326.965" y2="168.732" gradientUnits="userSpaceOnUse">
<stop stop-color="#8E2B23"/>
<stop offset="1" stop-color="#8E2B23" stop-opacity="0"/>
</linearGradient>
<linearGradient id="paint1_linear_64_62" x1="393.963" y1="93.7689" x2="352.302" y2="121.493" gradientUnits="userSpaceOnUse">
<stop stop-color="#A0B85F"/>
<stop offset="1" stop-color="#43432C"/>
</linearGradient>
<linearGradient id="paint2_linear_64_62" x1="312.998" y1="90.5485" x2="340.767" y2="109.505" gradientUnits="userSpaceOnUse">
<stop stop-color="#546534"/>
<stop offset="1" stop-color="#AE9862"/>
</linearGradient>
<linearGradient id="paint3_linear_64_62" x1="401.484" y1="88.972" x2="363.737" y2="115.679" gradientUnits="userSpaceOnUse">
<stop stop-color="#9BB26D"/>
<stop offset="1" stop-color="#9BB26D" stop-opacity="0"/>
</linearGradient>
<linearGradient id="paint4_linear_64_62" x1="408.294" y1="130.453" x2="397.395" y2="146.946" gradientUnits="userSpaceOnUse">
<stop stop-color="#262E1C"/>
<stop offset="1" stop-color="#546534" stop-opacity="0.41573"/>
</linearGradient>
</defs>
</svg>
