<svg xmlns="http://www.w3.org/2000/svg" width="42" height="42" viewBox="0 0 42 42" fill="none">
  <path d="M36.7172 18.4406C40.3266 20.475 39.7031 24.0516 39.7031 24.0516C39.7031 24.0516 38.6531 24.5766 37.0453 24.4781C35.7656 24.3797 34.125 23.8875 32.4516 22.3125C32.3531 21.4922 32.025 20.7703 31.4672 20.1797C31.3031 20.0156 31.1062 19.8516 30.9094 19.7203C33.3375 19.7859 35.2734 19.1625 36.7172 18.4406Z" fill="#fff"/>
  <path d="M37.0125 24.4781L36.9797 25.1672C37.3406 26.6766 36.8156 28.5141 35.4703 29.8594C34.125 31.2047 32.1891 31.6313 31.0734 31.4344L30.8109 31.3359C31.3031 29.8266 31.0734 28.2844 30.0562 27.2672L29.9906 27.1688C30.0562 27.1031 30.1547 27.0703 30.2203 27.0047C30.2531 27.0047 30.2531 26.9719 30.2859 26.9719C30.4828 26.8406 30.6469 26.6766 30.8437 26.4797C32.0578 25.2656 32.6156 23.6906 32.4516 22.3125C34.125 23.8875 35.7328 24.3797 37.0125 24.4781Z" fill="#fff"/>
  <path d="M39.4734 16.4719C39.4734 16.4719 38.5219 17.5547 36.7172 18.4406C35.3063 19.1625 33.3375 19.7859 30.8766 19.7203C29.7937 19.0312 28.3828 18.9984 27.0375 19.5234L27.0047 19.4906C28.3828 17.6859 28.5141 15.3891 27.0047 13.9125C34.8141 11.2547 39.4734 16.4719 39.4734 16.4719Z" fill="#fff"/>
  <path d="M30.8766 19.7531C31.0734 19.8844 31.2703 20.0156 31.4344 20.2125C32.025 20.8031 32.3203 21.525 32.4188 22.3453C32.5828 23.7234 32.025 25.2984 30.8109 26.5125C30.6469 26.6766 30.45 26.8406 30.2531 27.0047C30.2203 27.0047 30.2203 27.0375 30.1875 27.0375C30.1219 27.1031 30.0234 27.1359 29.9578 27.2016C28.6453 28.1203 27.0703 28.3828 25.7906 27.9562C25.7578 27.9562 25.7578 27.9234 25.725 27.9234C23.1 26.5125 23.1984 23.3625 24.5438 21.525L24.5109 21.4922C25.2984 21.1641 25.9547 20.6719 26.3813 20.2453C26.6109 20.0156 26.8078 19.7859 26.9719 19.5562L27.0047 19.5891C28.3828 18.9984 29.7938 19.0641 30.8766 19.7531Z" fill="#fff"/>
  <path d="M22.1156 31.3359L21.3281 31.2375C23.1656 30.975 24.8391 29.4328 25.5609 28.1203L25.6922 27.8578C25.725 27.8578 25.725 27.8906 25.7578 27.8906C27.0375 28.3172 28.6125 28.0547 29.925 27.1359L29.9906 27.2344C31.0078 28.2516 31.2703 29.8266 30.7453 31.3031C30.4828 32.0578 30.0234 32.8453 29.3672 33.4688C28.2844 34.5516 26.9391 35.1094 25.6922 35.1094C25.0031 35.1094 24.3141 34.9453 23.7563 34.5516C22.2797 33.6328 22.0172 32.4516 22.1156 31.3359Z" fill="#fff"/>
  <path d="M27.0047 13.9453C28.5141 15.4547 28.35 17.7187 27.0047 19.5234C26.8078 19.7531 26.6109 20.0156 26.4141 20.2125C25.9875 20.6391 25.3313 21.0984 24.5438 21.4594C23.4609 21.9187 22.1812 22.1484 21 21.525C20.7047 21.3609 20.4094 21.1641 20.1141 20.8687C19.0641 19.8187 18.5719 18.3094 19.2609 16.6687C19.5234 15.9797 20.0156 15.2906 20.7375 14.5687C20.9016 14.4047 21.0328 14.2734 21.1969 14.1422C23.0344 12.6656 25.4297 12.5016 26.8734 13.8141C26.9391 13.8469 26.9719 13.8797 27.0047 13.9453Z" fill="#fff"/>
  <path d="M24.3797 1.37813C24.3797 1.37813 29.5969 6.0375 26.9063 13.8469C25.4625 12.5344 23.0344 12.6984 21.2297 14.175C21.7547 12.8625 21.7219 11.4188 21.0328 10.3688L21.0984 10.3359C20.9672 7.74375 21.6234 5.67657 22.3781 4.16719C23.2969 2.32969 24.3797 1.37813 24.3797 1.37813Z" fill="#fff"/>
  <path d="M17.7516 37.7016L17.4563 37.8656C16.2422 41.5078 11.0578 41.5406 9.81094 39.0141V38.9813C9.975 38.85 10.1063 38.7188 10.2375 38.5875C11.2547 37.5703 11.6813 36.1594 11.4844 34.7813L11.6156 34.2234C14.5359 35.175 17.3578 32.2219 18.6047 30.5813L18.6375 30.5484C19.5562 31.1719 20.5078 31.3359 21.4266 31.2047L22.2141 31.2703C22.0828 32.3859 22.3781 33.5672 23.8875 34.5516C24.4453 34.9125 25.1344 35.0766 25.8234 35.1094V35.1422C24.4125 38.5547 19.9172 40.1297 17.7516 37.7016Z" fill="#fff"/>
  <path d="M25.725 27.8906L25.5938 28.1531C24.8391 29.4656 23.1984 30.975 21.3609 31.2703C20.4422 31.4016 19.4906 31.2375 18.5719 30.6141C18.3094 30.45 18.0797 30.2531 17.85 29.9906C16.1766 28.3172 16.5375 25.9547 16.5375 25.9547L16.5047 25.725C17.7516 25.4625 18.9656 24.7406 20.0156 23.6906L21.0328 21.4922C22.1813 22.0828 23.4938 21.8859 24.5766 21.4266L24.6094 21.4594C23.1984 23.3297 23.1 26.4797 25.725 27.8906Z" fill="#fff"/>
  <path d="M21.0328 10.3359C21.7219 11.4188 21.7547 12.8297 21.2297 14.1422C21.0656 14.2734 20.9016 14.4047 20.7703 14.5688C20.0484 15.2906 19.5891 15.9797 19.2938 16.6688H19.2609C17.9484 17.6859 16.4719 17.9156 15.1594 17.5219C14.7328 17.3906 14.1094 17.0625 13.7813 16.7672C13.7484 16.7344 13.6828 16.7016 13.65 16.6688C12.3047 15.3234 12.3047 13.0922 13.5188 11.2875C13.7156 10.9594 13.9781 10.6641 14.2406 10.4016C15.5531 9.08906 17.2922 8.53125 18.7688 8.85938C19.425 8.99063 20.0484 9.28594 20.5406 9.77813C20.7703 9.94219 20.9016 10.1063 21.0328 10.3359Z" fill="#fff"/>
  <path d="M21.0984 10.2703L21.0328 10.3031C20.9016 10.1062 20.7375 9.90937 20.5734 9.71249C20.0813 9.22031 19.4906 8.92499 18.8016 8.79374L18.8344 8.69531C17.7188 7.57968 17.0625 6.46406 16.7016 5.44687C15.8484 2.98593 16.7672 1.11562 16.7672 1.11562C16.7672 1.11562 20.3109 0.492183 22.3781 4.06874C21.6234 5.61093 21 7.67812 21.0984 10.2703Z" fill="#fff"/>
  <path d="M21 21.525L19.9828 23.7234C18.9656 24.7406 17.7187 25.4625 16.4719 25.7578C14.9953 26.0859 13.5187 25.7578 12.3375 24.5766C12.1734 24.4125 12.0422 24.2484 11.9109 24.0844C11.1891 23.0672 10.9594 21.7547 11.1891 20.6063C11.2219 20.5078 11.2219 20.4094 11.2547 20.3109C11.6812 18.8344 13.0266 17.6531 13.1906 17.5219L13.7812 16.8328C14.1094 17.1281 14.7 17.4562 15.1266 17.5875C16.4391 17.9812 17.9156 17.7516 19.2281 16.7344H19.2609C18.5719 18.375 19.0641 19.8844 20.1141 20.9344C20.4094 21.1641 20.7047 21.3609 21 21.525Z" fill="#fff"/>
  <path d="M18.8344 8.72813L18.8016 8.82656C17.325 8.53125 15.5859 9.05625 14.2734 10.3688C13.9781 10.6641 13.7484 10.9594 13.5516 11.2547C12.4687 10.9266 11.1891 11.1234 10.0406 11.7469L9.7125 11.3531C9.51562 10.2375 9.975 8.26875 11.2875 6.95625C12.6328 5.61094 14.4703 5.08594 15.9797 5.44688L16.7016 5.47969C17.0625 6.49688 17.7188 7.57969 18.8344 8.72813Z" fill="#fff"/>
  <path d="M18.5719 30.5813C17.325 32.2547 14.5031 35.2078 11.5828 34.2563C10.9266 34.0594 10.2703 33.6656 9.64687 33.0094C9.38437 32.7469 9.1875 32.4844 8.99062 32.2219C7.54687 30.0891 8.20312 27.3984 9.84375 25.4953C9.87656 25.4625 9.90937 25.3969 9.94219 25.3641L11.9109 24.0516C12.0422 24.2156 12.1734 24.4125 12.3375 24.5438C13.5187 25.725 14.9953 26.0531 16.4719 25.725L16.5047 25.9547C16.5047 25.9547 16.1437 28.3172 17.8172 29.9906C18.0797 30.2203 18.3094 30.4172 18.5719 30.5813Z" fill="#fff"/>
  <path d="M13.7812 16.7672L13.1906 17.4562C13.0266 17.6203 11.6812 18.8016 11.2547 20.2453L10.5984 20.0484C9.7125 19.9828 8.6625 19.5891 7.875 18.7687C7.44844 18.2766 7.21875 17.6531 7.12031 16.9969C6.92344 15.5859 7.48125 13.9781 8.72812 12.7312C9.12187 12.3375 9.58125 12.0094 10.0406 11.7469C11.1891 11.1234 12.4687 10.9266 13.5516 11.2547C12.3375 13.0594 12.3375 15.3234 13.6828 16.6359C13.7156 16.7016 13.7484 16.7344 13.7812 16.7672Z" fill="#fff"/>
  <path d="M11.9109 24.0516L9.94219 25.3641C9.90937 25.3969 9.87656 25.4625 9.84375 25.4953L9.81094 25.4625C8.07187 26.5453 5.90625 26.2172 4.59375 24.8719C2.82188 23.1 3.01875 20.2781 5.15156 18.375C5.67656 17.8828 6.59531 17.325 7.15313 16.9969H7.18594C7.28438 17.6531 7.51406 18.2766 7.94063 18.7687C8.72813 19.5891 9.77813 19.9828 10.6641 20.0484L11.3203 20.2453C11.2875 20.3437 11.2547 20.4422 11.2547 20.5406C10.9594 21.7219 11.1891 23.0344 11.9109 24.0516Z" fill="#fff"/>
  <path d="M11.55 34.2563L11.4187 34.8141C11.6156 36.1922 11.1891 37.6031 10.1719 38.6203C10.0406 38.7516 9.90938 38.8828 9.74531 39.0141C7.97344 40.4906 5.08594 41.0813 3.11719 39.1125C1.3125 37.3078 1.77188 34.1578 3.05156 32.3203L3.18281 32.025C3.34688 32.2219 3.51094 32.3859 3.74063 32.55C5.70938 34.1906 7.80937 33.1078 8.69531 32.2547L8.95781 32.2219C9.15469 32.4844 9.35156 32.7469 9.61406 33.0094C10.2703 33.6656 10.8938 34.0594 11.55 34.2563Z" fill="#fff"/>
  <path d="M9.77812 25.4625L9.81094 25.4953C8.17031 27.3984 7.51406 30.0891 8.95781 32.2219L8.69531 32.2547C7.84219 33.1078 5.70937 34.1906 3.74062 32.55C3.54375 32.3859 3.34687 32.1891 3.18281 32.025C1.8375 30.45 1.87031 28.1859 2.98594 26.5781L4.52813 24.8719C5.90625 26.2172 8.07187 26.5125 9.77812 25.4625Z" fill="#fff"/>
  <path d="M21.2297 14.1422C21.7547 12.8297 21.7219 11.3859 21.0328 10.3359C20.9016 10.1391 20.7375 9.9422 20.5734 9.74532C20.0813 9.25313 19.4906 8.95782 18.8016 8.82657C17.325 8.53126 15.5859 9.05626 14.2734 10.3688C13.9781 10.6641 13.7484 10.9594 13.5516 11.2547C12.3375 13.0594 12.3375 15.3234 13.6828 16.6359C13.7156 16.6688 13.7484 16.7016 13.8141 16.7344C14.1422 17.0297 14.7328 17.3578 15.1594 17.4891C16.4719 17.8828 17.9484 17.6531 19.2609 16.6359" stroke="#fff" stroke-width="0.6" stroke-miterlimit="10" stroke-linecap="round" stroke-linejoin="round"/>
  <path d="M15.9797 5.44688C14.4703 5.08594 12.6328 5.61094 11.2875 6.95625C9.975 8.30156 9.51562 10.2375 9.7125 11.3531" stroke="#fff" stroke-width="0.6" stroke-miterlimit="10" stroke-linecap="round" stroke-linejoin="round"/>
  <path d="M31.0406 31.4344C32.1563 31.6312 34.125 31.1719 35.4375 29.8594C36.7828 28.5141 37.3078 26.6766 36.9469 25.1672" stroke="#fff" stroke-width="0.6" stroke-miterlimit="10" stroke-linecap="round" stroke-linejoin="round"/>
  <path d="M27.0375 19.5563C28.3828 18.9984 29.7938 19.0641 30.8766 19.7531C31.0734 19.8844 31.2703 20.0156 31.4344 20.2125C32.025 20.8031 32.3203 21.525 32.4188 22.3453C32.5828 23.7234 32.025 25.2984 30.8109 26.5125C30.6469 26.6766 30.45 26.8406 30.2531 27.0047C30.2203 27.0047 30.2203 27.0375 30.1875 27.0375C30.1219 27.1031 30.0234 27.1359 29.9578 27.2016C28.6453 28.1203 27.0703 28.3828 25.7906 27.9563C25.7578 27.9563 25.7578 27.9234 25.725 27.9234C23.1 26.5125 23.1984 23.3625 24.5438 21.525" stroke="#fff" stroke-width="0.6" stroke-miterlimit="10" stroke-linecap="round" stroke-linejoin="round"/>
  <path d="M22.1484 31.2375V31.3359C22.0172 32.4516 22.3125 33.6328 23.8219 34.6172C24.3797 34.9781 25.0687 35.1422 25.7578 35.175C27.0047 35.175 28.3828 34.6172 29.4328 33.5344C30.0891 32.8781 30.5484 32.1234 30.8109 31.3688C31.3031 29.8594 31.0734 28.3172 30.0562 27.3" stroke="#fff" stroke-width="0.6" stroke-miterlimit="10" stroke-linecap="round" stroke-linejoin="round"/>
  <path d="M10.6313 20.0484C9.74531 19.9828 8.69531 19.5891 7.90781 18.7687C7.48125 18.2766 7.25156 17.6531 7.15312 16.9969C6.95625 15.5859 7.51406 13.9781 8.76094 12.7312C9.15469 12.3375 9.61406 12.0094 10.0734 11.7469C11.2219 11.1234 12.5016 10.9266 13.5844 11.2547" stroke="#fff" stroke-width="0.6" stroke-miterlimit="10" stroke-linecap="round" stroke-linejoin="round"/>
  <path d="M9.77812 25.4625C8.03906 26.5453 5.87344 26.2172 4.56094 24.8719C2.78906 23.1 2.98594 20.2781 5.11875 18.375C5.64375 17.8828 6.5625 17.325 7.12031 16.9969" stroke="#fff" stroke-width="0.6" stroke-miterlimit="10" stroke-linecap="round" stroke-linejoin="round"/>
  <path d="M18.5391 30.6141C17.2922 32.2547 14.5031 35.2078 11.55 34.2563C10.8938 34.0594 10.2375 33.6656 9.61406 33.0094C9.35156 32.7469 9.15469 32.4844 8.95781 32.2219C7.54687 30.0891 8.20313 27.3984 9.84375 25.4953C9.87656 25.4625 9.90937 25.3969 9.94219 25.3641" stroke="#fff" stroke-width="0.6" stroke-miterlimit="10" stroke-linecap="round" stroke-linejoin="round"/>
  <path d="M3.01875 26.5781C1.90312 28.1859 1.87031 30.45 3.21562 32.025C3.37969 32.2219 3.54375 32.3859 3.77344 32.55C5.74219 34.1906 7.84219 33.1078 8.72812 32.2547" stroke="#fff" stroke-width="0.6" stroke-miterlimit="10" stroke-linecap="round" stroke-linejoin="round"/>
  <path d="M3.08437 32.3203C1.80469 34.125 1.34531 37.3078 3.15 39.1125C5.11875 41.0812 8.00625 40.4906 9.77812 39.0141C9.94219 38.8828 10.0734 38.7516 10.2047 38.6203C11.2219 37.6031 11.6484 36.1922 11.4516 34.8141" stroke="#fff" stroke-width="0.6" stroke-miterlimit="10" stroke-linecap="round" stroke-linejoin="round"/>
  <path d="M17.4563 37.8656C16.2422 41.5078 11.0578 41.5406 9.81094 39.0141" stroke="#fff" stroke-width="0.6" stroke-miterlimit="10" stroke-linecap="round" stroke-linejoin="round"/>
  <path d="M16.7344 35.7656C16.9313 36.5859 17.2922 37.2094 17.7188 37.7016C19.9172 40.0969 24.3797 38.5547 25.725 35.1422" stroke="#fff" stroke-width="0.6" stroke-miterlimit="10" stroke-linecap="round" stroke-linejoin="round"/>
  <path d="M25.5938 28.1531C24.8391 29.4656 23.1984 30.975 21.3609 31.2703C20.4422 31.4016 19.4906 31.2375 18.5719 30.6141C18.3094 30.45 18.0797 30.2531 17.85 29.9906C16.1766 28.3172 16.5375 25.9547 16.5375 25.9547" stroke="#fff" stroke-width="0.6" stroke-miterlimit="10" stroke-linecap="round" stroke-linejoin="round"/>
  <path d="M13.1906 17.4563C13.0266 17.6203 11.6812 18.8016 11.2547 20.2453C11.2219 20.3438 11.1891 20.4422 11.1891 20.5406C10.9594 21.6891 11.1891 23.0016 11.9109 24.0188C12.0422 24.1828 12.1734 24.3797 12.3375 24.5109C13.5187 25.6922 14.9953 26.0203 16.4719 25.6922C17.7187 25.4297 18.9328 24.7078 19.9828 23.6578" stroke="#fff" stroke-width="0.6" stroke-miterlimit="10" stroke-linecap="round" stroke-linejoin="round"/>
  <path d="M27.0047 19.5234C26.8078 19.7531 26.6109 20.0156 26.4141 20.2125C25.9875 20.6391 25.3313 21.0984 24.5438 21.4594C23.4609 21.9187 22.1812 22.1484 21 21.525C20.7047 21.3609 20.4094 21.1641 20.1141 20.8687C19.0641 19.8187 18.5719 18.3094 19.2609 16.6687C19.5234 15.9797 20.0156 15.2906 20.7375 14.5687C20.9016 14.4047 21.0328 14.2734 21.1969 14.1422C23.0344 12.6656 25.4297 12.5016 26.8734 13.8141L26.9719 13.9125C28.5141 15.4219 28.35 17.6859 27.0047 19.5234Z" stroke="#fff" stroke-width="0.6" stroke-miterlimit="10" stroke-linecap="round" stroke-linejoin="round"/>
  <path d="M36.7172 18.4406C40.3266 20.475 39.7031 24.0516 39.7031 24.0516C39.7031 24.0516 38.6531 24.5766 37.0453 24.4781C35.7656 24.3797 34.125 23.8875 32.4516 22.3125" stroke="#fff" stroke-width="0.6" stroke-miterlimit="10" stroke-linecap="round" stroke-linejoin="round"/>
  <path d="M27.0047 13.9453C34.7813 11.2547 39.4734 16.4719 39.4734 16.4719C39.4734 16.4719 38.5219 17.5547 36.7172 18.4406C35.3063 19.1625 33.3375 19.7859 30.8766 19.7203" stroke="#fff" stroke-width="0.6" stroke-miterlimit="10" stroke-linecap="round" stroke-linejoin="round"/>
  <path d="M22.3781 4.13437C20.3438 0.524999 16.7672 1.18125 16.7672 1.18125C16.7672 1.18125 15.8156 3.01875 16.7016 5.5125C17.0625 6.52969 17.6859 7.6125 18.8344 8.76094" stroke="#fff" stroke-width="0.6" stroke-miterlimit="10" stroke-linecap="round" stroke-linejoin="round"/>
  <path d="M26.9063 13.8141C29.5969 6.03749 24.3797 1.34531 24.3797 1.34531C24.3797 1.34531 23.2969 2.29687 22.4109 4.10156C21.6563 5.57812 21 7.64531 21.1313 10.2703" stroke="#fff" stroke-width="0.6" stroke-miterlimit="10" stroke-linecap="round" stroke-linejoin="round"/>
  <path d="M28.9406 11.9437C28.9406 11.9437 32.8453 9.31874 32.6156 5.28281" stroke="#fff" stroke-width="0.6" stroke-miterlimit="10" stroke-linecap="round" stroke-linejoin="round"/>
</svg>